KantumruyPro-Bold.ufo
<glyph name="exclam" format="2">
	<advance width="301"/>
	<unicode hex="0021"/>
	<outline>
		<contour>
			<point x="239" y="660" type="line"/>
			<point x="62" y="660" type="line"/>
			<point x="62" y="447" type="line"/>
			<point x="81" y="215" type="line"/>
			<point x="220" y="215" type="line"/>
			<point x="239" y="447" type="line"/>
		</contour>
		<contour>
			<point x="150" y="159" type="curve" smooth="yes"/>
			<point x="90" y="159"/>
			<point x="54" y="128"/>
			<point x="54" y="75" type="curve" smooth="yes"/>
			<point x="54" y="23"/>
			<point x="90" y="-8"/>
			<point x="150" y="-8" type="curve" smooth="yes"/>
			<point x="210" y="-8"/>
			<point x="247" y="23"/>
			<point x="247" y="75" type="curve" smooth="yes"/>
			<point x="247" y="128"/>
			<point x="210" y="159"/>
		</contour>
	</outline>
</glyph>
<glyph name="numbersign" format="2">
	<advance width="688"/>
	<unicode hex="0023"/>
	<outline>
		<contour>
			<point x="572" y="660" type="line"/>
			<point x="456" y="660" type="line"/>
			<point x="350" y="0" type="line"/>
			<point x="465" y="0" type="line"/>
		</contour>
		<contour>
			<point x="619" y="261" type="line"/>
			<point x="26" y="261" type="line"/>
			<point x="26" y="159" type="line"/>
			<point x="619" y="159" type="line"/>
		</contour>
		<contour>
			<point x="327" y="660" type="line"/>
			<point x="211" y="660" type="line"/>
			<point x="105" y="0" type="line"/>
			<point x="221" y="0" type="line"/>
		</contour>
		<contour>
			<point x="662" y="501" type="line"/>
			<point x="69" y="501" type="line"/>
			<point x="69" y="399" type="line"/>
			<point x="662" y="399" type="line"/>
		</contour>
	</outline>
</glyph>
<glyph name="dollar" format="2">
	<advance width="629"/>
	<unicode hex="0024"/>
	<outline>
		<contour>
			<point x="320" y="0" type="curve" smooth="yes"/>
			<point x="474" y="0"/>
			<point x="586" y="73"/>
			<point x="586" y="210" type="curve" smooth="yes"/>
			<point x="586" y="316"/>
			<point x="513" y="358"/>
			<point x="405" y="383" type="curve" smooth="yes"/>
			<point x="299" y="407" type="line" smooth="yes"/>
			<point x="219" y="425"/>
			<point x="203" y="444"/>
			<point x="203" y="475" type="curve" smooth="yes"/>
			<point x="203" y="512"/>
			<point x="236" y="539"/>
			<point x="312" y="539" type="curve" smooth="yes"/>
			<point x="396" y="539"/>
			<point x="459" y="508"/>
			<point x="514" y="450" type="curve"/>
			<point x="591" y="551" type="line"/>
			<point x="525" y="623"/>
			<point x="435" y="660"/>
			<point x="321" y="660" type="curve" smooth="yes"/>
			<point x="151" y="660"/>
			<point x="49" y="572"/>
			<point x="49" y="452" type="curve" smooth="yes"/>
			<point x="49" y="356"/>
			<point x="126" y="304"/>
			<point x="229" y="279" type="curve" smooth="yes"/>
			<point x="361" y="247" type="line" smooth="yes"/>
			<point x="409" y="235"/>
			<point x="437" y="220"/>
			<point x="437" y="188" type="curve" smooth="yes"/>
			<point x="437" y="145"/>
			<point x="397" y="124"/>
			<point x="329" y="124" type="curve" smooth="yes"/>
			<point x="247" y="124"/>
			<point x="149" y="160"/>
			<point x="101" y="227" type="curve"/>
			<point x="21" y="115" type="line"/>
			<point x="84" y="46"/>
			<point x="196" y="0"/>
		</contour>
		<contour>
			<point x="269" y="-88" type="line"/>
			<point x="373" y="-88" type="line"/>
			<point x="373" y="748" type="line"/>
			<point x="269" y="748" type="line"/>
		</contour>
	</outline>
</glyph>
<glyph name="percent" format="2">
  <advance width="938"/>
  <unicode hex="0025"/>
  <outline>
    <contour>
      <point x="175" y="0" type="line"/>
      <point x="305" y="0" type="line"/>
      <point x="764" y="661" type="line"/>
      <point x="634" y="661" type="line"/>
    </contour>
    <contour>
      <point x="216" y="670" type="curve" smooth="yes"/>
      <point x="104" y="670"/>
      <point x="30" y="596"/>
      <point x="30" y="482" type="curve" smooth="yes"/>
      <point x="30" y="368"/>
      <point x="104" y="294"/>
      <point x="216" y="294" type="curve" smooth="yes"/>
      <point x="328" y="294"/>
      <point x="402" y="368"/>
      <point x="402" y="482" type="curve" smooth="yes"/>
      <point x="402" y="596"/>
      <point x="328" y="670"/>
    </contour>
    <contour>
      <point x="216" y="556" type="curve" smooth="yes"/>
      <point x="255" y="556"/>
      <point x="276" y="529"/>
      <point x="276" y="482" type="curve" smooth="yes"/>
      <point x="276" y="435"/>
      <point x="255" y="408"/>
      <point x="216" y="408" type="curve" smooth="yes"/>
      <point x="178" y="408"/>
      <point x="157" y="435"/>
      <point x="157" y="482" type="curve" smooth="yes"/>
      <point x="157" y="529"/>
      <point x="178" y="556"/>
    </contour>
    <contour>
      <point x="721" y="366" type="curve" smooth="yes"/>
      <point x="609" y="366"/>
      <point x="535" y="292"/>
      <point x="535" y="178" type="curve" smooth="yes"/>
      <point x="535" y="64"/>
      <point x="609" y="-10"/>
      <point x="721" y="-10" type="curve" smooth="yes"/>
      <point x="833" y="-10"/>
      <point x="907" y="64"/>
      <point x="907" y="178" type="curve" smooth="yes"/>
      <point x="907" y="292"/>
      <point x="833" y="366"/>
    </contour>
    <contour>
      <point x="721" y="252" type="curve" smooth="yes"/>
      <point x="760" y="252"/>
      <point x="781" y="225"/>
      <point x="781" y="178" type="curve" smooth="yes"/>
      <point x="781" y="131"/>
      <point x="760" y="104"/>
      <point x="721" y="104" type="curve" smooth="yes"/>
      <point x="683" y="104"/>
      <point x="661" y="131"/>
      <point x="661" y="178" type="curve" smooth="yes"/>
      <point x="661" y="225"/>
      <point x="683" y="252"/>
    </contour>
  </outline>
</glyph>
<glyph name="ampersand" format="2">
  <advance width="634"/>
  <unicode hex="0026"/>
  <outline>
    <contour>
      <point x="253" y="-10" type="curve" smooth="yes"/>
      <point x="360" y="-10"/>
      <point x="435" y="31"/>
      <point x="478" y="96" type="curve"/>
      <point x="508" y="120" type="line"/>
      <point x="561" y="174"/>
      <point x="588" y="251"/>
      <point x="588" y="336" type="curve"/>
      <point x="474" y="339" type="line"/>
      <point x="476" y="268"/>
      <point x="460" y="218"/>
      <point x="436" y="176" type="curve"/>
      <point x="422" y="155" type="line"/>
      <point x="379" y="123"/>
      <point x="335" y="101"/>
      <point x="276" y="101" type="curve" smooth="yes"/>
      <point x="214" y="101"/>
      <point x="171" y="134"/>
      <point x="171" y="185" type="curve" smooth="yes"/>
      <point x="171" y="237"/>
      <point x="190" y="261"/>
      <point x="255" y="301" type="curve"/>
      <point x="285" y="318" type="line"/>
      <point x="425" y="355"/>
      <point x="483" y="425"/>
      <point x="483" y="515" type="curve" smooth="yes"/>
      <point x="483" y="595"/>
      <point x="426" y="670"/>
      <point x="293" y="670" type="curve" smooth="yes"/>
      <point x="152" y="670"/>
      <point x="91" y="584"/>
      <point x="91" y="501" type="curve" smooth="yes"/>
      <point x="91" y="420"/>
      <point x="117" y="380"/>
      <point x="305" y="180" type="curve" smooth="yes"/>
      <point x="470" y="4"/>
      <point x="516" y="-10"/>
      <point x="615" y="-10" type="curve"/>
      <point x="630" y="109" type="line"/>
      <point x="550" y="99"/>
      <point x="516" y="135"/>
      <point x="388" y="280" type="curve" smooth="yes"/>
      <point x="256" y="429"/>
      <point x="236" y="456"/>
      <point x="236" y="496" type="curve" smooth="yes"/>
      <point x="236" y="533"/>
      <point x="257" y="558"/>
      <point x="294" y="558" type="curve" smooth="yes"/>
      <point x="327" y="558"/>
      <point x="349" y="538"/>
      <point x="349" y="503" type="curve" smooth="yes"/>
      <point x="349" y="456"/>
      <point x="328" y="424"/>
      <point x="244" y="373" type="curve"/>
      <point x="213" y="364" type="line"/>
      <point x="61" y="337"/>
      <point x="25" y="245"/>
      <point x="25" y="172" type="curve" smooth="yes"/>
      <point x="25" y="53"/>
      <point x="118" y="-10"/>
    </contour>
  </outline>
</glyph>
<glyph name="quotesingle" format="2">
	<advance width="250"/>
	<unicode hex="0027"/>
	<outline>
		<contour>
			<point x="205" y="678" type="line"/>
			<point x="63" y="678" type="line"/>
			<point x="63" y="401" type="line"/>
			<point x="176" y="401" type="line"/>
		</contour>
	</outline>
</glyph>
<glyph name="parenleft" format="2">
  <advance width="391"/>
  <unicode hex="0028"/>
  <outline>
    <contour>
      <point x="301" y="736" type="line"/>
      <point x="148" y="634"/>
      <point x="67" y="479"/>
      <point x="67" y="273" type="curve" smooth="yes"/>
      <point x="67" y="65"/>
      <point x="148" y="-89"/>
      <point x="301" y="-191" type="curve"/>
      <point x="381" y="-113" type="line"/>
      <point x="268" y="-11"/>
      <point x="220" y="103"/>
      <point x="220" y="273" type="curve" smooth="yes"/>
      <point x="220" y="442"/>
      <point x="268" y="556"/>
      <point x="381" y="658" type="curve"/>
    </contour>
  </outline>
</glyph>
<glyph name="asterisk" format="2">
	<unicode hex="002A"/>
	<advance width="588"/>
	<outline>
		<contour>
			<point x="322" y="502" type="line"/>
			<point x="294" y="481" type="line"/>
			<point x="266" y="460" type="line"/>
			<point x="313" y="357" type="line"/>
			<point x="391" y="244" type="line"/>
			<point x="489" y="315" type="line"/>
			<point x="406" y="424" type="line"/>
		</contour>
		<contour>
			<point x="266" y="502" type="line"/>
			<point x="182" y="424" type="line"/>
			<point x="99" y="315" type="line"/>
			<point x="196" y="244" type="line"/>
			<point x="274" y="357" type="line"/>
			<point x="322" y="460" type="line"/>
			<point x="294" y="481" type="line"/>
		</contour>
		<contour>
			<point x="76" y="615" type="line"/>
			<point x="39" y="500" type="line"/>
			<point x="169" y="461" type="line"/>
			<point x="283" y="448" type="line"/>
			<point x="294" y="481" type="line"/>
			<point x="305" y="514" type="line"/>
			<point x="205" y="570" type="line"/>
		</contour>
		<contour>
			<point x="354" y="730" type="line"/>
			<point x="233" y="730" type="line"/>
			<point x="237" y="593" type="line"/>
			<point x="259" y="481" type="line"/>
			<point x="294" y="481" type="line"/>
			<point x="329" y="481" type="line"/>
			<point x="351" y="593" type="line"/>
		</contour>
		<contour>
			<point x="513" y="615" type="line"/>
			<point x="383" y="570" type="line"/>
			<point x="283" y="514" type="line"/>
			<point x="294" y="481" type="line"/>
			<point x="305" y="448" type="line"/>
			<point x="418" y="461" type="line"/>
			<point x="550" y="500" type="line"/>
		</contour>
	</outline>
</glyph>
<glyph name="plus" format="2">
	<advance width="604"/>
	<unicode hex="002B"/>
	<outline>
		<contour>
			<point x="370" y="589" type="line"/>
			<point x="235" y="589" type="line"/>
			<point x="235" y="60" type="line"/>
			<point x="370" y="60" type="line"/>
		</contour>
		<contour>
			<point x="553" y="386" type="line"/>
			<point x="51" y="386" type="line"/>
			<point x="51" y="264" type="line"/>
			<point x="553" y="264" type="line"/>
		</contour>
	</outline>
</glyph>
<glyph name="comma" format="2">
  <advance width="290"/>
  <unicode hex="002C"/>
  <outline>
    <contour>
      <point x="142" y="172" type="curve" smooth="yes"/>
      <point x="90" y="172"/>
      <point x="42" y="139"/>
      <point x="42" y="76" type="curve" smooth="yes"/>
      <point x="42" y="20"/>
      <point x="86" y="-6"/>
      <point x="122" y="-6" type="curve" smooth="yes"/>
      <point x="140" y="-6"/>
      <point x="148" y="-3"/>
      <point x="156" y="2" type="curve"/>
      <point x="161" y="-1" type="line"/>
      <point x="143" y="-43"/>
      <point x="97" y="-84"/>
      <point x="42" y="-107" type="curve"/>
      <point x="111" y="-158" type="line"/>
      <point x="185" y="-126"/>
      <point x="250" y="-42"/>
      <point x="250" y="49" type="curve" smooth="yes"/>
      <point x="250" y="115"/>
      <point x="215" y="172"/>
    </contour>
  </outline>
</glyph>
<glyph name="period" format="2">
	<unicode hex="002E"/>
	<advance width="290"/>
	<outline>
		<contour>
			<point x="145" y="-9" type="curve" smooth="yes"/>
			<point x="207" y="-9"/>
			<point x="245" y="25"/>
			<point x="245" y="81" type="curve" smooth="yes"/>
			<point x="245" y="138"/>
			<point x="207" y="172"/>
			<point x="145" y="172" type="curve" smooth="yes"/>
			<point x="83" y="172"/>
			<point x="45" y="138"/>
			<point x="45" y="81" type="curve" smooth="yes"/>
			<point x="45" y="25"/>
			<point x="83" y="-9"/>
		</contour>
	</outline>
	<anchor name="_center" x="45" y="81"/>
</glyph>
<glyph name="zero" format="2">
	<unicode hex="0030"/>
	<advance width="632"/>
	<outline>
		<contour>
			<point x="316" y="-10" type="curve" smooth="yes"/>
			<point x="492" y="-10"/>
			<point x="584" y="105"/>
			<point x="584" y="330" type="curve" smooth="yes"/>
			<point x="584" y="555"/>
			<point x="492" y="670"/>
			<point x="316" y="670" type="curve" smooth="yes"/>
			<point x="140" y="670"/>
			<point x="48" y="555"/>
			<point x="48" y="330" type="curve" smooth="yes"/>
			<point x="48" y="105"/>
			<point x="140" y="-10"/>
		</contour>
		<contour>
			<point x="316" y="124" type="curve" smooth="yes"/>
			<point x="247" y="124"/>
			<point x="218" y="182"/>
			<point x="218" y="330" type="curve" smooth="yes"/>
			<point x="218" y="478"/>
			<point x="247" y="536"/>
			<point x="316" y="536" type="curve" smooth="yes"/>
			<point x="385" y="536"/>
			<point x="414" y="478"/>
			<point x="414" y="330" type="curve" smooth="yes"/>
			<point x="414" y="182"/>
			<point x="385" y="124"/>
		</contour>
	</outline>
</glyph>
<glyph name="one" format="2">
  <advance width="419"/>
  <unicode hex="0031"/>
  <outline>
    <contour>
      <point x="179" y="0" type="line"/>
      <point x="345" y="0" type="line"/>
      <point x="345" y="660" type="line"/>
      <point x="208" y="660" type="line"/>
      <point x="179" y="611"/>
      <point x="83" y="557"/>
      <point x="19" y="549" type="curve"/>
      <point x="34" y="407" type="line"/>
      <point x="88" y="418"/>
      <point x="138" y="449"/>
      <point x="180" y="490" type="curve"/>
      <point x="180" y="452"/>
      <point x="179" y="415"/>
      <point x="179" y="380" type="curve" smooth="yes"/>
    </contour>
  </outline>
</glyph>
<glyph name="two" format="2">
	<unicode hex="0032"/>
	<advance width="584"/>
	<outline>
		<contour>
			<point x="60" y="0" type="line"/>
			<point x="543" y="0" type="line"/>
			<point x="543" y="131" type="line"/>
			<point x="398" y="131" type="line" smooth="yes"/>
			<point x="357" y="131"/>
			<point x="299" y="129"/>
			<point x="266" y="127" type="curve"/>
			<point x="266" y="128" type="line"/>
			<point x="438" y="231"/>
			<point x="536" y="330"/>
			<point x="536" y="458" type="curve" smooth="yes"/>
			<point x="536" y="561"/>
			<point x="464" y="670"/>
			<point x="292" y="670" type="curve" smooth="yes"/>
			<point x="152" y="670"/>
			<point x="42" y="595"/>
			<point x="39" y="445" type="curve"/>
			<point x="186" y="400" type="line"/>
			<point x="188" y="488"/>
			<point x="222" y="535"/>
			<point x="281" y="535" type="curve" smooth="yes"/>
			<point x="337" y="535"/>
			<point x="365" y="496"/>
			<point x="365" y="446" type="curve" smooth="yes"/>
			<point x="365" y="353"/>
			<point x="278" y="251"/>
			<point x="60" y="110" type="curve"/>
		</contour>
	</outline>
</glyph>
<glyph name="three" format="2">
	<unicode hex="0033"/>
	<advance width="581"/>
	<outline>
		<contour>
			<point x="295" y="-10" type="curve" smooth="yes"/>
			<point x="432" y="-10"/>
			<point x="537" y="67"/>
			<point x="537" y="191" type="curve" smooth="yes"/>
			<point x="537" y="298"/>
			<point x="447" y="329"/>
			<point x="404" y="330" type="curve"/>
			<point x="404" y="333" type="line"/>
			<point x="438" y="337"/>
			<point x="524" y="374"/>
			<point x="524" y="489" type="curve" smooth="yes"/>
			<point x="524" y="599"/>
			<point x="443" y="670"/>
			<point x="296" y="670" type="curve" smooth="yes"/>
			<point x="167" y="670"/>
			<point x="64" y="608"/>
			<point x="43" y="499" type="curve"/>
			<point x="194" y="447" type="line"/>
			<point x="203" y="511"/>
			<point x="235" y="537"/>
			<point x="285" y="537" type="curve" smooth="yes"/>
			<point x="330" y="537"/>
			<point x="358" y="511"/>
			<point x="358" y="463" type="curve" smooth="yes"/>
			<point x="358" y="407"/>
			<point x="333" y="382"/>
			<point x="274" y="382" type="curve" smooth="yes"/>
			<point x="261" y="382"/>
			<point x="250" y="383"/>
			<point x="241" y="384" type="curve"/>
			<point x="241" y="272" type="line"/>
			<point x="258" y="274"/>
			<point x="271" y="275"/>
			<point x="288" y="275" type="curve" smooth="yes"/>
			<point x="339" y="275"/>
			<point x="371" y="254"/>
			<point x="371" y="203" type="curve" smooth="yes"/>
			<point x="371" y="153"/>
			<point x="338" y="123"/>
			<point x="288" y="123" type="curve" smooth="yes"/>
			<point x="230" y="123"/>
			<point x="192" y="150"/>
			<point x="185" y="221" type="curve"/>
			<point x="27" y="153" type="line"/>
			<point x="63" y="47"/>
			<point x="158" y="-10"/>
		</contour>
	</outline>
</glyph>
<glyph name="four" format="2">
	<unicode hex="0034"/>
	<advance width="634"/>
	<outline>
		<contour>
			<point x="357" y="0" type="line"/>
			<point x="508" y="0" type="line"/>
			<point x="508" y="145" type="line"/>
			<point x="606" y="145" type="line"/>
			<point x="606" y="263" type="line"/>
			<point x="508" y="263" type="line"/>
			<point x="508" y="660" type="line"/>
			<point x="308" y="660" type="line"/>
			<point x="102" y="345" type="line"/>
			<point x="58" y="279"/>
			<point x="54" y="270"/>
			<point x="43" y="253" type="curve"/>
			<point x="43" y="145" type="line"/>
			<point x="357" y="145" type="line"/>
		</contour>
		<contour>
			<point x="181" y="263" type="line"/>
			<point x="196" y="286"/>
			<point x="196" y="284"/>
			<point x="202" y="293" type="curve"/>
			<point x="312" y="464" type="line" smooth="yes"/>
			<point x="331" y="494"/>
			<point x="344" y="518"/>
			<point x="360" y="548" type="curve"/>
			<point x="362" y="548" type="line"/>
			<point x="362" y="546"/>
			<point x="359" y="492"/>
			<point x="359" y="463" type="curve" smooth="yes"/>
			<point x="359" y="263" type="line"/>
		</contour>
	</outline>
</glyph>
<glyph name="five" format="2">
  <advance width="571"/>
  <unicode hex="0035"/>
  <outline>
    <contour>
      <point x="280" y="-10" type="curve" smooth="yes"/>
      <point x="415" y="-10"/>
      <point x="533" y="64"/>
      <point x="533" y="226" type="curve" smooth="yes"/>
      <point x="533" y="342"/>
      <point x="458" y="426"/>
      <point x="332" y="426" type="curve" smooth="yes"/>
      <point x="277" y="426"/>
      <point x="227" y="409"/>
      <point x="201" y="379" type="curve"/>
      <point x="200" y="379" type="line"/>
      <point x="203" y="395" type="line"/>
      <point x="219" y="527" type="line"/>
      <point x="501" y="527" type="line"/>
      <point x="501" y="660" type="line"/>
      <point x="95" y="660" type="line"/>
      <point x="54" y="292" type="line"/>
      <point x="183" y="268" type="line"/>
      <point x="206" y="294"/>
      <point x="241" y="307"/>
      <point x="284" y="307" type="curve" smooth="yes"/>
      <point x="345" y="307"/>
      <point x="378" y="275"/>
      <point x="378" y="216" type="curve" smooth="yes"/>
      <point x="378" y="153"/>
      <point x="342" y="120"/>
      <point x="284" y="120" type="curve" smooth="yes"/>
      <point x="223" y="120"/>
      <point x="195" y="155"/>
      <point x="181" y="208" type="curve"/>
      <point x="30" y="133" type="line"/>
      <point x="86" y="32"/>
      <point x="169" y="-10"/>
    </contour>
  </outline>
</glyph>
<glyph name="six" format="2">
	<unicode hex="0036"/>
	<advance width="604"/>
	<outline>
		<contour>
			<point x="335" y="670" type="curve" smooth="yes"/>
			<point x="174" y="670"/>
			<point x="48" y="558"/>
			<point x="48" y="324" type="curve" smooth="yes"/>
			<point x="48" y="105"/>
			<point x="161" y="-10"/>
			<point x="327" y="-10" type="curve" smooth="yes"/>
			<point x="473" y="-10"/>
			<point x="569" y="75"/>
			<point x="569" y="211" type="curve" smooth="yes"/>
			<point x="569" y="336"/>
			<point x="481" y="411"/>
			<point x="363" y="411" type="curve" smooth="yes"/>
			<point x="301" y="411"/>
			<point x="229" y="378"/>
			<point x="207" y="318" type="curve"/>
			<point x="205" y="324" type="line"/>
			<point x="205" y="332"/>
			<point x="205" y="335"/>
			<point x="205" y="340" type="curve" smooth="yes"/>
			<point x="205" y="460"/>
			<point x="252" y="534"/>
			<point x="324" y="534" type="curve" smooth="yes"/>
			<point x="378" y="534"/>
			<point x="406" y="505"/>
			<point x="420" y="458" type="curve"/>
			<point x="559" y="524" type="line"/>
			<point x="524" y="631"/>
			<point x="439" y="670"/>
		</contour>
		<contour>
			<point x="324" y="295" type="curve" smooth="yes"/>
			<point x="380" y="295"/>
			<point x="412" y="263"/>
			<point x="412" y="207" type="curve" smooth="yes"/>
			<point x="412" y="151"/>
			<point x="380" y="119"/>
			<point x="324" y="119" type="curve" smooth="yes"/>
			<point x="275" y="119"/>
			<point x="235" y="155"/>
			<point x="235" y="207" type="curve" smooth="yes"/>
			<point x="235" y="261"/>
			<point x="274" y="295"/>
		</contour>
	</outline>
</glyph>
<glyph name="seven" format="2">
	<unicode hex="0037"/>
	<advance width="596"/>
	<outline>
		<contour>
			<point x="33" y="660" type="line"/>
			<point x="33" y="525" type="line"/>
			<point x="479" y="525" type="line"/>
			<point x="443" y="570" type="line"/>
			<point x="262" y="402"/>
			<point x="185" y="220"/>
			<point x="185" y="0" type="curve"/>
			<point x="355" y="0" type="line"/>
			<point x="355" y="201"/>
			<point x="403" y="378"/>
			<point x="564" y="538" type="curve"/>
			<point x="564" y="660" type="line"/>
		</contour>
	</outline>
</glyph>
<glyph name="eight" format="2">
  <advance width="615"/>
  <unicode hex="0038"/>
  <outline>
    <contour>
      <point x="307" y="668" type="curve" smooth="yes"/>
      <point x="163" y="668"/>
      <point x="66" y="599"/>
      <point x="66" y="487" type="curve" smooth="yes"/>
      <point x="66" y="416"/>
      <point x="101" y="363"/>
      <point x="167" y="338" type="curve"/>
      <point x="167" y="337" type="line"/>
      <point x="89" y="311"/>
      <point x="45" y="259"/>
      <point x="45" y="180" type="curve" smooth="yes"/>
      <point x="45" y="65"/>
      <point x="145" y="-10"/>
      <point x="307" y="-10" type="curve" smooth="yes"/>
      <point x="471" y="-10"/>
      <point x="570" y="65"/>
      <point x="570" y="180" type="curve" smooth="yes"/>
      <point x="570" y="259"/>
      <point x="525" y="311"/>
      <point x="448" y="337" type="curve"/>
      <point x="448" y="338" type="line"/>
      <point x="514" y="364"/>
      <point x="548" y="417"/>
      <point x="548" y="487" type="curve" smooth="yes"/>
      <point x="548" y="599"/>
      <point x="452" y="668"/>
    </contour>
    <contour>
      <point x="307" y="543" type="curve" smooth="yes"/>
      <point x="358" y="543"/>
      <point x="390" y="515"/>
      <point x="390" y="467" type="curve" smooth="yes"/>
      <point x="390" y="420"/>
      <point x="358" y="391"/>
      <point x="307" y="391" type="curve" smooth="yes"/>
      <point x="257" y="391"/>
      <point x="225" y="420"/>
      <point x="225" y="467" type="curve" smooth="yes"/>
      <point x="225" y="515"/>
      <point x="256" y="543"/>
    </contour>
    <contour>
      <point x="307" y="115" type="curve" smooth="yes"/>
      <point x="248" y="115"/>
      <point x="212" y="146"/>
      <point x="212" y="197" type="curve" smooth="yes"/>
      <point x="212" y="249"/>
      <point x="249" y="279"/>
      <point x="307" y="279" type="curve" smooth="yes"/>
      <point x="366" y="279"/>
      <point x="403" y="249"/>
      <point x="403" y="197" type="curve" smooth="yes"/>
      <point x="403" y="146"/>
      <point x="367" y="115"/>
    </contour>
  </outline>
</glyph>
<glyph name="nine" format="2">
	<unicode hex="0039"/>
	<advance width="605"/>
	<outline>
		<contour>
			<point x="287" y="670" type="curve" smooth="yes"/>
			<point x="139" y="670"/>
			<point x="41" y="583"/>
			<point x="41" y="442" type="curve" smooth="yes"/>
			<point x="41" y="317"/>
			<point x="127" y="236"/>
			<point x="248" y="236" type="curve" smooth="yes"/>
			<point x="312" y="236"/>
			<point x="379" y="263"/>
			<point x="401" y="323" type="curve"/>
			<point x="404" y="323" type="line"/>
			<point x="404" y="317"/>
			<point x="404" y="312"/>
			<point x="404" y="307" type="curve" smooth="yes"/>
			<point x="404" y="187"/>
			<point x="369" y="120"/>
			<point x="290" y="120" type="curve" smooth="yes"/>
			<point x="241" y="120"/>
			<point x="213" y="149"/>
			<point x="203" y="195" type="curve"/>
			<point x="49" y="134" type="line"/>
			<point x="89" y="34"/>
			<point x="176" y="-10"/>
			<point x="287" y="-10" type="curve" smooth="yes"/>
			<point x="444" y="-10"/>
			<point x="557" y="93"/>
			<point x="557" y="332" type="curve" smooth="yes"/>
			<point x="557" y="552"/>
			<point x="464" y="670"/>
		</contour>
		<contour>
			<point x="287" y="538" type="curve" smooth="yes"/>
			<point x="338" y="538"/>
			<point x="376" y="504"/>
			<point x="376" y="449" type="curve" smooth="yes"/>
			<point x="376" y="395"/>
			<point x="338" y="361"/>
			<point x="287" y="361" type="curve" smooth="yes"/>
			<point x="235" y="361"/>
			<point x="199" y="393"/>
			<point x="199" y="446" type="curve" smooth="yes"/>
			<point x="199" y="504"/>
			<point x="233" y="538"/>
		</contour>
	</outline>
</glyph>
<glyph name="colon" format="2">
	<advance width="302"/>
	<unicode hex="003A"/>
	<anchor x="51" y="419" name="_center"/>
	<outline>
		<contour>
			<point x="151" y="329" type="curve" smooth="yes"/>
			<point x="213" y="329"/>
			<point x="251" y="363"/>
			<point x="251" y="419" type="curve" smooth="yes"/>
			<point x="251" y="476"/>
			<point x="213" y="510"/>
			<point x="151" y="510" type="curve" smooth="yes"/>
			<point x="89" y="510"/>
			<point x="51" y="476"/>
			<point x="51" y="419" type="curve" smooth="yes"/>
			<point x="51" y="363"/>
			<point x="89" y="329"/>
		</contour>
		<contour>
			<point x="151" y="-9" type="curve" smooth="yes"/>
			<point x="213" y="-9"/>
			<point x="251" y="25"/>
			<point x="251" y="81" type="curve" smooth="yes"/>
			<point x="251" y="138"/>
			<point x="213" y="172"/>
			<point x="151" y="172" type="curve" smooth="yes"/>
			<point x="89" y="172"/>
			<point x="51" y="138"/>
			<point x="51" y="81" type="curve" smooth="yes"/>
			<point x="51" y="25"/>
			<point x="89" y="-9"/>
		</contour>
	</outline>
</glyph>
<glyph name="semicolon" format="2">
	<advance width="302"/>
	<unicode hex="003B"/>
	<outline>
		<contour>
			<point x="148" y="172" type="curve" smooth="yes"/>
			<point x="96" y="172"/>
			<point x="48" y="139"/>
			<point x="48" y="76" type="curve" smooth="yes"/>
			<point x="48" y="20"/>
			<point x="92" y="-6"/>
			<point x="128" y="-6" type="curve" smooth="yes"/>
			<point x="146" y="-6"/>
			<point x="154" y="-3"/>
			<point x="162" y="2" type="curve"/>
			<point x="167" y="-1" type="line"/>
			<point x="149" y="-43"/>
			<point x="103" y="-84"/>
			<point x="48" y="-107" type="curve"/>
			<point x="117" y="-158" type="line"/>
			<point x="191" y="-126"/>
			<point x="256" y="-42"/>
			<point x="256" y="49" type="curve" smooth="yes"/>
			<point x="256" y="115"/>
			<point x="221" y="172"/>
		</contour>
		<contour>
			<point x="151" y="329" type="curve" smooth="yes"/>
			<point x="213" y="329"/>
			<point x="251" y="363"/>
			<point x="251" y="419" type="curve" smooth="yes"/>
			<point x="251" y="476"/>
			<point x="213" y="510"/>
			<point x="151" y="510" type="curve" smooth="yes"/>
			<point x="89" y="510"/>
			<point x="51" y="476"/>
			<point x="51" y="419" type="curve" smooth="yes"/>
			<point x="51" y="363"/>
			<point x="89" y="329"/>
		</contour>
	</outline>
</glyph>
<glyph name="less" format="2">
  <advance width="604"/>
  <unicode hex="003C"/>
  <outline>
    <contour>
      <point x="553" y="5" type="line"/>
      <point x="553" y="167" type="line"/>
      <point x="195" y="297" type="line"/>
      <point x="553" y="427" type="line"/>
      <point x="553" y="588" type="line"/>
      <point x="63" y="370" type="line"/>
      <point x="63" y="223" type="line"/>
    </contour>
  </outline>
</glyph>
<glyph name="equal" format="2">
	<unicode hex="003D"/>
	<advance width="604"/>
	<outline>
		<contour>
			<point x="539" y="483" type="line"/>
			<point x="65" y="483" type="line"/>
			<point x="65" y="366" type="line"/>
			<point x="539" y="366" type="line"/>
		</contour>
		<contour>
			<point x="539" y="267" type="line"/>
			<point x="65" y="267" type="line"/>
			<point x="65" y="150" type="line"/>
			<point x="539" y="150" type="line"/>
		</contour>
	</outline>
</glyph>
<glyph name="question" format="2">
  <advance width="595"/>
  <unicode hex="003F"/>
  <anchor x="192.65" y="76.14" name="_center"/>
  <outline>
    <contour>
      <point x="209" y="214" type="line"/>
      <point x="359" y="214" type="line"/>
      <point x="369" y="300" type="line"/>
      <point x="469" y="311"/>
      <point x="553" y="360"/>
      <point x="553" y="484" type="curve" smooth="yes"/>
      <point x="553" y="608"/>
      <point x="446" y="670"/>
      <point x="302" y="670" type="curve" smooth="yes"/>
      <point x="134" y="670"/>
      <point x="55" y="590"/>
      <point x="32" y="488" type="curve"/>
      <point x="196" y="431" type="line"/>
      <point x="205" y="497"/>
      <point x="236" y="532"/>
      <point x="290" y="532" type="curve" smooth="yes"/>
      <point x="344" y="532"/>
      <point x="370" y="507"/>
      <point x="370" y="461" type="curve" smooth="yes"/>
      <point x="370" y="408"/>
      <point x="330" y="377"/>
      <point x="210" y="366" type="curve"/>
    </contour>
    <contour>
      <point x="289.65" y="-8.46" type="curve" smooth="yes"/>
      <point x="349.79" y="-8.46"/>
      <point x="386.65" y="23.5"/>
      <point x="386.65" y="76.14" type="curve" smooth="yes"/>
      <point x="386.65" y="129.72"/>
      <point x="349.79" y="161.68"/>
      <point x="289.65" y="161.68" type="curve" smooth="yes"/>
      <point x="229.51" y="161.68"/>
      <point x="192.65" y="129.72"/>
      <point x="192.65" y="76.14" type="curve" smooth="yes"/>
      <point x="192.65" y="23.5"/>
      <point x="229.51" y="-8.46"/>
    </contour>
  </outline>
</glyph>
<glyph name="at" format="2">
  <advance width="919"/>
  <unicode hex="0040"/>
  <outline>
    <contour>
      <point x="460" y="-185" type="curve" smooth="yes"/>
      <point x="575" y="-185"/>
      <point x="639" y="-154"/>
      <point x="696" y="-116" type="curve"/>
      <point x="659" y="-54" type="line"/>
      <point x="614" y="-84"/>
      <point x="559" y="-111"/>
      <point x="467" y="-111" type="curve" smooth="yes"/>
      <point x="282" y="-111"/>
      <point x="128" y="3"/>
      <point x="128" y="229" type="curve" smooth="yes"/>
      <point x="128" y="449"/>
      <point x="272" y="591"/>
      <point x="483" y="591" type="curve" smooth="yes"/>
      <point x="668" y="591"/>
      <point x="798" y="471"/>
      <point x="798" y="275" type="curve" smooth="yes"/>
      <point x="798" y="138"/>
      <point x="749" y="79"/>
      <point x="698" y="79" type="curve" smooth="yes"/>
      <point x="671" y="79"/>
      <point x="652" y="92"/>
      <point x="652" y="128" type="curve" smooth="yes"/>
      <point x="652" y="140"/>
      <point x="655" y="153"/>
      <point x="659" y="171" type="curve" smooth="yes"/>
      <point x="722" y="456" type="line"/>
      <point x="577" y="456" type="line"/>
      <point x="555" y="364" type="line"/>
      <point x="541" y="436"/>
      <point x="486" y="465"/>
      <point x="430" y="465" type="curve" smooth="yes"/>
      <point x="299" y="465"/>
      <point x="217" y="334"/>
      <point x="217" y="198" type="curve" smooth="yes"/>
      <point x="217" y="80"/>
      <point x="280" y="8"/>
      <point x="366" y="8" type="curve" smooth="yes"/>
      <point x="432" y="8"/>
      <point x="490" y="49"/>
      <point x="519" y="117" type="curve"/>
      <point x="515" y="44"/>
      <point x="565" y="-7"/>
      <point x="656" y="-7" type="curve" smooth="yes"/>
      <point x="753" y="-7"/>
      <point x="874" y="72"/>
      <point x="874" y="281" type="curve" smooth="yes"/>
      <point x="874" y="509"/>
      <point x="714" y="665"/>
      <point x="482" y="665" type="curve" smooth="yes"/>
      <point x="228" y="665"/>
      <point x="41" y="486"/>
      <point x="41" y="229" type="curve" smooth="yes"/>
      <point x="41" y="-36"/>
      <point x="218" y="-185"/>
    </contour>
    <contour>
      <point x="433" y="117" type="curve" smooth="yes"/>
      <point x="386" y="117"/>
      <point x="362" y="149"/>
      <point x="362" y="202" type="curve" smooth="yes"/>
      <point x="362" y="269"/>
      <point x="400" y="355"/>
      <point x="464" y="355" type="curve" smooth="yes"/>
      <point x="505" y="355"/>
      <point x="529" y="325"/>
      <point x="529" y="276" type="curve" smooth="yes"/>
      <point x="529" y="202"/>
      <point x="491" y="117"/>
    </contour>
  </outline>
</glyph>
<glyph name="A" format="2">
  <advance width="665"/>
  <unicode hex="0041"/>
  <anchor x="332" y="0" name="bottom"/>
  <anchor x="661" y="0" name="ogonek"/>
  <anchor x="332" y="660" name="top"/>
  <anchor x="333" y="540" name="top_ring"/>
  <outline>
    <contour>
      <point x="661" y="0" type="line"/>
      <point x="436" y="660" type="line"/>
      <point x="230" y="660" type="line"/>
      <point x="4" y="0" type="line"/>
      <point x="177" y="0" type="line"/>
      <point x="222" y="149" type="line"/>
      <point x="440" y="149" type="line"/>
      <point x="484" y="0" type="line"/>
    </contour>
    <contour>
      <point x="254" y="266" type="line"/>
      <point x="331" y="533" type="line"/>
      <point x="408" y="266" type="line"/>
    </contour>
  </outline>
</glyph>
<glyph name="B" format="2">
	<advance width="672"/>
	<unicode hex="0042"/>
	<anchor x="384" y="0" name="ogonek"/>
	<anchor x="314" y="0" name="bottom"/>
	<anchor x="314" y="660" name="top"/>
	<outline>
		<contour>
			<point x="73" y="0" type="line"/>
			<point x="404" y="0" type="line" smooth="yes"/>
			<point x="558" y="0"/>
			<point x="637" y="64"/>
			<point x="637" y="178" type="curve" smooth="yes"/>
			<point x="637" y="257"/>
			<point x="589" y="319"/>
			<point x="490" y="333" type="curve"/>
			<point x="490" y="334" type="line"/>
			<point x="578" y="348"/>
			<point x="621" y="408"/>
			<point x="621" y="482" type="curve" smooth="yes"/>
			<point x="621" y="597"/>
			<point x="547" y="660"/>
			<point x="388" y="660" type="curve" smooth="yes"/>
			<point x="73" y="660" type="line"/>
		</contour>
		<contour>
			<point x="239" y="121" type="line"/>
			<point x="239" y="267" type="line"/>
			<point x="374" y="267" type="line" smooth="yes"/>
			<point x="432" y="267"/>
			<point x="461" y="241"/>
			<point x="461" y="195" type="curve" smooth="yes"/>
			<point x="461" y="147"/>
			<point x="432" y="121"/>
			<point x="374" y="121" type="curve" smooth="yes"/>
		</contour>
		<contour>
			<point x="239" y="390" type="line"/>
			<point x="239" y="534" type="line"/>
			<point x="358" y="534" type="line" smooth="yes"/>
			<point x="415" y="534"/>
			<point x="445" y="510"/>
			<point x="445" y="462" type="curve" smooth="yes"/>
			<point x="445" y="415"/>
			<point x="415" y="390"/>
			<point x="358" y="390" type="curve" smooth="yes"/>
		</contour>
	</outline>
</glyph>
<glyph name="C" format="2">
  <advance width="669"/>
  <unicode hex="0043"/>
  <anchor x="352" y="0" name="bottom"/>
  <anchor x="453" y="0" name="ogonek"/>
  <anchor x="356" y="660" name="top"/>
  <outline>
    <contour>
      <point x="646" y="189" type="curve"/>
      <point x="490" y="233" type="line"/>
      <point x="475" y="159"/>
      <point x="429" y="125"/>
      <point x="369" y="125" type="curve" smooth="yes"/>
      <point x="270" y="125"/>
      <point x="221" y="196"/>
      <point x="221" y="330" type="curve" smooth="yes"/>
      <point x="221" y="465"/>
      <point x="276" y="535"/>
      <point x="368" y="535" type="curve" smooth="yes"/>
      <point x="428" y="535"/>
      <point x="469" y="509"/>
      <point x="487" y="427" type="curve"/>
      <point x="638" y="488" type="line"/>
      <point x="606" y="613"/>
      <point x="496" y="670"/>
      <point x="362" y="670" type="curve" smooth="yes"/>
      <point x="167" y="670"/>
      <point x="45" y="543"/>
      <point x="45" y="330" type="curve" smooth="yes"/>
      <point x="45" y="117"/>
      <point x="166" y="-10"/>
      <point x="363" y="-10" type="curve" smooth="yes"/>
      <point x="499" y="-10"/>
      <point x="608" y="51"/>
    </contour>
  </outline>
</glyph>
<glyph name="D" format="2">
	<advance width="706"/>
	<unicode hex="0044"/>
	<anchor x="147" y="140" name="center"/>
	<anchor x="353" y="0" name="ogonek"/>
	<anchor x="340" y="660" name="top"/>
	<anchor x="332" y="0" name="bottom"/>
	<outline>
		<contour>
			<point x="349" y="660" type="curve" smooth="yes"/>
			<point x="73" y="660" type="line"/>
			<point x="73" y="0" type="line"/>
			<point x="349" y="0" type="line" smooth="yes"/>
			<point x="550" y="0"/>
			<point x="661" y="119"/>
			<point x="661" y="330" type="curve" smooth="yes"/>
			<point x="661" y="541"/>
			<point x="550" y="660"/>
		</contour>
		<contour>
			<point x="332" y="130" type="curve" smooth="yes"/>
			<point x="245" y="130" type="line"/>
			<point x="245" y="530" type="line"/>
			<point x="332" y="530" type="line" smooth="yes"/>
			<point x="425" y="530"/>
			<point x="485" y="479"/>
			<point x="485" y="330" type="curve" smooth="yes"/>
			<point x="485" y="182"/>
			<point x="426" y="130"/>
		</contour>
	</outline>
</glyph>
<glyph name="E" format="2">
	<advance width="619"/>
	<unicode hex="0045"/>
	<anchor x="589" y="0" name="ogonek"/>
	<anchor x="337" y="0" name="bottom"/>
	<anchor x="324" y="660" name="top"/>
	<outline>
		<contour>
			<point x="73" y="0" type="line"/>
			<point x="588" y="0" type="line"/>
			<point x="588" y="133" type="line"/>
			<point x="245" y="133" type="line"/>
			<point x="245" y="268" type="line"/>
			<point x="508" y="268" type="line"/>
			<point x="508" y="393" type="line"/>
			<point x="245" y="393" type="line"/>
			<point x="245" y="527" type="line"/>
			<point x="575" y="527" type="line"/>
			<point x="575" y="660" type="line"/>
			<point x="73" y="660" type="line"/>
		</contour>
	</outline>
</glyph>
<glyph name="F" format="2">
  <advance width="600"/>
  <unicode hex="0046"/>
  <anchor x="159" y="0" name="bottom"/>
  <anchor x="245" y="0" name="ogonek"/>
  <anchor x="312" y="660" name="top"/>
  <outline>
    <contour>
      <point x="574" y="527" type="line"/>
      <point x="574" y="660" type="line"/>
      <point x="73" y="660" type="line"/>
      <point x="73" y="0" type="line"/>
      <point x="245" y="0" type="line"/>
      <point x="245" y="254" type="line"/>
      <point x="508" y="254" type="line"/>
      <point x="508" y="387" type="line"/>
      <point x="245" y="387" type="line"/>
      <point x="245" y="527" type="line"/>
    </contour>
  </outline>
</glyph>
<glyph name="G" format="2">
	<advance width="711"/>
	<unicode hex="0047"/>
	<anchor x="414" y="0" name="ogonek"/>
	<anchor x="382" y="0" name="bottom"/>
	<anchor x="362" y="660" name="top"/>
	<outline>
		<contour>
			<point x="339" y="-10" type="curve" smooth="yes"/>
			<point x="452" y="-10"/>
			<point x="523" y="41"/>
			<point x="550" y="131" type="curve"/>
			<point x="522" y="155" type="line"/>
			<point x="535" y="0" type="line"/>
			<point x="652" y="0" type="line"/>
			<point x="652" y="356" type="line"/>
			<point x="361" y="356" type="line"/>
			<point x="361" y="241" type="line"/>
			<point x="506" y="241" type="line"/>
			<point x="506" y="231" type="line" smooth="yes"/>
			<point x="506" y="157"/>
			<point x="450" y="121"/>
			<point x="379" y="121" type="curve" smooth="yes"/>
			<point x="274" y="121"/>
			<point x="221" y="189"/>
			<point x="221" y="330" type="curve" smooth="yes"/>
			<point x="221" y="464"/>
			<point x="275" y="535"/>
			<point x="370" y="535" type="curve" smooth="yes"/>
			<point x="431" y="535"/>
			<point x="476" y="506"/>
			<point x="492" y="438" type="curve"/>
			<point x="651" y="501" type="line"/>
			<point x="601" y="618"/>
			<point x="516" y="670"/>
			<point x="369" y="670" type="curve" smooth="yes"/>
			<point x="170" y="670"/>
			<point x="45" y="542"/>
			<point x="45" y="329" type="curve" smooth="yes"/>
			<point x="45" y="110"/>
			<point x="167" y="-10"/>
		</contour>
	</outline>
</glyph>
<glyph name="H" format="2">
  <advance width="730"/>
  <unicode hex="0048"/>
  <anchor x="365" y="0" name="bottom"/>
  <anchor x="663" y="0" name="ogonek"/>
  <anchor x="365" y="660" name="top"/>
  <outline>
    <contour>
      <point x="657" y="660" type="line"/>
      <point x="485" y="660" type="line"/>
      <point x="485" y="0" type="line"/>
      <point x="657" y="0" type="line"/>
    </contour>
    <contour>
      <point x="245" y="660" type="line"/>
      <point x="73" y="660" type="line"/>
      <point x="73" y="0" type="line"/>
      <point x="245" y="0" type="line"/>
    </contour>
    <contour>
      <point x="577" y="399" type="line"/>
      <point x="157" y="399" type="line"/>
      <point x="157" y="266" type="line"/>
      <point x="577" y="266" type="line"/>
    </contour>
  </outline>
</glyph>
<glyph name="I" format="2">
	<advance width="318"/>
	<unicode hex="0049"/>
	<anchor x="245" y="0" name="ogonek"/>
	<anchor x="159" y="0" name="bottom"/>
	<anchor x="159" y="660" name="top"/>
	<outline>
		<contour>
			<point x="245" y="660" type="line"/>
			<point x="73" y="660" type="line"/>
			<point x="73" y="0" type="line"/>
			<point x="245" y="0" type="line"/>
		</contour>
	</outline>
</glyph>
<glyph name="J" format="2">
	<unicode hex="004A"/>
	<advance width="606"/>
	<outline>
		<contour>
			<point x="545" y="660" type="line"/>
			<point x="373" y="660" type="line"/>
			<point x="373" y="272" type="line" smooth="yes"/>
			<point x="373" y="182"/>
			<point x="354" y="125"/>
			<point x="282" y="125" type="curve" smooth="yes"/>
			<point x="213" y="125"/>
			<point x="188" y="170"/>
			<point x="203" y="291" type="curve"/>
			<point x="35" y="261" type="line"/>
			<point x="10" y="102"/>
			<point x="87" y="-10"/>
			<point x="275" y="-10" type="curve" smooth="yes"/>
			<point x="447" y="-10"/>
			<point x="545" y="87"/>
			<point x="545" y="254" type="curve" smooth="yes"/>
		</contour>
	</outline>
	<anchor name="bottom" x="290" y="0"/>
	<anchor name="ogonek" x="357" y="0"/>
	<anchor name="top" x="459" y="660"/>
</glyph>
<glyph name="K" format="2">
	<advance width="681"/>
	<unicode hex="004B"/>
	<anchor x="672" y="0" name="ogonek"/>
	<anchor x="357" y="0" name="bottom"/>
	<anchor x="351" y="660" name="top"/>
	<outline>
		<contour>
			<point x="660" y="660" type="line"/>
			<point x="470" y="660" type="line"/>
			<point x="161" y="263" type="line"/>
			<point x="194" y="124" type="line"/>
			<point x="347" y="315" type="line"/>
			<point x="357" y="289" type="line"/>
		</contour>
		<contour>
			<point x="245" y="660" type="line"/>
			<point x="73" y="660" type="line"/>
			<point x="73" y="0" type="line"/>
			<point x="245" y="0" type="line"/>
		</contour>
		<contour>
			<point x="414" y="442" type="line"/>
			<point x="285" y="346" type="line"/>
			<point x="477" y="0" type="line"/>
			<point x="672" y="0" type="line"/>
		</contour>
	</outline>
</glyph>
<glyph name="L" format="2">
  <advance width="590"/>
  <unicode hex="004C"/>
  <anchor x="329" y="0" name="bottom"/>
  <anchor x="379" y="376" name="center"/>
  <anchor x="564" y="0" name="ogonek"/>
  <anchor x="159" y="660" name="top"/>
  <anchor x="380" y="660" name="topright"/>
  <outline>
    <contour>
      <point x="245" y="133" type="line"/>
      <point x="245" y="660" type="line"/>
      <point x="73" y="660" type="line"/>
      <point x="73" y="0" type="line"/>
      <point x="564" y="0" type="line"/>
      <point x="564" y="133" type="line"/>
    </contour>
  </outline>
</glyph>
<glyph name="M" format="2">
  <advance width="898"/>
  <unicode hex="004D"/>
  <anchor x="449" y="0" name="bottom"/>
  <anchor x="825" y="0" name="ogonek"/>
  <anchor x="449" y="660" name="top"/>
  <outline>
    <contour>
      <point x="825" y="660" type="line"/>
      <point x="590" y="660" type="line"/>
      <point x="492" y="323" type="line"/>
      <point x="455" y="184" type="line"/>
      <point x="453" y="184" type="line"/>
      <point x="417" y="324" type="line"/>
      <point x="318" y="660" type="line"/>
      <point x="73" y="660" type="line"/>
      <point x="73" y="0" type="line"/>
      <point x="226" y="0" type="line"/>
      <point x="226" y="303" type="line"/>
      <point x="221" y="506" type="line"/>
      <point x="223" y="506" type="line"/>
      <point x="380" y="0" type="line"/>
      <point x="519" y="0" type="line"/>
      <point x="676" y="506" type="line"/>
      <point x="678" y="506" type="line"/>
      <point x="673" y="303" type="line"/>
      <point x="673" y="0" type="line"/>
      <point x="825" y="0" type="line"/>
    </contour>
  </outline>
</glyph>
<glyph name="N" format="2">
	<advance width="729"/>
	<unicode hex="004E"/>
	<anchor x="656" y="0" name="ogonek"/>
	<anchor x="377" y="0" name="bottom"/>
	<anchor x="366" y="660" name="top"/>
	<outline>
		<contour>
			<point x="656" y="660" type="line"/>
			<point x="504" y="660" type="line"/>
			<point x="504" y="327" type="line"/>
			<point x="508" y="205" type="line"/>
			<point x="507" y="205" type="line"/>
			<point x="458" y="303" type="line"/>
			<point x="264" y="660" type="line"/>
			<point x="73" y="660" type="line"/>
			<point x="73" y="0" type="line"/>
			<point x="225" y="0" type="line"/>
			<point x="225" y="333" type="line"/>
			<point x="221" y="455" type="line"/>
			<point x="222" y="455" type="line"/>
			<point x="271" y="357" type="line"/>
			<point x="465" y="0" type="line"/>
			<point x="656" y="0" type="line"/>
		</contour>
	</outline>
</glyph>
<glyph name="O" format="2">
	<unicode hex="004F"/>
	<advance width="725"/>
	<outline>
		<contour>
			<point x="363" y="670" type="curve" smooth="yes"/>
			<point x="166" y="670"/>
			<point x="45" y="543"/>
			<point x="45" y="330" type="curve" smooth="yes"/>
			<point x="45" y="117"/>
			<point x="166" y="-10"/>
			<point x="363" y="-10" type="curve" smooth="yes"/>
			<point x="560" y="-10"/>
			<point x="680" y="117"/>
			<point x="680" y="330" type="curve" smooth="yes"/>
			<point x="680" y="543"/>
			<point x="560" y="670"/>
		</contour>
		<contour>
			<point x="363" y="535" type="curve" smooth="yes"/>
			<point x="454" y="535"/>
			<point x="504" y="465"/>
			<point x="504" y="330" type="curve" smooth="yes"/>
			<point x="504" y="195"/>
			<point x="454" y="125"/>
			<point x="363" y="125" type="curve" smooth="yes"/>
			<point x="271" y="125"/>
			<point x="221" y="195"/>
			<point x="221" y="330" type="curve" smooth="yes"/>
			<point x="221" y="465"/>
			<point x="271" y="535"/>
		</contour>
	</outline>
	<anchor name="bottom" x="363" y="0"/>
	<anchor name="center" x="363" y="330"/>
	<anchor name="ogonek" x="480" y="8"/>
	<anchor name="top" x="363" y="660"/>
	<anchor name="topleft" x="21" y="660"/>
	<anchor name="topright" x="552" y="660"/>
</glyph>
<glyph name="P" format="2">
	<unicode hex="0050"/>
	<advance width="656"/>
	<outline>
		<contour>
			<point x="370" y="660" type="curve" smooth="yes"/>
			<point x="73" y="660" type="line"/>
			<point x="73" y="0" type="line"/>
			<point x="245" y="0" type="line"/>
			<point x="245" y="220" type="line"/>
			<point x="370" y="220" type="line" smooth="yes"/>
			<point x="526" y="220"/>
			<point x="619" y="300"/>
			<point x="619" y="440" type="curve" smooth="yes"/>
			<point x="619" y="579"/>
			<point x="526" y="660"/>
		</contour>
		<contour>
			<point x="343" y="349" type="curve" smooth="yes"/>
			<point x="245" y="349" type="line"/>
			<point x="245" y="531" type="line"/>
			<point x="343" y="531" type="line" smooth="yes"/>
			<point x="411" y="531"/>
			<point x="446" y="501"/>
			<point x="446" y="440" type="curve" smooth="yes"/>
			<point x="446" y="379"/>
			<point x="411" y="349"/>
		</contour>
	</outline>
	<anchor name="bottom" x="159" y="0"/>
	<anchor name="ogonek" x="245" y="0"/>
	<anchor name="top" x="323" y="660"/>
</glyph>
<glyph name="Q" format="2">
	<unicode hex="0051"/>
	<advance width="725"/>
	<outline>
		<contour>
			<point x="514" y="-203" type="curve" smooth="yes"/>
			<point x="565" y="-203"/>
			<point x="623" y="-189"/>
			<point x="657" y="-162" type="curve"/>
			<point x="632" y="-43" type="line"/>
			<point x="607" y="-64"/>
			<point x="569" y="-77"/>
			<point x="515" y="-77" type="curve" smooth="yes"/>
			<point x="451" y="-77"/>
			<point x="401" y="-57"/>
			<point x="401" y="22" type="curve" smooth="yes"/>
			<point x="401" y="40"/>
			<point x="407" y="66"/>
			<point x="421" y="95" type="curve"/>
			<point x="322" y="72" type="line"/>
			<point x="306" y="43"/>
			<point x="299" y="13"/>
			<point x="299" y="-13" type="curve" smooth="yes"/>
			<point x="299" y="-136"/>
			<point x="385" y="-203"/>
		</contour>
		<component base="O"/>
	</outline>
	<anchor name="bottom" x="355" y="-210"/>
	<anchor name="ogonek" x="550" y="-197"/>
	<anchor name="top" x="355" y="660"/>
	<anchor name="center" x="363" y="330"/>
	<anchor name="topleft" x="21" y="660"/>
	<anchor name="topright" x="552" y="660"/>
</glyph>
<glyph name="R" format="2">
	<unicode hex="0052"/>
	<advance width="677"/>
	<outline>
		<contour>
			<point x="382" y="660" type="curve" smooth="yes"/>
			<point x="73" y="660" type="line"/>
			<point x="73" y="0" type="line"/>
			<point x="242" y="0" type="line"/>
			<point x="242" y="241" type="line"/>
			<point x="367" y="241" type="line"/>
			<point x="383" y="250" type="line"/>
			<point x="537" y="250"/>
			<point x="626" y="322"/>
			<point x="626" y="457" type="curve" smooth="yes"/>
			<point x="626" y="581"/>
			<point x="536" y="660"/>
		</contour>
		<contour>
			<point x="358" y="363" type="curve" smooth="yes"/>
			<point x="242" y="363" type="line"/>
			<point x="242" y="530" type="line"/>
			<point x="358" y="530" type="line" smooth="yes"/>
			<point x="413" y="530"/>
			<point x="453" y="512"/>
			<point x="453" y="447" type="curve" smooth="yes"/>
			<point x="453" y="383"/>
			<point x="415" y="363"/>
		</contour>
		<contour>
			<point x="459" y="327" type="line"/>
			<point x="311" y="289" type="line"/>
			<point x="474" y="0" type="line"/>
			<point x="664" y="0" type="line"/>
		</contour>
	</outline>
	<anchor name="bottom" x="357" y="0"/>
	<anchor name="ogonek" x="664" y="0"/>
	<anchor name="top" x="324" y="660"/>
</glyph>
<glyph name="S" format="2">
	<advance width="633"/>
	<unicode hex="0053"/>
	<anchor x="407" y="0" name="ogonek"/>
	<anchor x="319" y="0" name="bottom"/>
	<anchor x="323" y="660" name="top"/>
	<outline>
		<contour>
			<point x="325" y="670" type="curve" smooth="yes"/>
			<point x="150" y="670"/>
			<point x="45" y="579"/>
			<point x="45" y="455" type="curve" smooth="yes"/>
			<point x="45" y="338"/>
			<point x="136" y="293"/>
			<point x="234" y="271" type="curve" smooth="yes"/>
			<point x="353" y="244" type="line" smooth="yes"/>
			<point x="405" y="232"/>
			<point x="421" y="212"/>
			<point x="421" y="184" type="curve" smooth="yes"/>
			<point x="421" y="145"/>
			<point x="389" y="123"/>
			<point x="322" y="123" type="curve" smooth="yes"/>
			<point x="236" y="123"/>
			<point x="148" y="165"/>
			<point x="98" y="223" type="curve"/>
			<point x="16" y="108" type="line"/>
			<point x="81" y="37"/>
			<point x="196" y="-10"/>
			<point x="324" y="-10" type="curve" smooth="yes"/>
			<point x="482" y="-10"/>
			<point x="598" y="65"/>
			<point x="598" y="206" type="curve" smooth="yes"/>
			<point x="598" y="303"/>
			<point x="540" y="360"/>
			<point x="411" y="390" type="curve" smooth="yes"/>
			<point x="303" y="415" type="line" smooth="yes"/>
			<point x="255" y="426"/>
			<point x="224" y="442"/>
			<point x="224" y="475" type="curve" smooth="yes"/>
			<point x="224" y="510"/>
			<point x="252" y="537"/>
			<point x="322" y="537" type="curve" smooth="yes"/>
			<point x="402" y="537"/>
			<point x="464" y="507"/>
			<point x="522" y="447" type="curve"/>
			<point x="604" y="558" type="line"/>
			<point x="536" y="632"/>
			<point x="444" y="670"/>
		</contour>
	</outline>
</glyph>
<glyph name="T" format="2">
	<unicode hex="0054"/>
	<advance width="641"/>
	<outline>
		<contour>
			<point x="616" y="660" type="line"/>
			<point x="25" y="660" type="line"/>
			<point x="25" y="527" type="line"/>
			<point x="235" y="527" type="line"/>
			<point x="235" y="0" type="line"/>
			<point x="407" y="0" type="line"/>
			<point x="407" y="527" type="line"/>
			<point x="616" y="527" type="line"/>
		</contour>
	</outline>
	<anchor name="bottom" x="321" y="0"/>
	<anchor name="center" x="321" y="302"/>
	<anchor name="ogonek" x="407" y="0"/>
	<anchor name="top" x="321" y="660"/>
</glyph>
<glyph name="U" format="2">
	<unicode hex="0055"/>
	<advance width="698"/>
	<outline>
		<contour>
			<point x="638" y="660" type="line"/>
			<point x="466" y="660" type="line"/>
			<point x="466" y="266" type="line" smooth="yes"/>
			<point x="466" y="171"/>
			<point x="427" y="125"/>
			<point x="349" y="125" type="curve" smooth="yes"/>
			<point x="272" y="125"/>
			<point x="233" y="171"/>
			<point x="233" y="266" type="curve" smooth="yes"/>
			<point x="233" y="660" type="line"/>
			<point x="60" y="660" type="line"/>
			<point x="60" y="269" type="line" smooth="yes"/>
			<point x="60" y="83"/>
			<point x="159" y="-10"/>
			<point x="349" y="-10" type="curve" smooth="yes"/>
			<point x="540" y="-10"/>
			<point x="638" y="83"/>
			<point x="638" y="269" type="curve" smooth="yes"/>
		</contour>
	</outline>
	<anchor name="bottom" x="349" y="0"/>
	<anchor name="ogonek" x="479" y="9"/>
	<anchor name="top" x="349" y="650"/>
	<anchor name="top_ring" x="349" y="635"/>
	<anchor name="topright" x="642" y="660"/>
</glyph>
<glyph name="V" format="2">
	<unicode hex="0056"/>
	<advance width="671"/>
	<outline>
		<contour>
			<point x="665" y="660" type="line"/>
			<point x="490" y="660" type="line"/>
			<point x="372" y="259" type="line"/>
			<point x="338" y="131" type="line"/>
			<point x="303" y="261" type="line"/>
			<point x="187" y="660" type="line"/>
			<point x="6" y="660" type="line"/>
			<point x="235" y="0" type="line"/>
			<point x="437" y="0" type="line"/>
		</contour>
	</outline>
	<anchor name="bottom" x="336" y="0"/>
	<anchor name="ogonek" x="437" y="0"/>
	<anchor name="top" x="336" y="660"/>
</glyph>
<glyph name="W" format="2">
	<advance width="985"/>
	<unicode hex="0057"/>
	<anchor x="787" y="0" name="ogonek"/>
	<anchor x="492" y="0" name="bottom"/>
	<anchor x="492" y="660" name="top"/>
	<outline>
		<contour>
			<point x="197" y="0" type="line"/>
			<point x="390" y="0" type="line"/>
			<point x="465" y="320" type="line"/>
			<point x="493" y="481" type="line"/>
			<point x="495" y="481" type="line"/>
			<point x="524" y="320" type="line"/>
			<point x="600" y="0" type="line"/>
			<point x="787" y="0" type="line"/>
			<point x="975" y="660" type="line"/>
			<point x="798" y="660" type="line"/>
			<point x="691" y="140" type="line"/>
			<point x="573" y="660" type="line"/>
			<point x="417" y="660" type="line"/>
			<point x="302" y="139" type="line"/>
			<point x="193" y="660" type="line"/>
			<point x="10" y="660" type="line"/>
		</contour>
	</outline>
</glyph>
<glyph name="X" format="2">
	<unicode hex="0058"/>
	<advance width="651"/>
	<outline>
		<contour>
			<point x="643" y="0" type="line"/>
			<point x="424" y="337" type="line"/>
			<point x="629" y="660" type="line"/>
			<point x="442" y="660" type="line"/>
			<point x="334" y="458" type="line"/>
			<point x="226" y="660" type="line"/>
			<point x="23" y="660" type="line"/>
			<point x="229" y="332" type="line"/>
			<point x="11" y="0" type="line"/>
			<point x="206" y="0" type="line"/>
			<point x="320" y="211" type="line"/>
			<point x="438" y="0" type="line"/>
		</contour>
	</outline>
	<anchor name="bottom" x="322" y="0"/>
	<anchor name="ogonek" x="643" y="0"/>
	<anchor name="top" x="322" y="660"/>
</glyph>
<glyph name="Y" format="2">
	<advance width="645"/>
	<unicode hex="0059"/>
	<anchor x="408" y="0" name="ogonek"/>
	<anchor x="322" y="0" name="bottom"/>
	<anchor x="322" y="652" name="top"/>
	<outline>
		<contour>
			<point x="635" y="660" type="line"/>
			<point x="460" y="660" type="line"/>
			<point x="371" y="479" type="line"/>
			<point x="323" y="369" type="line"/>
			<point x="276" y="479" type="line"/>
			<point x="187" y="660" type="line"/>
			<point x="9" y="660" type="line"/>
			<point x="236" y="241" type="line"/>
			<point x="236" y="0" type="line"/>
			<point x="408" y="0" type="line"/>
			<point x="408" y="241" type="line"/>
		</contour>
	</outline>
</glyph>
<glyph name="bracketleft" format="2">
	<unicode hex="005B"/>
	<advance width="391"/>
	<outline>
		<contour>
			<point x="365" y="594" type="line"/>
			<point x="365" y="713" type="line"/>
			<point x="85" y="713" type="line"/>
			<point x="85" y="-168" type="line"/>
			<point x="365" y="-168" type="line"/>
			<point x="365" y="-49" type="line"/>
			<point x="232" y="-49" type="line"/>
			<point x="232" y="594" type="line"/>
		</contour>
	</outline>
</glyph>
<glyph name="backslash" format="2">
	<advance width="468"/>
	<unicode hex="005C"/>
	<outline>
		<contour>
			<point x="15" y="712" type="line"/>
			<point x="295" y="-70" type="line"/>
			<point x="453" y="-70" type="line"/>
			<point x="173" y="712" type="line"/>
		</contour>
	</outline>
</glyph>
<glyph name="asciicircum" format="2">
  <advance width="612"/>
  <unicode hex="005E"/>
  <outline>
    <contour>
      <point x="25" y="355" type="line"/>
      <point x="175" y="355" type="line"/>
      <point x="306" y="612" type="line"/>
      <point x="438" y="355" type="line"/>
      <point x="588" y="355" type="line"/>
      <point x="378" y="724" type="line"/>
      <point x="234" y="724" type="line"/>
    </contour>
  </outline>
</glyph>
<glyph name="underscore" format="2">
	<unicode hex="005F"/>
	<advance width="539"/>
	<outline>
		<contour>
			<point x="539" y="-66" type="line"/>
			<point x="0" y="-66" type="line"/>
			<point x="0" y="-201" type="line"/>
			<point x="539" y="-201" type="line"/>
		</contour>
	</outline>
</glyph>
<glyph name="a" format="2">
  <advance width="574"/>
  <unicode hex="0061"/>
  <anchor x="274" y="0" name="bottom"/>
  <anchor x="558" y="5" name="ogonek"/>
  <anchor x="274" y="500" name="top"/>
  <outline>
    <contour>
      <point x="336" y="317" type="curve" smooth="yes"/>
      <point x="336" y="185" type="line" smooth="yes"/>
      <point x="336" y="126"/>
      <point x="296" y="100"/>
      <point x="252" y="100" type="curve" smooth="yes"/>
      <point x="224" y="100"/>
      <point x="200" y="114"/>
      <point x="200" y="144" type="curve" smooth="yes"/>
      <point x="200" y="176"/>
      <point x="221" y="188"/>
      <point x="257" y="196" type="curve" smooth="yes"/>
      <point x="351" y="216" type="line"/>
      <point x="352" y="306" type="line"/>
      <point x="165" y="267" type="line" smooth="yes"/>
      <point x="73" y="248"/>
      <point x="32" y="199"/>
      <point x="32" y="128" type="curve" smooth="yes"/>
      <point x="32" y="38"/>
      <point x="97" y="-10"/>
      <point x="198" y="-10" type="curve" smooth="yes"/>
      <point x="285" y="-10"/>
      <point x="372" y="32"/>
      <point x="372" y="119" type="curve"/>
      <point x="353" y="112" type="line"/>
      <point x="353" y="106" type="line" smooth="yes"/>
      <point x="353" y="28"/>
      <point x="408" y="-9"/>
      <point x="485" y="-9" type="curve" smooth="yes"/>
      <point x="516" y="-9"/>
      <point x="539" y="-4"/>
      <point x="558" y="5" type="curve"/>
      <point x="568" y="102" type="line"/>
      <point x="560" y="99"/>
      <point x="550" y="98"/>
      <point x="539" y="98" type="curve" smooth="yes"/>
      <point x="517" y="98"/>
      <point x="505" y="110"/>
      <point x="505" y="137" type="curve" smooth="yes"/>
      <point x="505" y="320" type="line" smooth="yes"/>
      <point x="505" y="444"/>
      <point x="420" y="510"/>
      <point x="276" y="510" type="curve" smooth="yes"/>
      <point x="132" y="510"/>
      <point x="53" y="448"/>
      <point x="35" y="352" type="curve"/>
      <point x="179" y="318" type="line"/>
      <point x="191" y="374"/>
      <point x="223" y="393"/>
      <point x="266" y="393" type="curve" smooth="yes"/>
      <point x="308" y="393"/>
      <point x="336" y="364"/>
    </contour>
  </outline>
</glyph>
<glyph name="c" format="2">
	<advance width="562"/>
	<unicode hex="0063"/>
	<anchor x="414" y="13" name="ogonek"/>
	<anchor x="294" y="0" name="bottom"/>
	<anchor x="292" y="500" name="top"/>
	<outline>
		<contour>
			<point x="295" y="510" type="curve" smooth="yes"/>
			<point x="141" y="510"/>
			<point x="35" y="414"/>
			<point x="35" y="250" type="curve" smooth="yes"/>
			<point x="35" y="86"/>
			<point x="139" y="-10"/>
			<point x="302" y="-10" type="curve" smooth="yes"/>
			<point x="435" y="-10"/>
			<point x="520" y="56"/>
			<point x="535" y="143" type="curve"/>
			<point x="382" y="192" type="line"/>
			<point x="374" y="140"/>
			<point x="349" y="111"/>
			<point x="301" y="111" type="curve" smooth="yes"/>
			<point x="243" y="111"/>
			<point x="206" y="149"/>
			<point x="206" y="248" type="curve" smooth="yes"/>
			<point x="206" y="346"/>
			<point x="238" y="389"/>
			<point x="300" y="389" type="curve" smooth="yes"/>
			<point x="346" y="389"/>
			<point x="368" y="361"/>
			<point x="377" y="303" type="curve"/>
			<point x="534" y="355" type="line"/>
			<point x="518" y="438"/>
			<point x="444" y="510"/>
		</contour>
	</outline>
</glyph>
<glyph name="d" format="2">
	<unicode hex="0064"/>
	<advance width="622"/>
	<outline>
		<contour>
			<point x="242" y="-10" type="curve" smooth="yes"/>
			<point x="337" y="-10"/>
			<point x="404" y="56"/>
			<point x="418" y="155" type="curve"/>
			<point x="398" y="170" type="line"/>
			<point x="409" y="0" type="line"/>
			<point x="561" y="0" type="line"/>
			<point x="561" y="712" type="line"/>
			<point x="391" y="712" type="line"/>
			<point x="391" y="342" type="line"/>
			<point x="407" y="363" type="line"/>
			<point x="392" y="449"/>
			<point x="336" y="510"/>
			<point x="246" y="510" type="curve" smooth="yes"/>
			<point x="124" y="510"/>
			<point x="39" y="415"/>
			<point x="39" y="248" type="curve" smooth="yes"/>
			<point x="39" y="85"/>
			<point x="120" y="-10"/>
		</contour>
		<contour>
			<point x="301" y="115" type="curve" smooth="yes"/>
			<point x="244" y="115"/>
			<point x="210" y="158"/>
			<point x="210" y="250" type="curve" smooth="yes"/>
			<point x="210" y="342"/>
			<point x="245" y="385"/>
			<point x="302" y="385" type="curve" smooth="yes"/>
			<point x="358" y="385"/>
			<point x="391" y="337"/>
			<point x="391" y="253" type="curve" smooth="yes"/>
			<point x="391" y="163"/>
			<point x="356" y="115"/>
		</contour>
	</outline>
	<anchor name="bottom" x="305" y="0"/>
	<anchor name="center" x="311" y="250"/>
	<anchor name="ogonek" x="325" y="13"/>
	<anchor name="top" x="476" y="700"/>
	<anchor name="topright" x="624" y="712"/>
</glyph>
<glyph name="e" format="2">
  <advance width="574"/>
  <unicode hex="0065"/>
  <anchor x="294" y="0" name="bottom"/>
  <anchor x="406" y="7" name="ogonek"/>
  <anchor x="291" y="500" name="top"/>
  <outline>
    <contour>
      <point x="302" y="-10" type="curve" smooth="yes"/>
      <point x="405" y="-10"/>
      <point x="502" y="36"/>
      <point x="530" y="122" type="curve"/>
      <point x="394" y="167" type="line"/>
      <point x="380" y="131"/>
      <point x="350" y="110"/>
      <point x="302" y="110" type="curve" smooth="yes"/>
      <point x="235" y="110"/>
      <point x="197" y="148"/>
      <point x="197" y="247" type="curve" smooth="yes"/>
      <point x="197" y="347"/>
      <point x="231" y="391"/>
      <point x="294" y="391" type="curve" smooth="yes"/>
      <point x="352" y="391"/>
      <point x="380" y="347"/>
      <point x="380" y="267" type="curve"/>
      <point x="461" y="298" type="line"/>
      <point x="145" y="298" type="line"/>
      <point x="145" y="207" type="line"/>
      <point x="536" y="207" type="line"/>
      <point x="538" y="223"/>
      <point x="540" y="248"/>
      <point x="540" y="273" type="curve" smooth="yes"/>
      <point x="540" y="411"/>
      <point x="450" y="510"/>
      <point x="294" y="510" type="curve" smooth="yes"/>
      <point x="141" y="510"/>
      <point x="35" y="415"/>
      <point x="35" y="250" type="curve" smooth="yes"/>
      <point x="35" y="85"/>
      <point x="138" y="-10"/>
    </contour>
  </outline>
</glyph>
<glyph name="f" format="2">
  <advance width="410"/>
  <unicode hex="0066"/>
  <anchor x="178" y="0" name="bottom"/>
  <anchor x="263" y="0" name="ogonek"/>
  <anchor x="251" y="712" name="top"/>
  <outline>
    <contour>
      <point x="290" y="726" type="curve" smooth="yes"/>
      <point x="185" y="726"/>
      <point x="93" y="674"/>
      <point x="93" y="546" type="curve" smooth="yes"/>
      <point x="93" y="0" type="line"/>
      <point x="263" y="0" type="line"/>
      <point x="263" y="442" type="line"/>
      <point x="253" y="470" type="line"/>
      <point x="253" y="535" type="line" smooth="yes"/>
      <point x="253" y="589"/>
      <point x="285" y="607"/>
      <point x="331" y="607" type="curve" smooth="yes"/>
      <point x="358" y="607"/>
      <point x="377" y="600"/>
      <point x="390" y="592" type="curve"/>
      <point x="407" y="698" type="line"/>
      <point x="387" y="713"/>
      <point x="343" y="726"/>
    </contour>
    <contour>
      <point x="402" y="500" type="line"/>
      <point x="15" y="500" type="line"/>
      <point x="15" y="379" type="line"/>
      <point x="402" y="379" type="line"/>
    </contour>
  </outline>
</glyph>
<glyph name="g" format="2">
	<unicode hex="0067"/>
	<advance width="555"/>
	<outline>
		<contour>
			<point x="540" y="634" type="line"/>
			<point x="534" y="635"/>
			<point x="528" y="635"/>
			<point x="524" y="635" type="curve" smooth="yes"/>
			<point x="428" y="635"/>
			<point x="384" y="553"/>
			<point x="384" y="470" type="curve"/>
			<point x="444" y="448" type="line"/>
			<point x="444" y="491"/>
			<point x="472" y="523"/>
			<point x="530" y="523" type="curve" smooth="yes"/>
			<point x="536" y="523"/>
			<point x="545" y="522"/>
			<point x="554" y="520" type="curve"/>
		</contour>
		<contour>
			<point x="370" y="111" type="curve" smooth="yes"/>
			<point x="212" y="111" type="line" smooth="yes"/>
			<point x="175" y="111"/>
			<point x="157" y="123"/>
			<point x="157" y="145" type="curve" smooth="yes"/>
			<point x="157" y="167"/>
			<point x="176" y="183"/>
			<point x="227" y="185" type="curve"/>
			<point x="243" y="185" type="line"/>
			<point x="180" y="214" type="line"/>
			<point x="98" y="211"/>
			<point x="43" y="166"/>
			<point x="43" y="103" type="curve" smooth="yes"/>
			<point x="43" y="41"/>
			<point x="82" y="2"/>
			<point x="163" y="-9" type="curve"/>
			<point x="167" y="7" type="line"/>
			<point x="64" y="5"/>
			<point x="22" y="-33"/>
			<point x="22" y="-89" type="curve" smooth="yes"/>
			<point x="22" y="-167"/>
			<point x="96" y="-215"/>
			<point x="275" y="-215" type="curve" smooth="yes"/>
			<point x="441" y="-215"/>
			<point x="548" y="-155"/>
			<point x="548" y="-30" type="curve" smooth="yes"/>
			<point x="548" y="61"/>
			<point x="483" y="111"/>
		</contour>
		<contour>
			<point x="277" y="-105" type="curve" smooth="yes"/>
			<point x="197" y="-105"/>
			<point x="149" y="-87"/>
			<point x="149" y="-57" type="curve" smooth="yes"/>
			<point x="149" y="-37"/>
			<point x="166" y="-22"/>
			<point x="190" y="-22" type="curve" smooth="yes"/>
			<point x="367" y="-22" type="line" smooth="yes"/>
			<point x="402" y="-22"/>
			<point x="416" y="-33"/>
			<point x="416" y="-54" type="curve" smooth="yes"/>
			<point x="416" y="-84"/>
			<point x="371" y="-105"/>
		</contour>
		<contour>
			<point x="282" y="510" type="curve" smooth="yes"/>
			<point x="130" y="510"/>
			<point x="43" y="448"/>
			<point x="43" y="340" type="curve" smooth="yes"/>
			<point x="43" y="232"/>
			<point x="125" y="171"/>
			<point x="282" y="171" type="curve" smooth="yes"/>
			<point x="433" y="171"/>
			<point x="522" y="232"/>
			<point x="522" y="340" type="curve" smooth="yes"/>
			<point x="522" y="448"/>
			<point x="433" y="510"/>
		</contour>
		<contour>
			<point x="282" y="413" type="curve" smooth="yes"/>
			<point x="324" y="413"/>
			<point x="354" y="387"/>
			<point x="354" y="340" type="curve" smooth="yes"/>
			<point x="354" y="294"/>
			<point x="324" y="268"/>
			<point x="282" y="268" type="curve" smooth="yes"/>
			<point x="239" y="268"/>
			<point x="210" y="294"/>
			<point x="210" y="340" type="curve" smooth="yes"/>
			<point x="210" y="387"/>
			<point x="239" y="413"/>
		</contour>
	</outline>
	<anchor name="bottom" x="284" y="-210"/>
	<anchor name="ogonek" x="410" y="-197"/>
	<anchor name="top" x="258" y="500"/>
</glyph>
<glyph name="h" format="2">
	<unicode hex="0068"/>
	<advance width="615"/>
	<outline>
		<contour>
			<point x="61" y="0" type="line"/>
			<point x="231" y="0" type="line"/>
			<point x="231" y="263" type="line" smooth="yes"/>
			<point x="231" y="347"/>
			<point x="271" y="381"/>
			<point x="318" y="381" type="curve" smooth="yes"/>
			<point x="359" y="381"/>
			<point x="387" y="356"/>
			<point x="387" y="286" type="curve" smooth="yes"/>
			<point x="387" y="0" type="line"/>
			<point x="557" y="0" type="line"/>
			<point x="557" y="333" type="line" smooth="yes"/>
			<point x="557" y="449"/>
			<point x="488" y="510"/>
			<point x="387" y="510" type="curve" smooth="yes"/>
			<point x="316" y="510"/>
			<point x="261" y="476"/>
			<point x="231" y="409" type="curve"/>
			<point x="231" y="712" type="line"/>
			<point x="61" y="712" type="line"/>
		</contour>
	</outline>
	<anchor name="bottom" x="316" y="0"/>
	<anchor name="ogonek" x="557" y="0"/>
	<anchor name="top" x="146" y="704"/>
</glyph>
<glyph name="k" format="2">
	<advance width="617"/>
	<unicode hex="006B"/>
	<anchor x="146" y="700" name="top"/>
	<anchor x="325" y="0" name="bottom"/>
	<outline>
		<contour>
			<point x="605" y="500" type="line"/>
			<point x="416" y="500" type="line"/>
			<point x="194" y="249" type="line"/>
			<point x="195" y="75" type="line"/>
			<point x="336" y="235" type="line"/>
			<point x="368" y="244" type="line"/>
		</contour>
		<contour>
			<point x="231" y="712" type="line"/>
			<point x="61" y="712" type="line"/>
			<point x="61" y="0" type="line"/>
			<point x="231" y="0" type="line"/>
		</contour>
		<contour>
			<point x="394" y="350" type="line"/>
			<point x="283" y="250" type="line"/>
			<point x="428" y="0" type="line"/>
			<point x="616" y="0" type="line"/>
		</contour>
	</outline>
</glyph>
<glyph name="l" format="2">
	<unicode hex="006C"/>
	<advance width="322"/>
	<outline>
		<contour>
			<point x="229" y="712" type="line"/>
			<point x="59" y="712" type="line"/>
			<point x="59" y="148" type="line" smooth="yes"/>
			<point x="59" y="48"/>
			<point x="94" y="-10"/>
			<point x="208" y="-10" type="curve" smooth="yes"/>
			<point x="243" y="-10"/>
			<point x="287" y="0"/>
			<point x="310" y="15" type="curve"/>
			<point x="321" y="117" type="line"/>
			<point x="304" y="111"/>
			<point x="293" y="109"/>
			<point x="274" y="109" type="curve" smooth="yes"/>
			<point x="239" y="109"/>
			<point x="229" y="130"/>
			<point x="229" y="170" type="curve" smooth="yes"/>
		</contour>
	</outline>
	<anchor name="bottom" x="192" y="0"/>
	<anchor name="center" x="290" y="358"/>
	<anchor name="ogonek" x="268" y="0"/>
	<anchor name="top" x="138" y="712"/>
	<anchor name="topright" x="285" y="712"/>
</glyph>
<glyph name="m" format="2">
  <advance width="936"/>
  <unicode hex="006D"/>
  <anchor x="470" y="0" name="bottom"/>
  <anchor x="876" y="0" name="ogonek"/>
  <anchor x="470" y="500" name="top"/>
  <outline>
    <contour>
      <point x="61" y="0" type="line"/>
      <point x="231" y="0" type="line"/>
      <point x="231" y="264" type="line" smooth="yes"/>
      <point x="231" y="346"/>
      <point x="272" y="380"/>
      <point x="318" y="380" type="curve" smooth="yes"/>
      <point x="357" y="380"/>
      <point x="385" y="356"/>
      <point x="385" y="294" type="curve" smooth="yes"/>
      <point x="385" y="0" type="line"/>
      <point x="555" y="0" type="line"/>
      <point x="555" y="267" type="line" smooth="yes"/>
      <point x="555" y="342"/>
      <point x="591" y="380"/>
      <point x="641" y="380" type="curve" smooth="yes"/>
      <point x="681" y="380"/>
      <point x="708" y="357"/>
      <point x="708" y="294" type="curve" smooth="yes"/>
      <point x="708" y="0" type="line"/>
      <point x="878" y="0" type="line"/>
      <point x="878" y="333" type="line" smooth="yes"/>
      <point x="878" y="450"/>
      <point x="805" y="510"/>
      <point x="708" y="510" type="curve" smooth="yes"/>
      <point x="638" y="510"/>
      <point x="572" y="476"/>
      <point x="542" y="411" type="curve"/>
      <point x="516" y="476"/>
      <point x="457" y="510"/>
      <point x="385" y="510" type="curve" smooth="yes"/>
      <point x="310" y="510"/>
      <point x="250" y="473"/>
      <point x="218" y="403" type="curve"/>
      <point x="213" y="500" type="line"/>
      <point x="61" y="500" type="line"/>
    </contour>
  </outline>
</glyph>
<glyph name="n" format="2">
	<advance width="615"/>
	<unicode hex="006E"/>
	<anchor x="557" y="0" name="ogonek"/>
	<anchor x="316" y="0" name="bottom"/>
	<anchor x="310" y="500" name="top"/>
	<outline>
		<contour>
			<point x="61" y="0" type="line"/>
			<point x="231" y="0" type="line"/>
			<point x="231" y="265" type="line" smooth="yes"/>
			<point x="231" y="348"/>
			<point x="271" y="380"/>
			<point x="318" y="380" type="curve" smooth="yes"/>
			<point x="359" y="380"/>
			<point x="387" y="356"/>
			<point x="387" y="288" type="curve" smooth="yes"/>
			<point x="387" y="0" type="line"/>
			<point x="557" y="0" type="line"/>
			<point x="557" y="333" type="line" smooth="yes"/>
			<point x="557" y="449"/>
			<point x="488" y="510"/>
			<point x="387" y="510" type="curve" smooth="yes"/>
			<point x="290" y="510"/>
			<point x="223" y="454"/>
			<point x="203" y="347" type="curve"/>
			<point x="222" y="328" type="line"/>
			<point x="213" y="500" type="line"/>
			<point x="61" y="500" type="line"/>
		</contour>
	</outline>
</glyph>
<glyph name="o" format="2">
	<unicode hex="006F"/>
	<advance width="594"/>
	<outline>
		<contour>
			<point x="296" y="510" type="curve" smooth="yes"/>
			<point x="142" y="510"/>
			<point x="35" y="414"/>
			<point x="35" y="250" type="curve" smooth="yes"/>
			<point x="35" y="86"/>
			<point x="142" y="-10"/>
			<point x="296" y="-10" type="curve" smooth="yes"/>
			<point x="452" y="-10"/>
			<point x="559" y="86"/>
			<point x="559" y="250" type="curve" smooth="yes"/>
			<point x="559" y="414"/>
			<point x="452" y="510"/>
		</contour>
		<contour>
			<point x="296" y="389" type="curve" smooth="yes"/>
			<point x="354" y="389"/>
			<point x="388" y="347"/>
			<point x="388" y="250" type="curve" smooth="yes"/>
			<point x="388" y="153"/>
			<point x="354" y="111"/>
			<point x="296" y="111" type="curve" smooth="yes"/>
			<point x="239" y="111"/>
			<point x="206" y="152"/>
			<point x="206" y="250" type="curve" smooth="yes"/>
			<point x="206" y="348"/>
			<point x="239" y="389"/>
		</contour>
	</outline>
	<anchor name="bottom" x="296" y="0"/>
	<anchor name="center" x="296" y="250"/>
	<anchor name="ogonek" x="416" y="12"/>
	<anchor name="top" x="296" y="500"/>
	<anchor name="topright" x="463" y="500"/>
</glyph>
<glyph name="p" format="2">
	<unicode hex="0070"/>
	<advance width="622"/>
	<outline>
		<contour>
			<point x="61" y="-210" type="line"/>
			<point x="231" y="-210" type="line"/>
			<point x="231" y="157" type="line"/>
			<point x="215" y="133" type="line"/>
			<point x="233" y="51"/>
			<point x="289" y="-10"/>
			<point x="379" y="-10" type="curve" smooth="yes"/>
			<point x="500" y="-10"/>
			<point x="583" y="86"/>
			<point x="583" y="252" type="curve" smooth="yes"/>
			<point x="583" y="415"/>
			<point x="502" y="510"/>
			<point x="381" y="510" type="curve" smooth="yes"/>
			<point x="283" y="510"/>
			<point x="217" y="438"/>
			<point x="203" y="340" type="curve"/>
			<point x="223" y="319" type="line"/>
			<point x="214" y="500" type="line"/>
			<point x="61" y="500" type="line"/>
		</contour>
		<contour>
			<point x="321" y="115" type="curve" smooth="yes"/>
			<point x="263" y="115"/>
			<point x="231" y="166"/>
			<point x="231" y="250" type="curve" smooth="yes"/>
			<point x="231" y="337"/>
			<point x="266" y="385"/>
			<point x="322" y="385" type="curve" smooth="yes"/>
			<point x="378" y="385"/>
			<point x="412" y="342"/>
			<point x="412" y="250" type="curve" smooth="yes"/>
			<point x="412" y="158"/>
			<point x="377" y="115"/>
		</contour>
	</outline>
	<anchor name="bottom" x="146" y="-210"/>
	<anchor name="ogonek" x="470" y="13"/>
	<anchor name="top" x="317" y="500"/>
</glyph>
<glyph name="q" format="2">
	<advance width="622"/>
	<unicode hex="0071"/>
	<anchor x="324" y="13" name="ogonek"/>
	<anchor x="476" y="-210" name="bottom"/>
	<anchor x="305" y="500" name="top"/>
	<outline>
		<contour>
			<point x="391" y="-210" type="line"/>
			<point x="561" y="-210" type="line"/>
			<point x="561" y="500" type="line"/>
			<point x="408" y="500" type="line"/>
			<point x="399" y="321" type="line"/>
			<point x="419" y="337" type="line"/>
			<point x="409" y="438"/>
			<point x="341" y="510"/>
			<point x="245" y="510" type="curve" smooth="yes"/>
			<point x="123" y="510"/>
			<point x="39" y="416"/>
			<point x="39" y="252" type="curve" smooth="yes"/>
			<point x="39" y="86"/>
			<point x="122" y="-10"/>
			<point x="242" y="-10" type="curve" smooth="yes"/>
			<point x="334" y="-10"/>
			<point x="395" y="52"/>
			<point x="409" y="145" type="curve"/>
			<point x="391" y="167" type="line"/>
		</contour>
		<contour>
			<point x="301" y="115" type="curve" smooth="yes"/>
			<point x="244" y="115"/>
			<point x="210" y="158"/>
			<point x="210" y="250" type="curve" smooth="yes"/>
			<point x="210" y="342"/>
			<point x="245" y="385"/>
			<point x="302" y="385" type="curve" smooth="yes"/>
			<point x="357" y="385"/>
			<point x="391" y="341"/>
			<point x="391" y="251" type="curve" smooth="yes"/>
			<point x="391" y="166"/>
			<point x="358" y="115"/>
		</contour>
	</outline>
</glyph>
<glyph name="r" format="2">
	<unicode hex="0072"/>
	<advance width="425"/>
	<outline>
		<contour>
			<point x="61" y="0" type="line"/>
			<point x="231" y="0" type="line"/>
			<point x="231" y="252" type="line" smooth="yes"/>
			<point x="231" y="330"/>
			<point x="282" y="368"/>
			<point x="341" y="368" type="curve" smooth="yes"/>
			<point x="372" y="368"/>
			<point x="391" y="363"/>
			<point x="402" y="359" type="curve"/>
			<point x="419" y="499" type="line"/>
			<point x="408" y="505"/>
			<point x="391" y="510"/>
			<point x="366" y="510" type="curve" smooth="yes"/>
			<point x="291" y="510"/>
			<point x="242" y="466"/>
			<point x="218" y="392" type="curve"/>
			<point x="211" y="500" type="line"/>
			<point x="61" y="500" type="line"/>
		</contour>
	</outline>
	<anchor name="bottom" x="146" y="0"/>
	<anchor name="ogonek" x="231" y="0"/>
	<anchor name="top" x="241" y="500"/>
</glyph>
<glyph name="s" format="2">
  <advance width="528"/>
  <unicode hex="0073"/>
  <anchor x="272" y="0" name="bottom"/>
  <anchor x="393" y="13" name="ogonek"/>
  <anchor x="271" y="500" name="top"/>
  <outline>
    <contour>
      <point x="268" y="-10" type="curve" smooth="yes"/>
      <point x="424" y="-10"/>
      <point x="501" y="65"/>
      <point x="501" y="162" type="curve" smooth="yes"/>
      <point x="501" y="231"/>
      <point x="459" y="282"/>
      <point x="358" y="302" type="curve" smooth="yes"/>
      <point x="268" y="320" type="line" smooth="yes"/>
      <point x="227" y="328"/>
      <point x="211" y="340"/>
      <point x="211" y="359" type="curve" smooth="yes"/>
      <point x="211" y="382"/>
      <point x="234" y="396"/>
      <point x="282" y="396" type="curve" smooth="yes"/>
      <point x="331" y="396"/>
      <point x="386" y="372"/>
      <point x="418" y="332" type="curve"/>
      <point x="498" y="424" type="line"/>
      <point x="452" y="479"/>
      <point x="375" y="510"/>
      <point x="274" y="510" type="curve" smooth="yes"/>
      <point x="115" y="510"/>
      <point x="42" y="428"/>
      <point x="42" y="347" type="curve" smooth="yes"/>
      <point x="42" y="266"/>
      <point x="88" y="218"/>
      <point x="213" y="192" type="curve" smooth="yes"/>
      <point x="281" y="178" type="line" smooth="yes"/>
      <point x="320" y="170"/>
      <point x="330" y="159"/>
      <point x="330" y="141" type="curve" smooth="yes"/>
      <point x="330" y="116"/>
      <point x="300" y="104"/>
      <point x="261" y="104" type="curve" smooth="yes"/>
      <point x="195" y="104"/>
      <point x="137" y="136"/>
      <point x="104" y="179" type="curve"/>
      <point x="25" y="85" type="line"/>
      <point x="82" y="23"/>
      <point x="168" y="-10"/>
    </contour>
  </outline>
</glyph>
<glyph name="t" format="2">
  <advance width="432"/>
  <unicode hex="0074"/>
  <anchor x="251" y="0" name="bottom"/>
  <anchor x="217" y="250" name="center"/>
  <anchor x="390" y="13" name="ogonek"/>
  <anchor x="183" y="652" name="top"/>
  <anchor x="335" y="767" name="topright"/>
  <outline>
    <contour>
      <point x="268" y="659" type="line"/>
      <point x="99" y="612" type="line"/>
      <point x="99" y="150" type="line" smooth="yes"/>
      <point x="99" y="34"/>
      <point x="170" y="-10"/>
      <point x="283" y="-10" type="curve" smooth="yes"/>
      <point x="335" y="-10"/>
      <point x="389" y="5"/>
      <point x="422" y="28" type="curve"/>
      <point x="404" y="133" type="line"/>
      <point x="385" y="119"/>
      <point x="363" y="111"/>
      <point x="333" y="111" type="curve" smooth="yes"/>
      <point x="292" y="111"/>
      <point x="268" y="130"/>
      <point x="268" y="178" type="curve" smooth="yes"/>
    </contour>
    <contour>
      <point x="414" y="500" type="line"/>
      <point x="14" y="500" type="line"/>
      <point x="14" y="379" type="line"/>
      <point x="414" y="379" type="line"/>
    </contour>
  </outline>
</glyph>
<glyph name="u" format="2">
	<unicode hex="0075"/>
	<advance width="614"/>
	<outline>
		<contour>
			<point x="228" y="-10" type="curve" smooth="yes"/>
			<point x="307" y="-10"/>
			<point x="365" y="24"/>
			<point x="396" y="94" type="curve"/>
			<point x="401" y="0" type="line"/>
			<point x="553" y="0" type="line"/>
			<point x="553" y="500" type="line"/>
			<point x="383" y="500" type="line"/>
			<point x="383" y="232" type="line" smooth="yes"/>
			<point x="383" y="154"/>
			<point x="345" y="120"/>
			<point x="299" y="120" type="curve" smooth="yes"/>
			<point x="248" y="120"/>
			<point x="228" y="149"/>
			<point x="228" y="206" type="curve" smooth="yes"/>
			<point x="228" y="500" type="line"/>
			<point x="58" y="500" type="line"/>
			<point x="58" y="166" type="line" smooth="yes"/>
			<point x="58" y="40"/>
			<point x="127" y="-10"/>
		</contour>
	</outline>
	<anchor name="bottom" x="302" y="0"/>
	<anchor name="ogonek" x="553" y="0"/>
	<anchor name="top" x="302" y="496"/>
	<anchor name="topright" x="563" y="500"/>
</glyph>
<glyph name="v" format="2">
	<unicode hex="0076"/>
	<advance width="556"/>
	<outline>
		<contour>
			<point x="381" y="500" type="line"/>
			<point x="278" y="119" type="line"/>
			<point x="178" y="500" type="line"/>
			<point x="-1" y="500" type="line"/>
			<point x="176" y="0" type="line"/>
			<point x="380" y="0" type="line"/>
			<point x="557" y="500" type="line"/>
		</contour>
	</outline>
	<anchor name="bottom" x="277" y="0"/>
	<anchor name="ogonek" x="380" y="0"/>
	<anchor name="top" x="277" y="500"/>
</glyph>
<glyph name="w" format="2">
	<unicode hex="0077"/>
	<advance width="895"/>
	<outline>
		<contour>
			<point x="711" y="500" type="line"/>
			<point x="627" y="131" type="line"/>
			<point x="531" y="500" type="line"/>
			<point x="364" y="500" type="line"/>
			<point x="267" y="131" type="line"/>
			<point x="184" y="500" type="line"/>
			<point x="5" y="500" type="line"/>
			<point x="156" y="0" type="line"/>
			<point x="359" y="0" type="line"/>
			<point x="446" y="307" type="line"/>
			<point x="535" y="0" type="line"/>
			<point x="739" y="0" type="line"/>
			<point x="889" y="500" type="line"/>
		</contour>
	</outline>
	<anchor name="bottom" x="447" y="0"/>
	<anchor name="ogonek" x="739" y="0"/>
	<anchor name="top" x="447" y="500"/>
</glyph>
<glyph name="x" format="2">
	<advance width="584"/>
	<unicode hex="0078"/>
	<anchor x="578" y="0" name="ogonek"/>
	<anchor x="293" y="0" name="bottom"/>
	<anchor x="293" y="500" name="top"/>
	<outline>
		<contour>
			<point x="208" y="500" type="line"/>
			<point x="12" y="500" type="line"/>
			<point x="200" y="228" type="line"/>
			<point x="260" y="228" type="line"/>
			<point x="383" y="0" type="line"/>
			<point x="578" y="0" type="line"/>
			<point x="384" y="280" type="line"/>
			<point x="327" y="275" type="line"/>
		</contour>
		<contour>
			<point x="574" y="500" type="line"/>
			<point x="383" y="500" type="line"/>
			<point x="262" y="274" type="line"/>
			<point x="203" y="282" type="line"/>
			<point x="5" y="0" type="line"/>
			<point x="196" y="0" type="line"/>
			<point x="324" y="234" type="line"/>
			<point x="388" y="230" type="line"/>
		</contour>
	</outline>
</glyph>
<glyph name="y" format="2">
	<unicode hex="0079"/>
	<advance width="558"/>
	<outline>
		<contour>
			<point x="559" y="500" type="line"/>
			<point x="390" y="500" type="line"/>
			<point x="315" y="219" type="line"/>
			<point x="287" y="109" type="line"/>
			<point x="264" y="215" type="line"/>
			<point x="189" y="500" type="line"/>
			<point x="2" y="500" type="line"/>
			<point x="150" y="125" type="line"/>
			<point x="207" y="-11" type="line"/>
			<point x="195" y="-42" type="line" smooth="yes"/>
			<point x="183" y="-73"/>
			<point x="165" y="-90"/>
			<point x="119" y="-90" type="curve" smooth="yes"/>
			<point x="78" y="-90"/>
			<point x="54" y="-83"/>
			<point x="31" y="-66" type="curve"/>
			<point x="-3" y="-181" type="line"/>
			<point x="31" y="-202"/>
			<point x="78" y="-215"/>
			<point x="134" y="-215" type="curve" smooth="yes"/>
			<point x="260" y="-215"/>
			<point x="325" y="-158"/>
			<point x="381" y="0" type="curve" smooth="yes"/>
		</contour>
	</outline>
	<anchor name="bottom" x="484" y="0"/>
	<anchor name="ogonek" x="188" y="-210"/>
	<anchor name="top" x="294" y="496"/>
	<anchor name="top_hook" x="292" y="464"/>
</glyph>
<glyph name="z" format="2">
  <advance width="511"/>
  <unicode hex="007A"/>
  <anchor x="249" y="0" name="bottom"/>
  <anchor x="479" y="0" name="ogonek"/>
  <anchor x="249" y="500" name="top"/>
  <outline>
    <contour>
      <point x="35" y="0" type="line"/>
      <point x="479" y="0" type="line"/>
      <point x="479" y="119" type="line"/>
      <point x="311" y="119" type="line"/>
      <point x="224" y="117" type="line"/>
      <point x="278" y="172" type="line"/>
      <point x="470" y="396" type="line"/>
      <point x="470" y="500" type="line"/>
      <point x="37" y="500" type="line"/>
      <point x="37" y="381" type="line"/>
      <point x="204" y="381" type="line"/>
      <point x="282" y="383" type="line"/>
      <point x="230" y="330" type="line"/>
      <point x="35" y="104" type="line"/>
    </contour>
  </outline>
</glyph>
<glyph name="braceleft" format="2">
  <advance width="420"/>
  <unicode hex="007B"/>
  <outline>
    <contour>
      <point x="393" y="-191" type="curve"/>
      <point x="393" y="-83" type="line"/>
      <point x="320" y="-83"/>
      <point x="289" y="-59"/>
      <point x="289" y="-1" type="curve" smooth="yes"/>
      <point x="289" y="149" type="line" smooth="yes"/>
      <point x="289" y="216"/>
      <point x="255" y="254"/>
      <point x="192" y="273" type="curve"/>
      <point x="255" y="290"/>
      <point x="289" y="329"/>
      <point x="289" y="396" type="curve" smooth="yes"/>
      <point x="289" y="547" type="line" smooth="yes"/>
      <point x="289" y="604"/>
      <point x="320" y="628"/>
      <point x="393" y="628" type="curve"/>
      <point x="393" y="736" type="line"/>
      <point x="220" y="736"/>
      <point x="153" y="689"/>
      <point x="153" y="566" type="curve" smooth="yes"/>
      <point x="153" y="431" type="line" smooth="yes"/>
      <point x="153" y="356"/>
      <point x="122" y="327"/>
      <point x="41" y="327" type="curve"/>
      <point x="41" y="217" type="line"/>
      <point x="122" y="217"/>
      <point x="153" y="188"/>
      <point x="153" y="113" type="curve" smooth="yes"/>
      <point x="153" y="-21" type="line" smooth="yes"/>
      <point x="153" y="-145"/>
      <point x="220" y="-191"/>
    </contour>
  </outline>
</glyph>
<glyph name="bar" format="2">
	<advance width="320"/>
	<unicode hex="007C"/>
	<outline>
		<contour>
			<point x="235" y="713" type="line"/>
			<point x="85" y="713" type="line"/>
			<point x="85" y="-168" type="line"/>
			<point x="235" y="-168" type="line"/>
		</contour>
	</outline>
</glyph>
<glyph name="asciitilde" format="2">
  <advance width="597"/>
  <unicode hex="007E"/>
  <outline>
    <contour>
      <point x="554" y="425" type="curve"/>
      <point x="422" y="425" type="line"/>
      <point x="416" y="385"/>
      <point x="402" y="366"/>
      <point x="374" y="366" type="curve" smooth="yes"/>
      <point x="326" y="366"/>
      <point x="297" y="430"/>
      <point x="204" y="430" type="curve" smooth="yes"/>
      <point x="103" y="430"/>
      <point x="49" y="362"/>
      <point x="43" y="236" type="curve"/>
      <point x="175" y="236" type="line"/>
      <point x="181" y="275"/>
      <point x="195" y="295"/>
      <point x="223" y="295" type="curve" smooth="yes"/>
      <point x="272" y="295"/>
      <point x="300" y="231"/>
      <point x="393" y="231" type="curve" smooth="yes"/>
      <point x="494" y="231"/>
      <point x="548" y="298"/>
    </contour>
  </outline>
</glyph>
<glyph name="cent" format="2">
	<advance width="570"/>
	<unicode hex="00A2"/>
	<outline>
		<contour>
			<point x="311" y="-10" type="curve" smooth="yes"/>
			<point x="440" y="-10"/>
			<point x="523" y="52"/>
			<point x="543" y="144" type="curve"/>
			<point x="418" y="187" type="line"/>
			<point x="406" y="127"/>
			<point x="372" y="96"/>
			<point x="312" y="96" type="curve" smooth="yes"/>
			<point x="243" y="96"/>
			<point x="190" y="137"/>
			<point x="190" y="248" type="curve" smooth="yes"/>
			<point x="190" y="358"/>
			<point x="238" y="404"/>
			<point x="312" y="404" type="curve" smooth="yes"/>
			<point x="370" y="404"/>
			<point x="404" y="368"/>
			<point x="414" y="309" type="curve"/>
			<point x="541" y="355" type="line"/>
			<point x="520" y="441"/>
			<point x="451" y="510"/>
			<point x="305" y="510" type="curve" smooth="yes"/>
			<point x="145" y="510"/>
			<point x="42" y="414"/>
			<point x="42" y="250" type="curve" smooth="yes"/>
			<point x="42" y="86"/>
			<point x="143" y="-10"/>
		</contour>
		<contour>
			<point x="254" y="-100" type="line"/>
			<point x="358" y="-100" type="line"/>
			<point x="358" y="600" type="line"/>
			<point x="254" y="600" type="line"/>
		</contour>
	</outline>
</glyph>
<glyph name="currency" format="2">
	<advance width="646"/>
	<unicode hex="00A4"/>
	<outline>
		<contour>
			<point x="324" y="537" type="curve" smooth="yes"/>
			<point x="197" y="537"/>
			<point x="110" y="452"/>
			<point x="110" y="330" type="curve" smooth="yes"/>
			<point x="110" y="206"/>
			<point x="197" y="121"/>
			<point x="324" y="121" type="curve" smooth="yes"/>
			<point x="450" y="121"/>
			<point x="536" y="206"/>
			<point x="536" y="330" type="curve" smooth="yes"/>
			<point x="536" y="452"/>
			<point x="450" y="537"/>
		</contour>
		<contour>
			<point x="324" y="417" type="curve" smooth="yes"/>
			<point x="373" y="417"/>
			<point x="407" y="382"/>
			<point x="407" y="330" type="curve" smooth="yes"/>
			<point x="407" y="277"/>
			<point x="373" y="242"/>
			<point x="324" y="242" type="curve" smooth="yes"/>
			<point x="274" y="242"/>
			<point x="240" y="277"/>
			<point x="240" y="330" type="curve" smooth="yes"/>
			<point x="240" y="382"/>
			<point x="274" y="417"/>
		</contour>
		<contour>
			<point x="134" y="616" type="line"/>
			<point x="36" y="518" type="line"/>
			<point x="184" y="388" type="line"/>
			<point x="265" y="469" type="line"/>
		</contour>
		<contour>
			<point x="183" y="271" type="line"/>
			<point x="36" y="140" type="line"/>
			<point x="134" y="43" type="line"/>
			<point x="264" y="190" type="line"/>
		</contour>
		<contour>
			<point x="466" y="267" type="line"/>
			<point x="384" y="185" type="line"/>
			<point x="512" y="43" type="line"/>
			<point x="610" y="140" type="line"/>
		</contour>
		<contour>
			<point x="512" y="616" type="line"/>
			<point x="385" y="472" type="line"/>
			<point x="468" y="389" type="line"/>
			<point x="610" y="518" type="line"/>
		</contour>
	</outline>
</glyph>
<glyph name="yen" format="2">
	<advance width="654"/>
	<unicode hex="00A5"/>
	<outline>
		<contour>
			<point x="245" y="0" type="line"/>
			<point x="409" y="0" type="line"/>
			<point x="409" y="121" type="line"/>
			<point x="596" y="121" type="line"/>
			<point x="596" y="179" type="line"/>
			<point x="409" y="179" type="line"/>
			<point x="409" y="245" type="line"/>
			<point x="596" y="245" type="line"/>
			<point x="596" y="305" type="line"/>
			<point x="482" y="305" type="line"/>
			<point x="423" y="301" type="line"/>
			<point x="635" y="660" type="line"/>
			<point x="459" y="660" type="line"/>
			<point x="371" y="464" type="line"/>
			<point x="328" y="361" type="line"/>
			<point x="326" y="361" type="line"/>
			<point x="284" y="463" type="line"/>
			<point x="195" y="660" type="line"/>
			<point x="19" y="660" type="line"/>
			<point x="231" y="301" type="line"/>
			<point x="172" y="305" type="line"/>
			<point x="59" y="305" type="line"/>
			<point x="59" y="245" type="line"/>
			<point x="245" y="245" type="line"/>
			<point x="245" y="179" type="line"/>
			<point x="59" y="179" type="line"/>
			<point x="59" y="121" type="line"/>
			<point x="245" y="121" type="line"/>
		</contour>
	</outline>
</glyph>
<glyph name="brokenbar" format="2">
  <advance width="320"/>
  <unicode hex="00A6"/>
  <outline>
    <contour>
      <point x="235" y="713" type="line"/>
      <point x="85" y="713" type="line"/>
      <point x="85" y="333" type="line"/>
      <point x="235" y="333" type="line"/>
    </contour>
    <contour>
      <point x="235" y="212" type="line"/>
      <point x="85" y="212" type="line"/>
      <point x="85" y="-168" type="line"/>
      <point x="235" y="-168" type="line"/>
    </contour>
  </outline>
</glyph>
<glyph name="section" format="2">
  <advance width="611"/>
  <unicode hex="00A7"/>
  <outline>
    <contour>
      <point x="414" y="99" type="line"/>
      <point x="518" y="118"/>
      <point x="585" y="176"/>
      <point x="585" y="277" type="curve" smooth="yes"/>
      <point x="585" y="357"/>
      <point x="534" y="403"/>
      <point x="402" y="428" type="curve" smooth="yes"/>
      <point x="306" y="446" type="line" smooth="yes"/>
      <point x="229" y="460"/>
      <point x="213" y="478"/>
      <point x="213" y="506" type="curve" smooth="yes"/>
      <point x="213" y="537"/>
      <point x="242" y="561"/>
      <point x="307" y="561" type="curve" smooth="yes"/>
      <point x="366" y="561"/>
      <point x="415" y="539"/>
      <point x="452" y="493" type="curve"/>
      <point x="541" y="573" type="line"/>
      <point x="488" y="636"/>
      <point x="420" y="670"/>
      <point x="315" y="670" type="curve" smooth="yes"/>
      <point x="174" y="670"/>
      <point x="84" y="597"/>
      <point x="84" y="487" type="curve" smooth="yes"/>
      <point x="84" y="416"/>
      <point x="135" y="354"/>
      <point x="225" y="337" type="curve" smooth="yes"/>
      <point x="394" y="305" type="line" smooth="yes"/>
      <point x="440" y="296"/>
      <point x="465" y="278"/>
      <point x="465" y="248" type="curve" smooth="yes"/>
      <point x="465" y="212"/>
      <point x="432" y="193"/>
      <point x="355" y="181" type="curve"/>
    </contour>
    <contour>
      <point x="298" y="-110" type="curve" smooth="yes"/>
      <point x="441" y="-110"/>
      <point x="527" y="-43"/>
      <point x="527" y="67" type="curve" smooth="yes"/>
      <point x="527" y="152"/>
      <point x="474" y="198"/>
      <point x="375" y="217" type="curve" smooth="yes"/>
      <point x="223" y="246" type="line" smooth="yes"/>
      <point x="175" y="255"/>
      <point x="143" y="269"/>
      <point x="143" y="305" type="curve" smooth="yes"/>
      <point x="143" y="338"/>
      <point x="172" y="354"/>
      <point x="238" y="370" type="curve"/>
      <point x="186" y="451" type="line"/>
      <point x="93" y="432"/>
      <point x="23" y="384"/>
      <point x="23" y="288" type="curve" smooth="yes"/>
      <point x="23" y="190"/>
      <point x="89" y="151"/>
      <point x="180" y="131" type="curve" smooth="yes"/>
      <point x="329" y="99" type="line" smooth="yes"/>
      <point x="385" y="87"/>
      <point x="403" y="74"/>
      <point x="403" y="51" type="curve" smooth="yes"/>
      <point x="403" y="16"/>
      <point x="359" y="-3"/>
      <point x="301" y="-3" type="curve" smooth="yes"/>
      <point x="233" y="-3"/>
      <point x="171" y="24"/>
      <point x="138" y="70" type="curve"/>
      <point x="50" y="-12" type="line"/>
      <point x="97" y="-73"/>
      <point x="189" y="-110"/>
    </contour>
  </outline>
</glyph>
<glyph name="copyright" format="2">
	<unicode hex="00A9"/>
	<advance width="772"/>
	<outline>
		<contour>
			<point x="386" y="-10" type="curve" smooth="yes"/>
			<point x="587" y="-10"/>
			<point x="730" y="130"/>
			<point x="730" y="330" type="curve" smooth="yes"/>
			<point x="730" y="530"/>
			<point x="587" y="670"/>
			<point x="386" y="670" type="curve" smooth="yes"/>
			<point x="185" y="670"/>
			<point x="42" y="530"/>
			<point x="42" y="330" type="curve" smooth="yes"/>
			<point x="42" y="130"/>
			<point x="185" y="-10"/>
		</contour>
		<contour>
			<point x="386" y="74" type="curve" smooth="yes"/>
			<point x="233" y="74"/>
			<point x="129" y="180"/>
			<point x="129" y="330" type="curve" smooth="yes"/>
			<point x="129" y="480"/>
			<point x="233" y="586"/>
			<point x="386" y="586" type="curve" smooth="yes"/>
			<point x="539" y="586"/>
			<point x="643" y="480"/>
			<point x="643" y="330" type="curve" smooth="yes"/>
			<point x="643" y="180"/>
			<point x="539" y="74"/>
		</contour>
		<contour>
			<point x="392" y="138" type="curve" smooth="yes"/>
			<point x="481" y="138"/>
			<point x="532" y="173"/>
			<point x="564" y="254" type="curve"/>
			<point x="470" y="299" type="line"/>
			<point x="456" y="264"/>
			<point x="431" y="254"/>
			<point x="397" y="254" type="curve" smooth="yes"/>
			<point x="352" y="254"/>
			<point x="323" y="281"/>
			<point x="323" y="329" type="curve" smooth="yes"/>
			<point x="323" y="378"/>
			<point x="352" y="404"/>
			<point x="397" y="404" type="curve" smooth="yes"/>
			<point x="431" y="404"/>
			<point x="452" y="393"/>
			<point x="466" y="363" type="curve"/>
			<point x="565" y="410" type="line"/>
			<point x="542" y="477"/>
			<point x="482" y="520"/>
			<point x="392" y="520" type="curve" smooth="yes"/>
			<point x="271" y="520"/>
			<point x="201" y="446"/>
			<point x="201" y="329" type="curve" smooth="yes"/>
			<point x="201" y="212"/>
			<point x="271" y="138"/>
		</contour>
	</outline>
</glyph>
<glyph name="ordfeminine" format="2">
	<advance width="438"/>
	<unicode hex="00AA"/>
	<outline>
		<contour>
			<point x="141" y="306" type="curve" smooth="yes"/>
			<point x="217" y="306"/>
			<point x="264" y="351"/>
			<point x="273" y="404" type="curve"/>
			<point x="257" y="409" type="line"/>
			<point x="257" y="390" type="line" smooth="yes"/>
			<point x="257" y="334"/>
			<point x="292" y="306"/>
			<point x="347" y="306" type="curve" smooth="yes"/>
			<point x="371" y="306"/>
			<point x="388" y="311"/>
			<point x="403" y="318" type="curve"/>
			<point x="412" y="385" type="line"/>
			<point x="408" y="383"/>
			<point x="401" y="382"/>
			<point x="392" y="382" type="curve" smooth="yes"/>
			<point x="376" y="382"/>
			<point x="365" y="391"/>
			<point x="365" y="412" type="curve" smooth="yes"/>
			<point x="365" y="527" type="line" smooth="yes"/>
			<point x="365" y="617"/>
			<point x="309" y="662"/>
			<point x="197" y="662" type="curve" smooth="yes"/>
			<point x="98" y="662"/>
			<point x="40" y="617"/>
			<point x="29" y="549" type="curve"/>
			<point x="131" y="525" type="line"/>
			<point x="140" y="565"/>
			<point x="165" y="577"/>
			<point x="193" y="577" type="curve" smooth="yes"/>
			<point x="222" y="577"/>
			<point x="239" y="559"/>
			<point x="239" y="529" type="curve" smooth="yes"/>
			<point x="239" y="434" type="line" smooth="yes"/>
			<point x="239" y="394"/>
			<point x="210" y="381"/>
			<point x="184" y="381" type="curve" smooth="yes"/>
			<point x="163" y="381"/>
			<point x="147" y="392"/>
			<point x="147" y="412" type="curve" smooth="yes"/>
			<point x="147" y="433"/>
			<point x="160" y="446"/>
			<point x="191" y="453" type="curve" smooth="yes"/>
			<point x="252" y="468" type="line"/>
			<point x="252" y="519" type="line"/>
			<point x="142" y="497" type="line" smooth="yes"/>
			<point x="60" y="480"/>
			<point x="26" y="455"/>
			<point x="26" y="397" type="curve" smooth="yes"/>
			<point x="26" y="344"/>
			<point x="67" y="306"/>
		</contour>
		<contour>
			<point x="34" y="151" type="line"/>
			<point x="399" y="151" type="line"/>
			<point x="399" y="240" type="line"/>
			<point x="34" y="240" type="line"/>
		</contour>
	</outline>
</glyph>
<glyph name="logicalnot" format="2">
	<unicode hex="00AC"/>
	<advance width="604"/>
	<outline>
		<contour>
			<point x="544" y="314" type="line"/>
			<point x="407" y="314" type="line"/>
			<point x="407" y="97" type="line"/>
			<point x="544" y="97" type="line"/>
		</contour>
		<contour>
			<point x="544" y="386" type="line"/>
			<point x="60" y="386" type="line"/>
			<point x="60" y="264" type="line"/>
			<point x="544" y="264" type="line"/>
		</contour>
	</outline>
</glyph>
<glyph name="registered" format="2">
  <advance width="772"/>
  <unicode hex="00AE"/>
  <outline>
    <contour>
      <point x="386" y="-10" type="curve" smooth="yes"/>
      <point x="587" y="-10"/>
      <point x="730" y="130"/>
      <point x="730" y="330" type="curve" smooth="yes"/>
      <point x="730" y="531"/>
      <point x="587" y="670"/>
      <point x="386" y="670" type="curve" smooth="yes"/>
      <point x="185" y="670"/>
      <point x="42" y="530"/>
      <point x="42" y="330" type="curve" smooth="yes"/>
      <point x="42" y="130"/>
      <point x="185" y="-10"/>
    </contour>
    <contour>
      <point x="432" y="151" type="line"/>
      <point x="553" y="151" type="line"/>
      <point x="444" y="318" type="line"/>
      <point x="357" y="295" type="line"/>
    </contour>
    <contour>
      <point x="386" y="74" type="curve" smooth="yes"/>
      <point x="233" y="74"/>
      <point x="129" y="180"/>
      <point x="129" y="330" type="curve" smooth="yes"/>
      <point x="129" y="480"/>
      <point x="233" y="586"/>
      <point x="386" y="586" type="curve" smooth="yes"/>
      <point x="539" y="586"/>
      <point x="643" y="480"/>
      <point x="643" y="330" type="curve" smooth="yes"/>
      <point x="643" y="180"/>
      <point x="539" y="74"/>
    </contour>
    <contour>
      <point x="238" y="151" type="line"/>
      <point x="340" y="151" type="line"/>
      <point x="340" y="276" type="line"/>
      <point x="402" y="276" type="line" smooth="yes"/>
      <point x="488" y="276"/>
      <point x="545" y="320"/>
      <point x="545" y="396" type="curve" smooth="yes"/>
      <point x="545" y="466"/>
      <point x="488" y="515"/>
      <point x="414" y="515" type="curve" smooth="yes"/>
      <point x="238" y="515" type="line"/>
    </contour>
    <contour>
      <point x="340" y="345" type="line"/>
      <point x="340" y="431" type="line"/>
      <point x="390" y="431" type="line" smooth="yes"/>
      <point x="422" y="431"/>
      <point x="442" y="419"/>
      <point x="442" y="388" type="curve" smooth="yes"/>
      <point x="442" y="358"/>
      <point x="422" y="345"/>
      <point x="390" y="345" type="curve" smooth="yes"/>
    </contour>
  </outline>
</glyph>
<glyph name="degree" format="2">
	<unicode hex="00B0"/>
	<advance width="495"/>
	<outline>
		<contour>
			<point x="248" y="298" type="curve" smooth="yes"/>
			<point x="371" y="298"/>
			<point x="450" y="371"/>
			<point x="450" y="484" type="curve" smooth="yes"/>
			<point x="450" y="597"/>
			<point x="371" y="670"/>
			<point x="248" y="670" type="curve" smooth="yes"/>
			<point x="124" y="670"/>
			<point x="46" y="597"/>
			<point x="46" y="484" type="curve" smooth="yes"/>
			<point x="46" y="371"/>
			<point x="124" y="298"/>
		</contour>
		<contour>
			<point x="248" y="407" type="curve" smooth="yes"/>
			<point x="201" y="407"/>
			<point x="169" y="439"/>
			<point x="169" y="485" type="curve" smooth="yes"/>
			<point x="169" y="530"/>
			<point x="201" y="562"/>
			<point x="248" y="562" type="curve" smooth="yes"/>
			<point x="294" y="562"/>
			<point x="326" y="530"/>
			<point x="326" y="485" type="curve" smooth="yes"/>
			<point x="326" y="439"/>
			<point x="294" y="407"/>
		</contour>
	</outline>
</glyph>
<glyph name="plusminus" format="2">
	<unicode hex="00B1"/>
	<advance width="604"/>
	<outline>
		<contour>
			<point x="364" y="652" type="line"/>
			<point x="241" y="652" type="line"/>
			<point x="241" y="185" type="line"/>
			<point x="364" y="185" type="line"/>
		</contour>
		<contour>
			<point x="553" y="477" type="line"/>
			<point x="51" y="477" type="line"/>
			<point x="51" y="360" type="line"/>
			<point x="553" y="360" type="line"/>
		</contour>
		<contour>
			<point x="553" y="115" type="line"/>
			<point x="51" y="115" type="line"/>
			<point x="51" y="1" type="line"/>
			<point x="553" y="1" type="line"/>
		</contour>
	</outline>
</glyph>
<glyph name="twosuperior" format="2">
  <advance width="392"/>
  <unicode hex="00B2"/>
  <anchor x="197" y="518" name="_indexring"/>
  <outline>
    <contour>
      <point x="29" y="333" type="line"/>
      <point x="370" y="333" type="line"/>
      <point x="370" y="430" type="line"/>
      <point x="282" y="430" type="line" smooth="yes"/>
      <point x="251" y="430"/>
      <point x="212" y="428"/>
      <point x="191" y="426" type="curve"/>
      <point x="191" y="428" type="line"/>
      <point x="219" y="438"/>
      <point x="245" y="451"/>
      <point x="268" y="466" type="curve" smooth="yes"/>
      <point x="332" y="509"/>
      <point x="365" y="554"/>
      <point x="365" y="605" type="curve" smooth="yes"/>
      <point x="365" y="668"/>
      <point x="317" y="735"/>
      <point x="191" y="735" type="curve" smooth="yes"/>
      <point x="85" y="735"/>
      <point x="17" y="678"/>
      <point x="15" y="589" type="curve"/>
      <point x="134" y="564" type="line"/>
      <point x="134" y="613"/>
      <point x="153" y="640"/>
      <point x="188" y="640" type="curve" smooth="yes"/>
      <point x="219" y="640"/>
      <point x="235" y="622"/>
      <point x="235" y="595" type="curve" smooth="yes"/>
      <point x="235" y="559"/>
      <point x="202" y="519"/>
      <point x="118" y="462" type="curve" smooth="yes"/>
      <point x="90" y="444"/>
      <point x="61" y="428"/>
      <point x="29" y="410" type="curve"/>
    </contour>
  </outline>
</glyph>
<glyph name="threesuperior" format="2">
	<advance width="379"/>
	<unicode hex="00B3"/>
	<anchor x="183" y="530" name="_indexring"/>
	<outline>
		<contour>
			<point x="194" y="735" type="curve" smooth="yes"/>
			<point x="101" y="735"/>
			<point x="33" y="696"/>
			<point x="19" y="623" type="curve"/>
			<point x="128" y="591" type="line"/>
			<point x="133" y="626"/>
			<point x="153" y="641"/>
			<point x="182" y="641" type="curve" smooth="yes"/>
			<point x="210" y="641"/>
			<point x="226" y="627"/>
			<point x="226" y="600" type="curve" smooth="yes"/>
			<point x="226" y="573"/>
			<point x="208" y="559"/>
			<point x="175" y="559" type="curve" smooth="yes"/>
			<point x="171" y="559"/>
			<point x="165" y="559"/>
			<point x="160" y="560" type="curve"/>
			<point x="160" y="495" type="line"/>
			<point x="166" y="496"/>
			<point x="172" y="496"/>
			<point x="177" y="496" type="curve" smooth="yes"/>
			<point x="213" y="496"/>
			<point x="233" y="486"/>
			<point x="233" y="459" type="curve" smooth="yes"/>
			<point x="233" y="433"/>
			<point x="214" y="416"/>
			<point x="183" y="416" type="curve" smooth="yes"/>
			<point x="148" y="416"/>
			<point x="128" y="433"/>
			<point x="123" y="469" type="curve"/>
			<point x="9" y="434" type="line"/>
			<point x="27" y="366"/>
			<point x="84" y="327"/>
			<point x="180" y="327" type="curve" smooth="yes"/>
			<point x="281" y="327"/>
			<point x="355" y="373"/>
			<point x="355" y="445" type="curve" smooth="yes"/>
			<point x="355" y="499"/>
			<point x="320" y="529"/>
			<point x="263" y="530" type="curve"/>
			<point x="263" y="533" type="line"/>
			<point x="312" y="536"/>
			<point x="347" y="568"/>
			<point x="347" y="622" type="curve" smooth="yes"/>
			<point x="347" y="693"/>
			<point x="291" y="735"/>
		</contour>
	</outline>
</glyph>
<glyph name="micro" format="2">
  <advance width="617"/>
  <unicode hex="00B5"/>
  <outline>
    <contour>
      <point x="61" y="-210" type="line"/>
      <point x="231" y="-210" type="line"/>
      <point x="231" y="75" type="line"/>
      <point x="187" y="13" type="line"/>
      <point x="206" y="-3"/>
      <point x="233" y="-9"/>
      <point x="259" y="-9" type="curve" smooth="yes"/>
      <point x="322" y="-9"/>
      <point x="372" y="24"/>
      <point x="400" y="91" type="curve"/>
      <point x="406" y="0" type="line"/>
      <point x="556" y="0" type="line"/>
      <point x="556" y="500" type="line"/>
      <point x="386" y="500" type="line"/>
      <point x="386" y="238" type="line" smooth="yes"/>
      <point x="386" y="154"/>
      <point x="349" y="120"/>
      <point x="301" y="120" type="curve" smooth="yes"/>
      <point x="249" y="120"/>
      <point x="231" y="153"/>
      <point x="231" y="209" type="curve" smooth="yes"/>
      <point x="231" y="500" type="line"/>
      <point x="61" y="500" type="line"/>
    </contour>
  </outline>
</glyph>
<glyph name="paragraph" format="2">
  <advance width="748"/>
  <unicode hex="00B6"/>
  <outline>
    <contour>
      <point x="297" y="-100" type="line"/>
      <point x="436" y="-100" type="line"/>
      <point x="436" y="530" type="line"/>
      <point x="544" y="530" type="line"/>
      <point x="544" y="-100" type="line"/>
      <point x="682" y="-100" type="line"/>
      <point x="682" y="660" type="line"/>
      <point x="318" y="660" type="line" smooth="yes"/>
      <point x="149" y="660"/>
      <point x="34" y="575"/>
      <point x="34" y="418" type="curve" smooth="yes"/>
      <point x="34" y="261"/>
      <point x="146" y="178"/>
      <point x="297" y="177" type="curve"/>
    </contour>
    <contour>
      <point x="294" y="307" type="line"/>
      <point x="214" y="307"/>
      <point x="170" y="349"/>
      <point x="170" y="418" type="curve" smooth="yes"/>
      <point x="170" y="486"/>
      <point x="214" y="530"/>
      <point x="294" y="530" type="curve"/>
    </contour>
  </outline>
</glyph>
<glyph name="periodcentered" format="2">
	<unicode hex="00B7"/>
	<advance width="274"/>
	<outline>
		<contour>
			<point x="137" y="263" type="curve" smooth="yes"/>
			<point x="199" y="263"/>
			<point x="237" y="297"/>
			<point x="237" y="353" type="curve" smooth="yes"/>
			<point x="237" y="410"/>
			<point x="199" y="444"/>
			<point x="137" y="444" type="curve" smooth="yes"/>
			<point x="75" y="444"/>
			<point x="37" y="410"/>
			<point x="37" y="353" type="curve" smooth="yes"/>
			<point x="37" y="297"/>
			<point x="75" y="263"/>
		</contour>
	</outline>
	<anchor name="_center" x="37" y="353"/>
</glyph>
<glyph name="onesuperior" format="2">
	<unicode hex="00B9"/>
	<advance width="298"/>
	<outline>
		<contour>
			<point x="152" y="730" type="line"/>
			<point x="130" y="703"/>
			<point x="62" y="672"/>
			<point x="19" y="666" type="curve"/>
			<point x="19" y="565" type="line"/>
			<point x="64" y="571"/>
			<point x="104" y="590"/>
			<point x="136" y="614" type="curve"/>
			<point x="134" y="589"/>
			<point x="133" y="566"/>
			<point x="133" y="549" type="curve" smooth="yes"/>
			<point x="133" y="333" type="line"/>
			<point x="256" y="333" type="line"/>
			<point x="256" y="730" type="line"/>
		</contour>
	</outline>
	<anchor name="_indexring" x="168" y="527"/>
</glyph>
<glyph name="ordmasculine" format="2">
  <advance width="422"/>
  <unicode hex="00BA"/>
  <outline>
    <contour>
      <point x="211" y="306" type="curve" smooth="yes"/>
      <point x="322" y="306"/>
      <point x="393" y="372"/>
      <point x="393" y="484" type="curve" smooth="yes"/>
      <point x="393" y="596"/>
      <point x="322" y="662"/>
      <point x="211" y="662" type="curve" smooth="yes"/>
      <point x="101" y="662"/>
      <point x="30" y="596"/>
      <point x="30" y="484" type="curve" smooth="yes"/>
      <point x="30" y="372"/>
      <point x="101" y="306"/>
    </contour>
    <contour>
      <point x="36" y="151" type="line"/>
      <point x="386" y="151" type="line"/>
      <point x="386" y="240" type="line"/>
      <point x="36" y="240" type="line"/>
    </contour>
    <contour>
      <point x="211" y="388" type="curve" smooth="yes"/>
      <point x="173" y="388"/>
      <point x="156" y="417"/>
      <point x="156" y="484" type="curve" smooth="yes"/>
      <point x="156" y="551"/>
      <point x="173" y="580"/>
      <point x="211" y="580" type="curve" smooth="yes"/>
      <point x="250" y="580"/>
      <point x="266" y="551"/>
      <point x="266" y="484" type="curve" smooth="yes"/>
      <point x="266" y="417"/>
      <point x="250" y="388"/>
    </contour>
  </outline>
</glyph>
<glyph name="AE" format="2">
  <advance width="913"/>
  <unicode hex="00C6"/>
  <anchor x="495" y="0" name="bottom"/>
  <anchor x="882" y="0" name="ogonek"/>
  <anchor x="495" y="660" name="top"/>
  <outline>
    <contour>
      <point x="575" y="127" type="line"/>
      <point x="575" y="271" type="line"/>
      <point x="799" y="271" type="line"/>
      <point x="799" y="391" type="line"/>
      <point x="575" y="391" type="line"/>
      <point x="575" y="533" type="line"/>
      <point x="868" y="533" type="line"/>
      <point x="868" y="660" type="line"/>
      <point x="273" y="660" type="line"/>
      <point x="-4" y="0" type="line"/>
      <point x="169" y="0" type="line"/>
      <point x="244" y="196" type="line"/>
      <point x="415" y="196" type="line"/>
      <point x="415" y="0" type="line"/>
      <point x="882" y="0" type="line"/>
      <point x="882" y="127" type="line"/>
    </contour>
    <contour>
      <point x="280" y="308" type="line"/>
      <point x="373" y="538" type="line"/>
      <point x="415" y="538" type="line"/>
      <point x="415" y="308" type="line"/>
    </contour>
  </outline>
</glyph>
<glyph name="Idieresis" format="2">
	<advance width="318"/>
	<unicode hex="00CF"/>
	<anchor x="245" y="0" name="ogonek"/>
	<anchor x="159" y="0" name="bottom"/>
	<anchor x="159" y="660" name="top"/>
	<outline>
		<contour>
			<point x="56" y="870" type="curve" smooth="yes"/>
			<point x="5" y="870"/>
			<point x="-26" y="841"/>
			<point x="-26" y="793" type="curve" smooth="yes"/>
			<point x="-26" y="745"/>
			<point x="5" y="716"/>
			<point x="56" y="716" type="curve" smooth="yes"/>
			<point x="108" y="716"/>
			<point x="140" y="745"/>
			<point x="140" y="793" type="curve" smooth="yes"/>
			<point x="140" y="841"/>
			<point x="108" y="870"/>
		</contour>
		<contour>
			<point x="260" y="870" type="curve" smooth="yes"/>
			<point x="209" y="870"/>
			<point x="178" y="841"/>
			<point x="178" y="793" type="curve" smooth="yes"/>
			<point x="178" y="745"/>
			<point x="209" y="716"/>
			<point x="260" y="716" type="curve" smooth="yes"/>
			<point x="312" y="716"/>
			<point x="344" y="745"/>
			<point x="344" y="793" type="curve" smooth="yes"/>
			<point x="344" y="841"/>
			<point x="312" y="870"/>
		</contour>
		<component base="I"/>
	</outline>
</glyph>
<glyph name="Eth" format="2">
	<unicode hex="00D0"/>
	<advance width="706"/>
	<outline>
		<contour>
			<point x="13" y="270" type="line"/>
			<point x="399" y="270" type="line"/>
			<point x="399" y="390" type="line"/>
			<point x="13" y="390" type="line"/>
		</contour>
		<component base="D"/>
	</outline>
	<anchor name="bottom" x="332" y="0"/>
	<anchor name="center" x="147" y="140"/>
	<anchor name="ogonek" x="353" y="0"/>
	<anchor name="top" x="340" y="660"/>
</glyph>
<glyph name="multiply" format="2">
  <advance width="604"/>
  <unicode hex="00D7"/>
  <outline>
    <contour>
      <point x="458" y="78" type="line"/>
      <point x="54" y="482" type="line"/>
      <point x="146" y="574" type="line"/>
      <point x="550" y="170" type="line"/>
    </contour>
    <contour>
      <point x="146" y="78" type="line"/>
      <point x="54" y="170" type="line"/>
      <point x="458" y="574" type="line"/>
      <point x="550" y="482" type="line"/>
    </contour>
  </outline>
</glyph>
<glyph name="Oslash" format="2">
  <advance width="725"/>
  <unicode hex="00D8"/>
  <anchor x="363" y="0" name="bottom"/>
  <anchor x="363" y="330" name="center"/>
  <anchor x="480" y="8" name="ogonek"/>
  <anchor x="363" y="660" name="top"/>
  <anchor x="21" y="660" name="topleft"/>
  <anchor x="552" y="660" name="topright"/>
  <outline>
    <contour>
      <point x="252" y="113" type="line"/>
      <point x="523" y="486" type="line"/>
      <point x="472" y="524" type="line"/>
      <point x="203" y="154" type="line"/>
    </contour>
    <contour>
      <point x="62" y="-27" type="line"/>
      <point x="142" y="-27" type="line"/>
      <point x="239" y="95" type="line"/>
      <point x="186" y="135" type="line"/>
    </contour>
    <contour>
      <point x="548" y="515" type="line"/>
      <point x="675" y="681" type="line"/>
      <point x="595" y="681" type="line"/>
      <point x="495" y="555" type="line"/>
    </contour>
    <component base="O"/>
  </outline>
</glyph>
<glyph name="Thorn" format="2">
	<advance width="662"/>
	<unicode hex="00DE"/>
	<anchor x="245" y="0" name="ogonek"/>
	<anchor x="159" y="0" name="bottom"/>
	<anchor x="159" y="660" name="top"/>
	<outline>
		<contour>
			<point x="369" y="559" type="curve" smooth="yes"/>
			<point x="159" y="559" type="line"/>
			<point x="159" y="430" type="line"/>
			<point x="349" y="430" type="line" smooth="yes"/>
			<point x="415" y="430"/>
			<point x="450" y="402"/>
			<point x="450" y="338" type="curve" smooth="yes"/>
			<point x="450" y="273"/>
			<point x="416" y="243"/>
			<point x="349" y="243" type="curve" smooth="yes"/>
			<point x="159" y="243" type="line"/>
			<point x="159" y="115" type="line"/>
			<point x="369" y="115" type="line" smooth="yes"/>
			<point x="533" y="115"/>
			<point x="623" y="192"/>
			<point x="623" y="337" type="curve" smooth="yes"/>
			<point x="623" y="483"/>
			<point x="533" y="559"/>
		</contour>
		<contour>
			<point x="245" y="660" type="line"/>
			<point x="73" y="660" type="line"/>
			<point x="73" y="0" type="line"/>
			<point x="245" y="0" type="line"/>
		</contour>
	</outline>
</glyph>
<glyph name="germandbls" format="2">
	<unicode hex="00DF"/>
	<advance width="646"/>
	<outline>
		<contour>
			<point x="437" y="362" type="curve"/>
			<point x="437" y="364" type="line"/>
			<point x="539" y="367"/>
			<point x="596" y="446"/>
			<point x="596" y="529" type="curve" smooth="yes"/>
			<point x="596" y="636"/>
			<point x="509" y="717"/>
			<point x="345" y="717" type="curve" smooth="yes"/>
			<point x="138" y="717"/>
			<point x="61" y="620"/>
			<point x="61" y="461" type="curve" smooth="yes"/>
			<point x="61" y="0" type="line"/>
			<point x="231" y="0" type="line"/>
			<point x="231" y="448" type="line" smooth="yes"/>
			<point x="231" y="549"/>
			<point x="259" y="594"/>
			<point x="339" y="594" type="curve" smooth="yes"/>
			<point x="394" y="594"/>
			<point x="431" y="566"/>
			<point x="431" y="510" type="curve" smooth="yes"/>
			<point x="431" y="457"/>
			<point x="401" y="418"/>
			<point x="341" y="418" type="curve" smooth="yes"/>
			<point x="311" y="418" type="line"/>
			<point x="294" y="299" type="line"/>
			<point x="349" y="299" type="line" smooth="yes"/>
			<point x="416" y="299"/>
			<point x="453" y="267"/>
			<point x="453" y="207" type="curve" smooth="yes"/>
			<point x="453" y="150"/>
			<point x="420" y="112"/>
			<point x="370" y="112" type="curve" smooth="yes"/>
			<point x="335" y="112"/>
			<point x="315" y="122"/>
			<point x="297" y="134" type="curve"/>
			<point x="269" y="22" type="line"/>
			<point x="296" y="4"/>
			<point x="342" y="-10"/>
			<point x="403" y="-10" type="curve" smooth="yes"/>
			<point x="549" y="-10"/>
			<point x="613" y="82"/>
			<point x="613" y="187" type="curve" smooth="yes"/>
			<point x="613" y="286"/>
			<point x="549" y="362"/>
		</contour>
	</outline>
	<anchor name="bottom" x="337" y="0"/>
	<anchor name="ogonek" x="504" y="13"/>
	<anchor name="top" x="337" y="712"/>
</glyph>
<glyph name="ae" format="2">
	<unicode hex="00E6"/>
	<advance width="873"/>
	<outline>
		<contour>
			<point x="207" y="-10" type="curve" smooth="yes"/>
			<point x="334" y="-10"/>
			<point x="410" y="57"/>
			<point x="426" y="142" type="curve"/>
			<point x="390" y="148" type="line"/>
			<point x="417" y="44"/>
			<point x="497" y="-10"/>
			<point x="611" y="-10" type="curve" smooth="yes"/>
			<point x="714" y="-10"/>
			<point x="801" y="36"/>
			<point x="830" y="122" type="curve"/>
			<point x="693" y="167" type="line"/>
			<point x="678" y="131"/>
			<point x="656" y="110"/>
			<point x="609" y="110" type="curve" smooth="yes"/>
			<point x="553" y="110"/>
			<point x="501" y="144"/>
			<point x="501" y="207" type="curve"/>
			<point x="501" y="207" type="line"/>
			<point x="835" y="207" type="line"/>
			<point x="837" y="228"/>
			<point x="839" y="250"/>
			<point x="839" y="273" type="curve" smooth="yes"/>
			<point x="839" y="411"/>
			<point x="756" y="510"/>
			<point x="606" y="510" type="curve" smooth="yes"/>
			<point x="520" y="510"/>
			<point x="447" y="468"/>
			<point x="408" y="397" type="curve"/>
			<point x="463" y="399" type="line"/>
			<point x="445" y="474"/>
			<point x="372" y="510"/>
			<point x="264" y="510" type="curve" smooth="yes"/>
			<point x="136" y="510"/>
			<point x="45" y="441"/>
			<point x="34" y="352" type="curve"/>
			<point x="179" y="318" type="line"/>
			<point x="192" y="374"/>
			<point x="223" y="393"/>
			<point x="263" y="393" type="curve" smooth="yes"/>
			<point x="309" y="393"/>
			<point x="337" y="364"/>
			<point x="337" y="315" type="curve" smooth="yes"/>
			<point x="337" y="302" type="line"/>
			<point x="168" y="268" type="line" smooth="yes"/>
			<point x="83" y="251"/>
			<point x="32" y="201"/>
			<point x="32" y="128" type="curve" smooth="yes"/>
			<point x="32" y="38"/>
			<point x="97" y="-10"/>
		</contour>
		<contour>
			<point x="253" y="99" type="curve" smooth="yes"/>
			<point x="218" y="99"/>
			<point x="199" y="119"/>
			<point x="199" y="144" type="curve" smooth="yes"/>
			<point x="199" y="176"/>
			<point x="216" y="188"/>
			<point x="256" y="197" type="curve" smooth="yes"/>
			<point x="337" y="215" type="line"/>
			<point x="337" y="186" type="line" smooth="yes"/>
			<point x="337" y="130"/>
			<point x="296" y="99"/>
		</contour>
		<contour>
			<point x="501" y="298" type="line"/>
			<point x="511" y="363"/>
			<point x="546" y="391"/>
			<point x="595" y="391" type="curve" smooth="yes"/>
			<point x="644" y="391"/>
			<point x="675" y="356"/>
			<point x="678" y="298" type="curve"/>
		</contour>
	</outline>
	<anchor name="bottom" x="421" y="0"/>
	<anchor name="ogonek" x="704" y="6"/>
	<anchor name="top" x="426" y="500"/>
</glyph>
<glyph name="idieresis" format="2">
	<advance width="291"/>
	<unicode hex="00EF"/>
	<anchor x="231" y="0" name="ogonek"/>
	<anchor x="146" y="0" name="bottom"/>
	<anchor x="146" y="500" name="top"/>
	<outline>
		<contour>
			<point x="242" y="554" type="curve" smooth="yes"/>
			<point x="294" y="554"/>
			<point x="322" y="582"/>
			<point x="322" y="633" type="curve" smooth="yes"/>
			<point x="322" y="684"/>
			<point x="294" y="712"/>
			<point x="242" y="712" type="curve" smooth="yes"/>
			<point x="189" y="712"/>
			<point x="161" y="684"/>
			<point x="161" y="633" type="curve" smooth="yes"/>
			<point x="161" y="582"/>
			<point x="189" y="554"/>
		</contour>
		<contour>
			<point x="49" y="554" type="curve" smooth="yes"/>
			<point x="102" y="554"/>
			<point x="130" y="582"/>
			<point x="130" y="633" type="curve" smooth="yes"/>
			<point x="130" y="684"/>
			<point x="102" y="712"/>
			<point x="49" y="712" type="curve" smooth="yes"/>
			<point x="-3" y="712"/>
			<point x="-31" y="684"/>
			<point x="-31" y="633" type="curve" smooth="yes"/>
			<point x="-31" y="582"/>
			<point x="-3" y="554"/>
		</contour>
		<component base="idotless"/>
	</outline>
</glyph>
<glyph name="eth" format="2">
  <advance width="599"/>
  <unicode hex="00F0"/>
  <anchor x="300" y="0" name="bottom"/>
  <anchor x="406" y="13" name="ogonek"/>
  <anchor x="300" y="712" name="top"/>
  <outline>
    <contour>
      <point x="296" y="-10" type="curve" smooth="yes"/>
      <point x="453" y="-10"/>
      <point x="557" y="104"/>
      <point x="557" y="303" type="curve" smooth="yes"/>
      <point x="557" y="522"/>
      <point x="446" y="658"/>
      <point x="329" y="722" type="curve"/>
      <point x="174" y="722" type="line"/>
      <point x="328" y="619"/>
      <point x="409" y="536"/>
      <point x="428" y="378" type="curve"/>
      <point x="436" y="382" type="line"/>
      <point x="417" y="451"/>
      <point x="366" y="495"/>
      <point x="277" y="495" type="curve" smooth="yes"/>
      <point x="140" y="495"/>
      <point x="41" y="402"/>
      <point x="41" y="243" type="curve" smooth="yes"/>
      <point x="41" y="83"/>
      <point x="137" y="-10"/>
    </contour>
    <contour>
      <point x="302" y="111" type="curve" smooth="yes"/>
      <point x="243" y="111"/>
      <point x="213" y="154"/>
      <point x="213" y="243" type="curve" smooth="yes"/>
      <point x="213" y="339"/>
      <point x="243" y="383"/>
      <point x="304" y="383" type="curve" smooth="yes"/>
      <point x="366" y="383"/>
      <point x="396" y="340"/>
      <point x="396" y="243" type="curve" smooth="yes"/>
      <point x="396" y="159"/>
      <point x="366" y="111"/>
    </contour>
    <contour>
      <point x="190" y="539" type="line"/>
      <point x="380" y="580" type="line"/>
      <point x="353" y="634" type="line"/>
      <point x="178" y="600" type="line"/>
    </contour>
    <contour>
      <point x="415" y="586" type="line"/>
      <point x="563" y="615" type="line"/>
      <point x="549" y="673" type="line"/>
      <point x="392" y="640" type="line"/>
    </contour>
  </outline>
</glyph>
<glyph name="divide" format="2">
	<unicode hex="00F7"/>
	<advance width="624"/>
	<outline>
		<contour>
			<point x="564" y="386" type="line"/>
			<point x="60" y="386" type="line"/>
			<point x="60" y="264" type="line"/>
			<point x="564" y="264" type="line"/>
		</contour>
		<contour>
			<point x="312.599" y="27.74" type="curve" smooth="yes"/>
			<point x="366.303" y="27.74"/>
			<point x="399.219" y="58.945"/>
			<point x="399.219" y="110.342" type="curve" smooth="yes"/>
			<point x="399.219" y="162.656"/>
			<point x="366.303" y="193.862"/>
			<point x="312.599" y="193.862" type="curve" smooth="yes"/>
			<point x="258.895" y="193.862"/>
			<point x="225.979" y="162.656"/>
			<point x="225.979" y="110.342" type="curve" smooth="yes"/>
			<point x="225.979" y="58.945"/>
			<point x="258.895" y="27.74"/>
		</contour>
		<contour>
			<point x="312.599" y="457.74" type="curve" smooth="yes"/>
			<point x="366.303" y="457.74"/>
			<point x="399.219" y="488.945"/>
			<point x="399.219" y="540.342" type="curve" smooth="yes"/>
			<point x="399.219" y="592.656"/>
			<point x="366.303" y="623.862"/>
			<point x="312.599" y="623.862" type="curve" smooth="yes"/>
			<point x="258.895" y="623.862"/>
			<point x="225.979" y="592.656"/>
			<point x="225.979" y="540.342" type="curve" smooth="yes"/>
			<point x="225.979" y="488.945"/>
			<point x="258.895" y="457.74"/>
		</contour>
	</outline>
	<anchor name="_center" x="225.979" y="110.342"/>
</glyph>
<glyph name="thorn" format="2">
	<advance width="622"/>
	<unicode hex="00FE"/>
	<anchor x="470" y="13" name="ogonek"/>
	<anchor x="146" y="-210" name="bottom"/>
	<anchor x="146" y="712" name="top"/>
	<outline>
		<contour>
			<point x="61" y="-210" type="line"/>
			<point x="231" y="-210" type="line"/>
			<point x="231" y="157" type="line"/>
			<point x="215" y="133" type="line"/>
			<point x="233" y="51"/>
			<point x="288" y="-10"/>
			<point x="379" y="-10" type="curve" smooth="yes"/>
			<point x="500" y="-10"/>
			<point x="583" y="86"/>
			<point x="583" y="248" type="curve" smooth="yes"/>
			<point x="583" y="414"/>
			<point x="500" y="510"/>
			<point x="386" y="510" type="curve" smooth="yes"/>
			<point x="290" y="510"/>
			<point x="233" y="449"/>
			<point x="215" y="367" type="curve"/>
			<point x="231" y="361" type="line"/>
			<point x="231" y="712" type="line"/>
			<point x="61" y="712" type="line"/>
		</contour>
		<contour>
			<point x="321" y="115" type="curve" smooth="yes"/>
			<point x="263" y="115"/>
			<point x="231" y="166"/>
			<point x="231" y="250" type="curve" smooth="yes"/>
			<point x="231" y="337"/>
			<point x="266" y="385"/>
			<point x="322" y="385" type="curve" smooth="yes"/>
			<point x="378" y="385"/>
			<point x="412" y="342"/>
			<point x="412" y="250" type="curve" smooth="yes"/>
			<point x="412" y="158"/>
			<point x="377" y="115"/>
		</contour>
	</outline>
</glyph>
<glyph name="OE" format="2">
  <advance width="1037"/>
  <unicode hex="0152"/>
  <anchor x="571" y="0" name="bottom"/>
  <anchor x="1006" y="0" name="ogonek"/>
  <anchor x="571" y="660" name="top"/>
  <outline>
    <contour>
      <point x="668" y="133" type="line"/>
      <point x="668" y="268" type="line"/>
      <point x="923" y="268" type="line"/>
      <point x="923" y="393" type="line"/>
      <point x="668" y="393" type="line"/>
      <point x="668" y="527" type="line"/>
      <point x="993" y="527" type="line"/>
      <point x="993" y="660" type="line"/>
      <point x="553" y="660" type="line"/>
      <point x="553" y="582" type="line"/>
      <point x="506" y="637"/>
      <point x="437" y="670"/>
      <point x="352" y="670" type="curve" smooth="yes"/>
      <point x="163" y="670"/>
      <point x="45" y="543"/>
      <point x="45" y="330" type="curve" smooth="yes"/>
      <point x="45" y="117"/>
      <point x="164" y="-10"/>
      <point x="350" y="-10" type="curve" smooth="yes"/>
      <point x="436" y="-10"/>
      <point x="505" y="23"/>
      <point x="553" y="79" type="curve"/>
      <point x="553" y="0" type="line"/>
      <point x="1006" y="0" type="line"/>
      <point x="1006" y="133" type="line"/>
    </contour>
    <contour>
      <point x="359" y="125" type="curve" smooth="yes"/>
      <point x="267" y="125"/>
      <point x="218" y="195"/>
      <point x="218" y="330" type="curve" smooth="yes"/>
      <point x="218" y="465"/>
      <point x="267" y="535"/>
      <point x="359" y="535" type="curve" smooth="yes"/>
      <point x="448" y="535"/>
      <point x="499" y="465"/>
      <point x="499" y="330" type="curve" smooth="yes"/>
      <point x="499" y="195"/>
      <point x="448" y="125"/>
    </contour>
  </outline>
</glyph>
<glyph name="oe" format="2">
  <advance width="938"/>
  <unicode hex="0153"/>
  <anchor x="478" y="0" name="bottom"/>
  <anchor x="478" y="500" name="top"/>
  <outline>
    <contour>
      <point x="290" y="-10" type="curve" smooth="yes"/>
      <point x="391" y="-10"/>
      <point x="467" y="34"/>
      <point x="503" y="117" type="curve"/>
      <point x="453" y="117" type="line"/>
      <point x="489" y="34"/>
      <point x="565" y="-10"/>
      <point x="666" y="-10" type="curve" smooth="yes"/>
      <point x="772" y="-10"/>
      <point x="865" y="35"/>
      <point x="894" y="122" type="curve"/>
      <point x="758" y="167" type="line"/>
      <point x="743" y="131"/>
      <point x="714" y="110"/>
      <point x="665" y="110" type="curve" smooth="yes"/>
      <point x="597" y="110"/>
      <point x="558" y="148"/>
      <point x="558" y="248" type="curve" smooth="yes"/>
      <point x="558" y="347"/>
      <point x="593" y="391"/>
      <point x="657" y="391" type="curve" smooth="yes"/>
      <point x="709" y="391"/>
      <point x="739" y="357"/>
      <point x="743" y="294" type="curve"/>
      <point x="506" y="294" type="line"/>
      <point x="506" y="214" type="line"/>
      <point x="899" y="214" type="line"/>
      <point x="902" y="228"/>
      <point x="904" y="250"/>
      <point x="904" y="273" type="curve" smooth="yes"/>
      <point x="904" y="412"/>
      <point x="811" y="510"/>
      <point x="663" y="510" type="curve" smooth="yes"/>
      <point x="564" y="510"/>
      <point x="489" y="465"/>
      <point x="452" y="380" type="curve"/>
      <point x="503" y="381" type="line"/>
      <point x="467" y="466"/>
      <point x="390" y="510"/>
      <point x="290" y="510" type="curve" smooth="yes"/>
      <point x="148" y="510"/>
      <point x="35" y="414"/>
      <point x="35" y="250" type="curve" smooth="yes"/>
      <point x="35" y="86"/>
      <point x="148" y="-10"/>
    </contour>
    <contour>
      <point x="298" y="111" type="curve" smooth="yes"/>
      <point x="240" y="111"/>
      <point x="206" y="152"/>
      <point x="206" y="250" type="curve" smooth="yes"/>
      <point x="206" y="348"/>
      <point x="240" y="389"/>
      <point x="298" y="389" type="curve" smooth="yes"/>
      <point x="356" y="389"/>
      <point x="390" y="347"/>
      <point x="390" y="250" type="curve" smooth="yes"/>
      <point x="390" y="153"/>
      <point x="356" y="111"/>
    </contour>
  </outline>
</glyph>
<glyph name="jdotless" format="2">
	<unicode hex="0237"/>
	<advance width="291"/>
	<outline>
		<contour>
			<point x="37" y="-215" type="curve" smooth="yes"/>
			<point x="157" y="-215"/>
			<point x="231" y="-163"/>
			<point x="231" y="-28" type="curve" smooth="yes"/>
			<point x="231" y="500" type="line"/>
			<point x="61" y="500" type="line"/>
			<point x="61" y="-13" type="line" smooth="yes"/>
			<point x="61" y="-72"/>
			<point x="34" y="-92"/>
			<point x="-6" y="-92" type="curve" smooth="yes"/>
			<point x="-34" y="-92"/>
			<point x="-55" y="-84"/>
			<point x="-70" y="-73" type="curve"/>
			<point x="-94" y="-183" type="line"/>
			<point x="-60" y="-204"/>
			<point x="-17" y="-215"/>
		</contour>
	</outline>
	<anchor name="top" x="146" y="500"/>
</glyph>
<glyph name="gravecomb" format="2">
	<unicode hex="0300"/>
	<outline>
		<contour>
			<point x="0" y="738" type="line"/>
			<point x="-158" y="738" type="line"/>
			<point x="-57" y="565" type="line"/>
			<point x="67" y="565" type="line"/>
		</contour>
	</outline>
	<anchor name="_top" x="0" y="500"/>
	<anchor name="top" x="0" y="737"/>
</glyph>
<glyph name="acutecomb" format="2">
  <unicode hex="0301"/>
  <anchor x="0" y="500" name="_top"/>
  <anchor x="0" y="723" name="top"/>
  <outline>
    <contour>
      <point x="-10" y="738" type="line"/>
      <point x="-77" y="565" type="line"/>
      <point x="47" y="565" type="line"/>
      <point x="148" y="738" type="line"/>
    </contour>
  </outline>
</glyph>
<glyph name="circumflexcomb" format="2">
  <unicode hex="0302"/>
  <anchor x="0" y="500" name="_top"/>
  <anchor x="0" y="690" name="top"/>
  <outline>
    <contour>
      <point x="191" y="559" type="line"/>
      <point x="82" y="732" type="line"/>
      <point x="-82" y="732" type="line"/>
      <point x="-191" y="559" type="line"/>
      <point x="-69" y="559" type="line"/>
      <point x="0" y="647" type="line"/>
      <point x="69" y="559" type="line"/>
    </contour>
  </outline>
</glyph>
<glyph name="tildecomb" format="2">
	<advance width="0"/>
	<unicode hex="0303"/>
	<anchor x="0" y="706" name="top"/>
	<anchor x="0" y="500" name="_top"/>
	<outline>
		<contour>
			<point x="198" y="718" type="curve"/>
			<point x="102" y="718" type="line"/>
			<point x="97" y="681"/>
			<point x="87" y="662"/>
			<point x="64" y="662" type="curve" smooth="yes"/>
			<point x="26" y="662"/>
			<point x="5" y="719"/>
			<point x="-68" y="719" type="curve" smooth="yes"/>
			<point x="-143" y="719"/>
			<point x="-194" y="667"/>
			<point x="-199" y="560" type="curve"/>
			<point x="-103" y="560" type="line"/>
			<point x="-98" y="597"/>
			<point x="-88" y="616"/>
			<point x="-65" y="616" type="curve" smooth="yes"/>
			<point x="-26" y="616"/>
			<point x="0" y="559"/>
			<point x="75" y="559" type="curve" smooth="yes"/>
			<point x="142" y="559"/>
			<point x="193" y="611"/>
		</contour>
	</outline>
</glyph>
<glyph name="macroncomb" format="2">
	<unicode hex="0304"/>
	<outline>
		<contour>
			<point x="182" y="674" type="line"/>
			<point x="-182" y="674" type="line"/>
			<point x="-182" y="569" type="line"/>
			<point x="182" y="569" type="line"/>
		</contour>
	</outline>
	<anchor name="_top" x="0" y="500"/>
	<anchor name="top" x="0" y="672"/>
</glyph>
<glyph name="brevecomb" format="2">
	<advance width="0"/>
	<unicode hex="0306"/>
	<anchor x="0" y="676" name="top"/>
	<anchor x="0" y="500" name="_top"/>
	<anchor x="0" y="679" name="top_viet"/>
	<outline>
		<contour>
			<point x="169" y="718" type="curve"/>
			<point x="60" y="718" type="line"/>
			<point x="59" y="677"/>
			<point x="40" y="650"/>
			<point x="0" y="650" type="curve" smooth="yes"/>
			<point x="-40" y="650"/>
			<point x="-59" y="677"/>
			<point x="-60" y="718" type="curve"/>
			<point x="-169" y="718" type="line"/>
			<point x="-169" y="617"/>
			<point x="-104" y="555"/>
			<point x="0" y="555" type="curve" smooth="yes"/>
			<point x="104" y="555"/>
			<point x="169" y="617"/>
		</contour>
	</outline>
</glyph>
<glyph name="dotaccentcomb" format="2">
	<advance width="0"/>
	<unicode hex="0307"/>
	<anchor x="1" y="698" name="top"/>
	<anchor x="0" y="500" name="_top"/>
	<outline>
		<contour>
			<point x="0" y="722" type="curve" smooth="yes"/>
			<point x="-59" y="722"/>
			<point x="-91" y="694"/>
			<point x="-91" y="642" type="curve" smooth="yes"/>
			<point x="-91" y="589"/>
			<point x="-59" y="561"/>
			<point x="0" y="561" type="curve" smooth="yes"/>
			<point x="61" y="561"/>
			<point x="93" y="589"/>
			<point x="93" y="642" type="curve" smooth="yes"/>
			<point x="93" y="694"/>
			<point x="61" y="722"/>
		</contour>
	</outline>
</glyph>
<glyph name="dieresiscomb" format="2">
  <unicode hex="0308"/>
  <anchor x="0" y="500" name="_top"/>
  <anchor x="0" y="690" name="top"/>
  <outline>
    <contour>
      <point x="-111" y="710" type="curve" smooth="yes"/>
      <point x="-163" y="710"/>
      <point x="-195" y="681"/>
      <point x="-195" y="633" type="curve" smooth="yes"/>
      <point x="-195" y="585"/>
      <point x="-163" y="556"/>
      <point x="-111" y="556" type="curve" smooth="yes"/>
      <point x="-57" y="556"/>
      <point x="-25" y="585"/>
      <point x="-25" y="633" type="curve" smooth="yes"/>
      <point x="-25" y="681"/>
      <point x="-57" y="710"/>
    </contour>
    <contour>
      <point x="109" y="710" type="curve" smooth="yes"/>
      <point x="56" y="710"/>
      <point x="25" y="681"/>
      <point x="25" y="633" type="curve" smooth="yes"/>
      <point x="25" y="585"/>
      <point x="56" y="556"/>
      <point x="109" y="556" type="curve" smooth="yes"/>
      <point x="163" y="556"/>
      <point x="195" y="585"/>
      <point x="195" y="633" type="curve" smooth="yes"/>
      <point x="195" y="681"/>
      <point x="163" y="710"/>
    </contour>
  </outline>
</glyph>
<glyph name="ringcomb" format="2">
  <unicode hex="030A"/>
  <anchor x="0" y="500" name="_top"/>
  <anchor x="10" y="778" name="top"/>
  <outline>
    <contour>
      <point x="-1" y="802" type="curve" smooth="yes"/>
      <point x="-86" y="802"/>
      <point x="-141" y="753"/>
      <point x="-141" y="677" type="curve" smooth="yes"/>
      <point x="-141" y="600"/>
      <point x="-86" y="551"/>
      <point x="-1" y="551" type="curve" smooth="yes"/>
      <point x="83" y="551"/>
      <point x="138" y="600"/>
      <point x="138" y="677" type="curve" smooth="yes"/>
      <point x="138" y="753"/>
      <point x="83" y="802"/>
    </contour>
    <contour>
      <point x="-1" y="729" type="curve" smooth="yes"/>
      <point x="31" y="729"/>
      <point x="52" y="708"/>
      <point x="52" y="677" type="curve" smooth="yes"/>
      <point x="52" y="646"/>
      <point x="31" y="624"/>
      <point x="-1" y="624" type="curve" smooth="yes"/>
      <point x="-33" y="624"/>
      <point x="-55" y="646"/>
      <point x="-55" y="677" type="curve" smooth="yes"/>
      <point x="-55" y="708"/>
      <point x="-33" y="729"/>
    </contour>
  </outline>
</glyph>
<glyph name="cedillacomb" format="2">
  <unicode hex="0327"/>
  <anchor x="-2" y="0" name="_bottom"/>
  <anchor x="-24" y="-215" name="bottom"/>
  <outline>
    <contour>
      <point x="-77" y="10" type="line"/>
      <point x="-5" y="-13"/>
      <point x="19" y="-35"/>
      <point x="19" y="-66" type="curve" smooth="yes"/>
      <point x="19" y="-102"/>
      <point x="-5" y="-123"/>
      <point x="-39" y="-123" type="curve" smooth="yes"/>
      <point x="-66" y="-123"/>
      <point x="-84" y="-115"/>
      <point x="-99" y="-105" type="curve"/>
      <point x="-127" y="-186" type="line"/>
      <point x="-103" y="-202"/>
      <point x="-75" y="-215"/>
      <point x="-24" y="-215" type="curve" smooth="yes"/>
      <point x="62" y="-215"/>
      <point x="116" y="-165"/>
      <point x="116" y="-90" type="curve" smooth="yes"/>
      <point x="116" y="-20"/>
      <point x="68" y="22"/>
      <point x="-36" y="37" type="curve"/>
    </contour>
  </outline>
</glyph>
<glyph name="slashlongcomb" format="2">
	<unicode hex="0338"/>
	<outline>
		<contour>
			<point x="46" y="-25" type="line"/>
			<point x="113" y="-25" type="line"/>
			<point x="556" y="524" type="line"/>
			<point x="489" y="524" type="line"/>
		</contour>
	</outline>
	<anchor name="_center" x="301" y="250"/>
</glyph>
<glyph name="ka-khmer" format="2">
  <advance width="646"/>
  <unicode hex="1780"/>
  <anchor x="323" y="0" name="bottom"/>
  <anchor x="570" y="0" name="bottomright"/>
  <anchor x="323" y="606" name="top"/>
  <anchor x="570" y="606" name="topright"/>
  <outline>
    <contour>
      <point x="76" y="236" type="curve" smooth="yes"/>
      <point x="76" y="0" type="line"/>
      <point x="246" y="0" type="line"/>
      <point x="246" y="236" type="line" smooth="yes"/>
      <point x="246" y="280"/>
      <point x="277" y="306"/>
      <point x="323" y="306" type="curve" smooth="yes"/>
      <point x="369" y="306"/>
      <point x="400" y="280"/>
      <point x="400" y="236" type="curve" smooth="yes"/>
      <point x="400" y="0" type="line"/>
      <point x="570" y="0" type="line"/>
      <point x="570" y="236" type="line" smooth="yes"/>
      <point x="570" y="357"/>
      <point x="477" y="426"/>
      <point x="323" y="426" type="curve" smooth="yes"/>
      <point x="169" y="426"/>
      <point x="76" y="357"/>
    </contour>
    <contour>
      <point x="72" y="478" type="line"/>
      <point x="574" y="478" type="line"/>
      <point x="574" y="606" type="line"/>
      <point x="72" y="606" type="line"/>
    </contour>
  </outline>
</glyph>
<glyph name="kha-khmer" format="2">
  <advance width="592"/>
  <unicode hex="1781"/>
  <anchor x="296" y="0" name="bottom"/>
  <anchor x="518" y="0" name="bottomright"/>
  <anchor x="292" y="606" name="top"/>
  <anchor x="534" y="606" name="topright"/>
  <outline>
    <contour>
      <point x="293" y="-10" type="curve" smooth="yes"/>
      <point x="448" y="-10"/>
      <point x="530" y="50"/>
      <point x="530" y="145" type="curve" smooth="yes"/>
      <point x="530" y="181"/>
      <point x="521" y="204"/>
      <point x="511" y="229" type="curve"/>
      <point x="354" y="192" type="line"/>
      <point x="360" y="182"/>
      <point x="364" y="169"/>
      <point x="364" y="158" type="curve" smooth="yes"/>
      <point x="364" y="127"/>
      <point x="333" y="108"/>
      <point x="294" y="108" type="curve" smooth="yes"/>
      <point x="255" y="108"/>
      <point x="228" y="127"/>
      <point x="228" y="156" type="curve" smooth="yes"/>
      <point x="228" y="197" type="line"/>
      <point x="368" y="216"/>
      <point x="544" y="261"/>
      <point x="544" y="430" type="curve" smooth="yes"/>
      <point x="544" y="558"/>
      <point x="442" y="616"/>
      <point x="290" y="616" type="curve" smooth="yes"/>
      <point x="147" y="616"/>
      <point x="54" y="564"/>
      <point x="54" y="458" type="curve" smooth="yes"/>
      <point x="54" y="376"/>
      <point x="109" y="336"/>
      <point x="200" y="336" type="curve" smooth="yes"/>
      <point x="230" y="336"/>
      <point x="258" y="341"/>
      <point x="273" y="346" type="curve"/>
      <point x="273" y="430" type="line"/>
      <point x="267" y="428"/>
      <point x="257" y="425"/>
      <point x="248" y="425" type="curve" smooth="yes"/>
      <point x="232" y="425"/>
      <point x="220" y="436"/>
      <point x="220" y="452" type="curve" smooth="yes"/>
      <point x="220" y="479"/>
      <point x="247" y="498"/>
      <point x="290" y="498" type="curve" smooth="yes"/>
      <point x="342" y="498"/>
      <point x="376" y="467"/>
      <point x="376" y="415" type="curve" smooth="yes"/>
      <point x="376" y="313"/>
      <point x="248" y="297"/>
      <point x="60" y="283" type="curve"/>
      <point x="60" y="153" type="line" smooth="yes"/>
      <point x="60" y="49"/>
      <point x="141" y="-10"/>
    </contour>
  </outline>
</glyph>
<glyph name="ko-khmer" format="2">
	<advance width="646"/>
	<unicode hex="1782"/>
	<anchor x="323" y="606" name="top"/>
	<anchor x="570" y="606" name="topright"/>
	<anchor x="570" y="0" name="bottomright"/>
	<anchor x="323" y="0" name="bottom"/>
	<outline>
		<contour>
			<point x="76" y="236" type="curve" smooth="yes"/>
			<point x="76" y="0" type="line"/>
			<point x="246" y="0" type="line"/>
			<point x="246" y="52" type="line"/>
			<point x="264" y="97"/>
			<point x="297" y="108"/>
			<point x="349" y="108" type="curve" smooth="yes"/>
			<point x="360" y="108" type="line"/>
			<point x="360" y="214" type="line"/>
			<point x="349" y="214" type="line" smooth="yes"/>
			<point x="276" y="214"/>
			<point x="243" y="172"/>
			<point x="234" y="114" type="curve"/>
			<point x="246" y="114" type="line"/>
			<point x="246" y="236" type="line" smooth="yes"/>
			<point x="246" y="280"/>
			<point x="277" y="306"/>
			<point x="323" y="306" type="curve" smooth="yes"/>
			<point x="369" y="306"/>
			<point x="400" y="280"/>
			<point x="400" y="236" type="curve" smooth="yes"/>
			<point x="400" y="0" type="line"/>
			<point x="570" y="0" type="line"/>
			<point x="570" y="236" type="line" smooth="yes"/>
			<point x="570" y="357"/>
			<point x="477" y="426"/>
			<point x="323" y="426" type="curve" smooth="yes"/>
			<point x="169" y="426"/>
			<point x="76" y="357"/>
		</contour>
		<contour>
			<point x="72" y="478" type="line"/>
			<point x="574" y="478" type="line"/>
			<point x="574" y="606" type="line"/>
			<point x="72" y="606" type="line"/>
		</contour>
	</outline>
</glyph>
<glyph name="kho-khmer" format="2">
	<unicode hex="1783"/>
	<advance width="954"/>
	<outline>
		<contour>
			<point x="300" y="-10" type="curve" smooth="yes"/>
			<point x="382" y="-10"/>
			<point x="447" y="17"/>
			<point x="495" y="87" type="curve"/>
			<point x="459" y="87" type="line"/>
			<point x="505" y="18"/>
			<point x="569" y="-10"/>
			<point x="655" y="-10" type="curve" smooth="yes"/>
			<point x="794" y="-10"/>
			<point x="878" y="59"/>
			<point x="878" y="180" type="curve" smooth="yes"/>
			<point x="878" y="364" type="line" smooth="yes"/>
			<point x="878" y="411"/>
			<point x="860" y="432"/>
			<point x="818" y="448" type="curve"/>
			<point x="818" y="458" type="line" smooth="yes"/>
			<point x="818" y="471"/>
			<point x="825" y="478"/>
			<point x="836" y="478" type="curve" smooth="yes"/>
			<point x="884" y="478" type="line"/>
			<point x="884" y="606" type="line"/>
			<point x="779" y="606" type="line" smooth="yes"/>
			<point x="711" y="606"/>
			<point x="676" y="569"/>
			<point x="676" y="498" type="curve" smooth="yes"/>
			<point x="676" y="425" type="line"/>
			<point x="696" y="417"/>
			<point x="708" y="402"/>
			<point x="708" y="368" type="curve" smooth="yes"/>
			<point x="708" y="180" type="line" smooth="yes"/>
			<point x="708" y="136"/>
			<point x="679" y="110"/>
			<point x="636" y="110" type="curve" smooth="yes"/>
			<point x="591" y="110"/>
			<point x="562" y="136"/>
			<point x="562" y="180" type="curve" smooth="yes"/>
			<point x="562" y="364" type="line" smooth="yes"/>
			<point x="562" y="411"/>
			<point x="544" y="432"/>
			<point x="502" y="448" type="curve"/>
			<point x="502" y="458" type="line" smooth="yes"/>
			<point x="502" y="471"/>
			<point x="509" y="478"/>
			<point x="520" y="478" type="curve" smooth="yes"/>
			<point x="568" y="478" type="line"/>
			<point x="568" y="606" type="line"/>
			<point x="463" y="606" type="line" smooth="yes"/>
			<point x="395" y="606"/>
			<point x="360" y="569"/>
			<point x="360" y="498" type="curve" smooth="yes"/>
			<point x="360" y="425" type="line"/>
			<point x="380" y="417"/>
			<point x="392" y="402"/>
			<point x="392" y="368" type="curve" smooth="yes"/>
			<point x="392" y="180" type="line" smooth="yes"/>
			<point x="392" y="136"/>
			<point x="363" y="110"/>
			<point x="319" y="110" type="curve" smooth="yes"/>
			<point x="275" y="110"/>
			<point x="246" y="136"/>
			<point x="246" y="180" type="curve" smooth="yes"/>
			<point x="246" y="292" type="line"/>
			<point x="279" y="439" type="line"/>
			<point x="279" y="544" type="line" smooth="yes"/>
			<point x="279" y="585"/>
			<point x="246" y="612"/>
			<point x="159" y="612" type="curve" smooth="yes"/>
			<point x="80" y="612"/>
			<point x="42" y="581"/>
			<point x="42" y="519" type="curve" smooth="yes"/>
			<point x="42" y="459"/>
			<point x="78" y="430"/>
			<point x="142" y="430" type="curve" smooth="yes"/>
			<point x="155" y="430" type="line"/>
			<point x="112" y="439" type="line"/>
			<point x="76" y="292" type="line"/>
			<point x="76" y="180" type="line" smooth="yes"/>
			<point x="76" y="59"/>
			<point x="160" y="-10"/>
		</contour>
		<contour>
			<point x="138" y="556" type="curve"/>
			<point x="138" y="486" type="line"/>
			<point x="118" y="486"/>
			<point x="106" y="498"/>
			<point x="106" y="521" type="curve" smooth="yes"/>
			<point x="106" y="544"/>
			<point x="118" y="556"/>
		</contour>
	</outline>
	<anchor name="bottom" x="636" y="0"/>
	<anchor name="bottomright" x="868" y="0"/>
	<anchor name="top" x="636" y="606"/>
	<anchor name="topright" x="878" y="606"/>
</glyph>
<glyph name="ngo-khmer" format="2">
	<advance width="626"/>
	<unicode hex="1784"/>
	<anchor x="313" y="606" name="top"/>
	<anchor x="546" y="606" name="topright"/>
	<anchor x="570" y="0" name="bottomright"/>
	<anchor x="323" y="0" name="bottom"/>
	<outline>
		<contour>
			<point x="77" y="0" type="line"/>
			<point x="233" y="0" type="line"/>
			<point x="323" y="91" type="line"/>
			<point x="414" y="0" type="line"/>
			<point x="570" y="0" type="line"/>
			<point x="570" y="344" type="line" smooth="yes"/>
			<point x="570" y="396"/>
			<point x="554" y="430"/>
			<point x="481" y="458" type="curve"/>
			<point x="361" y="400" type="line"/>
			<point x="400" y="384"/>
			<point x="400" y="366"/>
			<point x="400" y="344" type="curve" smooth="yes"/>
			<point x="400" y="150" type="line"/>
			<point x="323" y="223" type="line"/>
			<point x="247" y="150" type="line"/>
			<point x="247" y="312" type="line"/>
			<point x="30" y="312" type="line"/>
			<point x="30" y="212" type="line"/>
			<point x="77" y="212" type="line"/>
		</contour>
		<contour>
			<point x="244" y="359" type="curve" smooth="yes"/>
			<point x="352" y="359"/>
			<point x="421" y="405"/>
			<point x="439" y="421" type="curve"/>
			<point x="487" y="426"/>
			<point x="544" y="454"/>
			<point x="544" y="519" type="curve" smooth="yes"/>
			<point x="544" y="577"/>
			<point x="501" y="612"/>
			<point x="427" y="612" type="curve" smooth="yes"/>
			<point x="353" y="612"/>
			<point x="310" y="578"/>
			<point x="310" y="519" type="curve" smooth="yes"/>
			<point x="310" y="469"/>
			<point x="347" y="432"/>
			<point x="397" y="432" type="curve"/>
			<point x="377" y="501" type="line"/>
			<point x="344" y="463"/>
			<point x="318" y="448"/>
			<point x="282" y="448" type="curve" smooth="yes"/>
			<point x="248" y="448"/>
			<point x="228" y="465"/>
			<point x="228" y="492" type="curve" smooth="yes"/>
			<point x="228" y="515"/>
			<point x="242" y="534"/>
			<point x="242" y="567" type="curve" smooth="yes"/>
			<point x="242" y="612"/>
			<point x="216" y="634"/>
			<point x="155" y="634" type="curve" smooth="yes"/>
			<point x="50" y="634" type="line"/>
			<point x="50" y="544" type="line"/>
			<point x="67" y="544" type="line" smooth="yes"/>
			<point x="78" y="544"/>
			<point x="85" y="543"/>
			<point x="85" y="531" type="curve" smooth="yes"/>
			<point x="85" y="515"/>
			<point x="71" y="482"/>
			<point x="71" y="453" type="curve" smooth="yes"/>
			<point x="71" y="390"/>
			<point x="136" y="359"/>
		</contour>
		<contour>
			<point x="427" y="492" type="curve" smooth="yes"/>
			<point x="413" y="492"/>
			<point x="403" y="502"/>
			<point x="403" y="517" type="curve" smooth="yes"/>
			<point x="403" y="532"/>
			<point x="413" y="542"/>
			<point x="427" y="542" type="curve" smooth="yes"/>
			<point x="441" y="542"/>
			<point x="451" y="532"/>
			<point x="451" y="517" type="curve" smooth="yes"/>
			<point x="451" y="502"/>
			<point x="441" y="492"/>
		</contour>
	</outline>
</glyph>
<glyph name="ca-khmer" format="2">
	<advance width="646"/>
	<unicode hex="1785"/>
	<anchor x="323" y="606" name="top"/>
	<anchor x="570" y="606" name="topright"/>
	<anchor x="568" y="0" name="bottomright"/>
	<anchor x="323" y="0" name="bottom"/>
	<outline>
		<contour>
			<point x="323" y="-10" type="curve" smooth="yes"/>
			<point x="477" y="-10"/>
			<point x="570" y="59"/>
			<point x="570" y="180" type="curve" smooth="yes"/>
			<point x="570" y="354" type="line" smooth="yes"/>
			<point x="570" y="400"/>
			<point x="532" y="422"/>
			<point x="449" y="422" type="curve" smooth="yes"/>
			<point x="365" y="422"/>
			<point x="329" y="391"/>
			<point x="329" y="329" type="curve" smooth="yes"/>
			<point x="329" y="269"/>
			<point x="362" y="240"/>
			<point x="428" y="240" type="curve" smooth="yes"/>
			<point x="441" y="240" type="line"/>
			<point x="400" y="278" type="line"/>
			<point x="400" y="180" type="line" smooth="yes"/>
			<point x="400" y="136"/>
			<point x="369" y="110"/>
			<point x="323" y="110" type="curve" smooth="yes"/>
			<point x="276" y="110"/>
			<point x="246" y="136"/>
			<point x="246" y="180" type="curve" smooth="yes"/>
			<point x="246" y="366" type="line" smooth="yes"/>
			<point x="246" y="412"/>
			<point x="230" y="432"/>
			<point x="203" y="448" type="curve"/>
			<point x="203" y="456" type="line" smooth="yes"/>
			<point x="203" y="477"/>
			<point x="217" y="478"/>
			<point x="224" y="478" type="curve" smooth="yes"/>
			<point x="574" y="478" type="line"/>
			<point x="574" y="606" type="line"/>
			<point x="165" y="606" type="line" smooth="yes"/>
			<point x="87" y="606"/>
			<point x="45" y="566"/>
			<point x="45" y="488" type="curve" smooth="yes"/>
			<point x="45" y="427" type="line"/>
			<point x="65" y="416"/>
			<point x="76" y="400"/>
			<point x="76" y="368" type="curve" smooth="yes"/>
			<point x="76" y="180" type="line" smooth="yes"/>
			<point x="76" y="59"/>
			<point x="167" y="-10"/>
		</contour>
		<contour>
			<point x="424" y="366" type="curve"/>
			<point x="424" y="296" type="line"/>
			<point x="404" y="296"/>
			<point x="392" y="308"/>
			<point x="392" y="331" type="curve" smooth="yes"/>
			<point x="392" y="354"/>
			<point x="404" y="366"/>
		</contour>
	</outline>
</glyph>
<glyph name="cha-khmer" format="2">
	<unicode hex="1786"/>
	<advance width="645"/>
	<outline>
		<contour>
			<point x="95" y="0" type="curve"/>
			<point x="246" y="0" type="line"/>
			<point x="246" y="366" type="line" smooth="yes"/>
			<point x="246" y="412"/>
			<point x="229" y="432"/>
			<point x="202" y="448" type="curve"/>
			<point x="202" y="456" type="line" smooth="yes"/>
			<point x="202" y="477"/>
			<point x="216" y="478"/>
			<point x="224" y="478" type="curve" smooth="yes"/>
			<point x="573" y="478" type="line"/>
			<point x="573" y="606" type="line"/>
			<point x="164" y="606" type="line" smooth="yes"/>
			<point x="86" y="606"/>
			<point x="44" y="566"/>
			<point x="44" y="488" type="curve" smooth="yes"/>
			<point x="44" y="427" type="line"/>
			<point x="65" y="416"/>
			<point x="76" y="399"/>
			<point x="76" y="368" type="curve" smooth="yes"/>
			<point x="76" y="196" type="line"/>
			<point x="51" y="179"/>
			<point x="38" y="158"/>
			<point x="38" y="122" type="curve" smooth="yes"/>
			<point x="38" y="74"/>
			<point x="58" y="39"/>
		</contour>
		<contour>
			<point x="444" y="-6" type="curve" smooth="yes"/>
			<point x="517" y="-6"/>
			<point x="569" y="23"/>
			<point x="569" y="114" type="curve" smooth="yes"/>
			<point x="569" y="354" type="line" smooth="yes"/>
			<point x="569" y="400"/>
			<point x="531" y="422"/>
			<point x="448" y="422" type="curve" smooth="yes"/>
			<point x="364" y="422"/>
			<point x="328" y="391"/>
			<point x="328" y="329" type="curve" smooth="yes"/>
			<point x="328" y="269"/>
			<point x="361" y="240"/>
			<point x="427" y="240" type="curve" smooth="yes"/>
			<point x="440" y="240" type="line"/>
			<point x="399" y="278" type="line"/>
			<point x="399" y="152" type="line" smooth="yes"/>
			<point x="399" y="138"/>
			<point x="392" y="132"/>
			<point x="382" y="132" type="curve" smooth="yes"/>
			<point x="368" y="132"/>
			<point x="355" y="152"/>
			<point x="340" y="166" type="curve" smooth="yes"/>
			<point x="315" y="190"/>
			<point x="288" y="196"/>
			<point x="249" y="196" type="curve" smooth="yes"/>
			<point x="219" y="196" type="line"/>
			<point x="219" y="93" type="line"/>
			<point x="248" y="93" type="line" smooth="yes"/>
			<point x="266" y="93"/>
			<point x="276" y="93"/>
			<point x="311" y="56" type="curve" smooth="yes"/>
			<point x="345" y="21"/>
			<point x="374" y="-6"/>
		</contour>
		<contour>
			<point x="423" y="366" type="curve"/>
			<point x="423" y="296" type="line"/>
			<point x="403" y="296"/>
			<point x="391" y="308"/>
			<point x="391" y="331" type="curve" smooth="yes"/>
			<point x="391" y="354"/>
			<point x="403" y="366"/>
		</contour>
	</outline>
	<anchor name="bottom" x="322" y="0"/>
	<anchor name="bottomright" x="557" y="0"/>
	<anchor name="top" x="322" y="606"/>
	<anchor name="topright" x="569" y="606"/>
</glyph>
<glyph name="co-khmer" format="2">
  <advance width="637"/>
  <unicode hex="1787"/>
  <anchor x="318" y="0" name="bottom"/>
  <anchor x="561" y="0" name="bottomright"/>
  <anchor x="318" y="606" name="top"/>
  <anchor x="561" y="606" name="topright"/>
  <outline>
    <contour>
      <point x="76" y="368" type="curve" smooth="yes"/>
      <point x="76" y="0" type="line"/>
      <point x="232" y="0" type="line"/>
      <point x="318" y="92" type="line"/>
      <point x="405" y="0" type="line"/>
      <point x="561" y="0" type="line"/>
      <point x="561" y="368" type="line"/>
      <point x="391" y="368" type="line"/>
      <point x="391" y="150" type="line"/>
      <point x="318" y="223" type="line"/>
      <point x="245" y="150" type="line"/>
      <point x="245" y="366" type="line" smooth="yes"/>
      <point x="245" y="412"/>
      <point x="229" y="432"/>
      <point x="202" y="448" type="curve"/>
      <point x="202" y="456" type="line" smooth="yes"/>
      <point x="202" y="476"/>
      <point x="215" y="478"/>
      <point x="224" y="478" type="curve" smooth="yes"/>
      <point x="275" y="478" type="line"/>
      <point x="339" y="454" type="line"/>
      <point x="441" y="454" type="line" smooth="yes"/>
      <point x="544" y="454"/>
      <point x="561" y="510"/>
      <point x="561" y="568" type="curve" smooth="yes"/>
      <point x="561" y="634" type="line"/>
      <point x="413" y="634" type="line"/>
      <point x="413" y="593" type="line" smooth="yes"/>
      <point x="413" y="571"/>
      <point x="400" y="568"/>
      <point x="385" y="568" type="curve" smooth="yes"/>
      <point x="373" y="568" type="line"/>
      <point x="275" y="606" type="line"/>
      <point x="164" y="606" type="line" smooth="yes"/>
      <point x="86" y="606"/>
      <point x="44" y="566"/>
      <point x="44" y="488" type="curve" smooth="yes"/>
      <point x="44" y="427" type="line"/>
      <point x="67" y="415"/>
      <point x="76" y="396"/>
    </contour>
  </outline>
</glyph>
<glyph name="cho-khmer" format="2">
	<unicode hex="1788"/>
	<advance width="1252"/>
	<outline>
		<contour>
			<point x="597" y="-10" type="curve" smooth="yes"/>
			<point x="685" y="-10"/>
			<point x="752" y="20"/>
			<point x="798" y="84" type="curve"/>
			<point x="764" y="84" type="line"/>
			<point x="810" y="21"/>
			<point x="875" y="-10"/>
			<point x="963" y="-10" type="curve" smooth="yes"/>
			<point x="1092" y="-10"/>
			<point x="1176" y="57"/>
			<point x="1176" y="174" type="curve" smooth="yes"/>
			<point x="1176" y="364" type="line" smooth="yes"/>
			<point x="1176" y="411"/>
			<point x="1158" y="432"/>
			<point x="1116" y="448" type="curve"/>
			<point x="1116" y="458" type="line" smooth="yes"/>
			<point x="1116" y="471"/>
			<point x="1123" y="478"/>
			<point x="1134" y="478" type="curve" smooth="yes"/>
			<point x="1182" y="478" type="line"/>
			<point x="1182" y="606" type="line"/>
			<point x="1077" y="606" type="line" smooth="yes"/>
			<point x="1009" y="606"/>
			<point x="974" y="569"/>
			<point x="974" y="498" type="curve" smooth="yes"/>
			<point x="974" y="425" type="line"/>
			<point x="994" y="417"/>
			<point x="1006" y="402"/>
			<point x="1006" y="368" type="curve" smooth="yes"/>
			<point x="1006" y="180" type="line" smooth="yes"/>
			<point x="1006" y="136"/>
			<point x="978" y="110"/>
			<point x="936" y="110" type="curve" smooth="yes"/>
			<point x="893" y="110"/>
			<point x="866" y="136"/>
			<point x="866" y="180" type="curve" smooth="yes"/>
			<point x="866" y="364" type="line" smooth="yes"/>
			<point x="866" y="411"/>
			<point x="848" y="432"/>
			<point x="806" y="448" type="curve"/>
			<point x="806" y="458" type="line" smooth="yes"/>
			<point x="806" y="471"/>
			<point x="813" y="478"/>
			<point x="824" y="478" type="curve" smooth="yes"/>
			<point x="872" y="478" type="line"/>
			<point x="872" y="606" type="line"/>
			<point x="767" y="606" type="line" smooth="yes"/>
			<point x="699" y="606"/>
			<point x="664" y="569"/>
			<point x="664" y="498" type="curve" smooth="yes"/>
			<point x="664" y="425" type="line"/>
			<point x="684" y="417"/>
			<point x="696" y="402"/>
			<point x="696" y="368" type="curve" smooth="yes"/>
			<point x="696" y="180" type="line" smooth="yes"/>
			<point x="696" y="137"/>
			<point x="669" y="110"/>
			<point x="626" y="110" type="curve" smooth="yes"/>
			<point x="583" y="110"/>
			<point x="556" y="136"/>
			<point x="556" y="180" type="curve" smooth="yes"/>
			<point x="556" y="426" type="line" smooth="yes"/>
			<point x="556" y="547"/>
			<point x="464" y="616"/>
			<point x="316" y="616" type="curve" smooth="yes"/>
			<point x="166" y="616"/>
			<point x="76" y="547"/>
			<point x="76" y="426" type="curve" smooth="yes"/>
			<point x="76" y="62" type="line" smooth="yes"/>
			<point x="76" y="16"/>
			<point x="114" y="-6"/>
			<point x="197" y="-6" type="curve" smooth="yes"/>
			<point x="281" y="-6"/>
			<point x="317" y="25"/>
			<point x="317" y="87" type="curve" smooth="yes"/>
			<point x="317" y="147"/>
			<point x="284" y="176"/>
			<point x="218" y="176" type="curve" smooth="yes"/>
			<point x="205" y="176" type="line"/>
			<point x="246" y="138" type="line"/>
			<point x="246" y="426" type="line" smooth="yes"/>
			<point x="246" y="470"/>
			<point x="274" y="496"/>
			<point x="316" y="496" type="curve" smooth="yes"/>
			<point x="356" y="496"/>
			<point x="386" y="470"/>
			<point x="386" y="426" type="curve" smooth="yes"/>
			<point x="386" y="174" type="line" smooth="yes"/>
			<point x="386" y="57"/>
			<point x="469" y="-10"/>
		</contour>
		<contour>
			<point x="222" y="50" type="curve"/>
			<point x="222" y="120" type="line"/>
			<point x="242" y="120"/>
			<point x="254" y="108"/>
			<point x="254" y="85" type="curve" smooth="yes"/>
			<point x="254" y="62"/>
			<point x="242" y="50"/>
		</contour>
	</outline>
	<anchor name="bottom" x="937" y="0"/>
	<anchor name="bottomright" x="1166" y="0"/>
	<anchor name="top" x="937" y="606"/>
	<anchor name="topright" x="1176" y="606"/>
</glyph>
<glyph name="nyo-khmer" format="2">
  <advance width="954"/>
  <unicode hex="1789"/>
  <anchor x="641" y="-258" name="bottom"/>
  <anchor x="868" y="-258" name="bottomright"/>
  <anchor x="636" y="606" name="top"/>
  <anchor x="848" y="606" name="topright"/>
  <outline>
    <contour>
      <point x="642" y="-258" type="curve" smooth="yes"/>
      <point x="720" y="-258" type="line" smooth="yes"/>
      <point x="834" y="-258"/>
      <point x="884" y="-226"/>
      <point x="884" y="-143" type="curve" smooth="yes"/>
      <point x="884" y="-85"/>
      <point x="854" y="-42"/>
      <point x="760" y="-42" type="curve" smooth="yes"/>
      <point x="736" y="-42"/>
      <point x="707" y="-45"/>
      <point x="689" y="-49" type="curve"/>
      <point x="689" y="-116" type="line"/>
      <point x="698" y="-114"/>
      <point x="713" y="-111"/>
      <point x="722" y="-111" type="curve" smooth="yes"/>
      <point x="735" y="-111"/>
      <point x="742" y="-117"/>
      <point x="742" y="-127" type="curve" smooth="yes"/>
      <point x="742" y="-140"/>
      <point x="730" y="-148"/>
      <point x="709" y="-148" type="curve" smooth="yes"/>
      <point x="642" y="-148" type="line" smooth="yes"/>
      <point x="492" y="-148"/>
      <point x="393" y="-70"/>
      <point x="158" y="-70" type="curve" smooth="yes"/>
      <point x="126" y="-70" type="line"/>
      <point x="126" y="-180" type="line"/>
      <point x="158" y="-180" type="line" smooth="yes"/>
      <point x="344" y="-180"/>
      <point x="444" y="-258"/>
    </contour>
    <component base="nyo-khmer.less"/>
  </outline>
</glyph>
<glyph name="da-khmer" format="2">
  <advance width="638"/>
  <unicode hex="178A"/>
  <anchor x="319" y="0" name="bottom"/>
  <anchor x="562" y="0" name="bottomright"/>
  <anchor x="319" y="606" name="top"/>
  <anchor x="562" y="606" name="topright"/>
  <outline>
    <contour>
      <point x="76" y="0" type="line"/>
      <point x="232" y="0" type="line"/>
      <point x="319" y="92" type="line"/>
      <point x="406" y="0" type="line"/>
      <point x="562" y="0" type="line"/>
      <point x="562" y="356" type="line"/>
      <point x="392" y="356" type="line"/>
      <point x="392" y="150" type="line"/>
      <point x="319" y="235" type="line"/>
      <point x="246" y="150" type="line"/>
      <point x="246" y="356" type="line"/>
      <point x="76" y="356" type="line"/>
    </contour>
    <contour>
      <point x="293" y="388" type="curve" smooth="yes"/>
      <point x="472" y="388"/>
      <point x="568" y="453"/>
      <point x="568" y="577" type="curve" smooth="yes"/>
      <point x="568" y="634" type="line"/>
      <point x="402" y="634" type="line"/>
      <point x="402" y="577" type="line" smooth="yes"/>
      <point x="402" y="522"/>
      <point x="373" y="496"/>
      <point x="302" y="496" type="curve" smooth="yes"/>
      <point x="266" y="496"/>
      <point x="244" y="501"/>
      <point x="244" y="519" type="curve" smooth="yes"/>
      <point x="244" y="527"/>
      <point x="251" y="534"/>
      <point x="260" y="534" type="curve" smooth="yes"/>
      <point x="267" y="534"/>
      <point x="272" y="533"/>
      <point x="281" y="531" type="curve"/>
      <point x="281" y="602" type="line"/>
      <point x="264" y="608"/>
      <point x="234" y="612"/>
      <point x="207" y="612" type="curve" smooth="yes"/>
      <point x="126" y="612"/>
      <point x="69" y="585"/>
      <point x="69" y="511" type="curve" smooth="yes"/>
      <point x="69" y="429"/>
      <point x="143" y="388"/>
    </contour>
  </outline>
</glyph>
<glyph name="ttha-khmer" format="2">
	<advance width="650"/>
	<unicode hex="178B"/>
	<anchor x="325" y="606" name="top"/>
	<anchor x="563" y="606" name="topright"/>
	<anchor x="564" y="0" name="bottomright"/>
	<anchor x="325" y="0" name="bottom"/>
	<outline>
		<contour>
			<point x="325" y="-10" type="curve" smooth="yes"/>
			<point x="482" y="-10"/>
			<point x="574" y="59"/>
			<point x="574" y="180" type="curve" smooth="yes"/>
			<point x="574" y="359" type="line" smooth="yes"/>
			<point x="574" y="405"/>
			<point x="544" y="435"/>
			<point x="479" y="451" type="curve"/>
			<point x="479" y="463" type="line" smooth="yes"/>
			<point x="479" y="475"/>
			<point x="485" y="481"/>
			<point x="495" y="481" type="curve" smooth="yes"/>
			<point x="501" y="481" type="line"/>
			<point x="544" y="471" type="line"/>
			<point x="553" y="471" type="line" smooth="yes"/>
			<point x="588" y="471"/>
			<point x="609" y="489"/>
			<point x="609" y="525" type="curve" smooth="yes"/>
			<point x="609" y="642" type="line"/>
			<point x="465" y="642" type="line"/>
			<point x="465" y="564" type="line"/>
			<point x="496" y="569" type="line"/>
			<point x="431" y="606" type="line"/>
			<point x="398" y="606" type="line" smooth="yes"/>
			<point x="355" y="606"/>
			<point x="341" y="579"/>
			<point x="341" y="539" type="curve" smooth="yes"/>
			<point x="341" y="422" type="line"/>
			<point x="380" y="414"/>
			<point x="404" y="397"/>
			<point x="404" y="363" type="curve" smooth="yes"/>
			<point x="404" y="180" type="line" smooth="yes"/>
			<point x="404" y="136"/>
			<point x="374" y="110"/>
			<point x="325" y="110" type="curve" smooth="yes"/>
			<point x="277" y="110"/>
			<point x="246" y="136"/>
			<point x="246" y="180" type="curve" smooth="yes"/>
			<point x="246" y="292" type="line"/>
			<point x="273" y="439" type="line"/>
			<point x="273" y="544" type="line" smooth="yes"/>
			<point x="273" y="585"/>
			<point x="240" y="612"/>
			<point x="153" y="612" type="curve" smooth="yes"/>
			<point x="74" y="612"/>
			<point x="37" y="581"/>
			<point x="37" y="519" type="curve" smooth="yes"/>
			<point x="37" y="459"/>
			<point x="71" y="430"/>
			<point x="136" y="430" type="curve" smooth="yes"/>
			<point x="149" y="430" type="line"/>
			<point x="106" y="439" type="line"/>
			<point x="76" y="292" type="line"/>
			<point x="76" y="180" type="line" smooth="yes"/>
			<point x="76" y="59"/>
			<point x="169" y="-10"/>
		</contour>
		<contour>
			<point x="132" y="556" type="curve"/>
			<point x="132" y="486" type="line"/>
			<point x="113" y="486"/>
			<point x="101" y="498"/>
			<point x="101" y="521" type="curve" smooth="yes"/>
			<point x="101" y="544"/>
			<point x="113" y="556"/>
		</contour>
	</outline>
</glyph>
<glyph name="do-khmer" format="2">
  <advance width="604"/>
  <unicode hex="178C"/>
  <anchor x="299" y="0" name="bottom"/>
  <anchor x="536" y="0" name="bottomright"/>
  <anchor x="302" y="606" name="top"/>
  <anchor x="536" y="606" name="topright"/>
  <outline>
    <contour>
      <point x="235" y="-10" type="curve" smooth="yes"/>
      <point x="330" y="-10"/>
      <point x="389" y="35"/>
      <point x="406" y="108" type="curve"/>
      <point x="380" y="164" type="line"/>
      <point x="374" y="140"/>
      <point x="337" y="108"/>
      <point x="291" y="108" type="curve" smooth="yes"/>
      <point x="255" y="108"/>
      <point x="231" y="127"/>
      <point x="231" y="159" type="curve" smooth="yes"/>
      <point x="231" y="180" type="line"/>
      <point x="471" y="209"/>
      <point x="550" y="269"/>
      <point x="550" y="403" type="curve" smooth="yes"/>
      <point x="550" y="492" type="line"/>
      <point x="410" y="612" type="line"/>
      <point x="392" y="612" type="line"/>
      <point x="303" y="545" type="line"/>
      <point x="214" y="612" type="line"/>
      <point x="196" y="612" type="line"/>
      <point x="56" y="492" type="line"/>
      <point x="56" y="402" type="line" smooth="yes"/>
      <point x="56" y="349"/>
      <point x="89" y="319"/>
      <point x="184" y="319" type="curve" smooth="yes"/>
      <point x="225" y="319"/>
      <point x="253" y="324"/>
      <point x="265" y="328" type="curve"/>
      <point x="265" y="399" type="line"/>
      <point x="262" y="398"/>
      <point x="254" y="396"/>
      <point x="246" y="396" type="curve" smooth="yes"/>
      <point x="233" y="396"/>
      <point x="224" y="404"/>
      <point x="224" y="417" type="curve" smooth="yes"/>
      <point x="224" y="451" type="line"/>
      <point x="246" y="468" type="line"/>
      <point x="300" y="426" type="line"/>
      <point x="306" y="426" type="line"/>
      <point x="360" y="468" type="line"/>
      <point x="382" y="451" type="line"/>
      <point x="382" y="398" type="line" smooth="yes"/>
      <point x="382" y="317"/>
      <point x="298" y="290"/>
      <point x="64" y="272" type="curve"/>
      <point x="64" y="145" type="line" smooth="yes"/>
      <point x="64" y="47"/>
      <point x="127" y="-10"/>
    </contour>
    <contour>
      <point x="391" y="0" type="line"/>
      <point x="536" y="0" type="line"/>
      <point x="536" y="180" type="line"/>
      <point x="376" y="180" type="line"/>
      <point x="376" y="94" type="line"/>
    </contour>
  </outline>
</glyph>
<glyph name="ttho-khmer" format="2">
  <advance width="954"/>
  <unicode hex="178D"/>
  <anchor x="636" y="0" name="bottom"/>
  <anchor x="868" y="0" name="bottomright"/>
  <anchor x="636" y="606" name="top"/>
  <anchor x="878" y="606" name="topright"/>
  <outline>
    <contour>
      <point x="394" y="0" type="line"/>
      <point x="564" y="0" type="line"/>
      <point x="564" y="489" type="line"/>
      <point x="417" y="616" type="line"/>
      <point x="406" y="616" type="line"/>
      <point x="320" y="552" type="line"/>
      <point x="234" y="616" type="line"/>
      <point x="223" y="616" type="line"/>
      <point x="76" y="489" type="line"/>
      <point x="76" y="62" type="line" smooth="yes"/>
      <point x="76" y="16"/>
      <point x="114" y="-6"/>
      <point x="197" y="-6" type="curve" smooth="yes"/>
      <point x="281" y="-6"/>
      <point x="317" y="25"/>
      <point x="317" y="87" type="curve" smooth="yes"/>
      <point x="317" y="147"/>
      <point x="284" y="176"/>
      <point x="218" y="176" type="curve" smooth="yes"/>
      <point x="205" y="176" type="line"/>
      <point x="246" y="138" type="line"/>
      <point x="246" y="450" type="line"/>
      <point x="273" y="475" type="line"/>
      <point x="317" y="439" type="line"/>
      <point x="323" y="439" type="line"/>
      <point x="367" y="475" type="line"/>
      <point x="394" y="450" type="line"/>
    </contour>
    <contour>
      <point x="222" y="50" type="curve"/>
      <point x="222" y="120" type="line"/>
      <point x="242" y="120"/>
      <point x="254" y="108"/>
      <point x="254" y="85" type="curve" smooth="yes"/>
      <point x="254" y="62"/>
      <point x="242" y="50"/>
    </contour>
    <contour>
      <point x="755" y="-6" type="curve" smooth="yes"/>
      <point x="826" y="-6"/>
      <point x="878" y="22"/>
      <point x="878" y="109" type="curve" smooth="yes"/>
      <point x="878" y="364" type="line" smooth="yes"/>
      <point x="878" y="411"/>
      <point x="860" y="432"/>
      <point x="818" y="448" type="curve"/>
      <point x="818" y="458" type="line" smooth="yes"/>
      <point x="818" y="471"/>
      <point x="825" y="478"/>
      <point x="836" y="478" type="curve" smooth="yes"/>
      <point x="884" y="478" type="line"/>
      <point x="884" y="606" type="line"/>
      <point x="779" y="606" type="line" smooth="yes"/>
      <point x="711" y="606"/>
      <point x="676" y="569"/>
      <point x="676" y="498" type="curve" smooth="yes"/>
      <point x="676" y="425" type="line"/>
      <point x="696" y="417"/>
      <point x="708" y="402"/>
      <point x="708" y="368" type="curve" smooth="yes"/>
      <point x="708" y="151" type="line" smooth="yes"/>
      <point x="708" y="137"/>
      <point x="701" y="131"/>
      <point x="694" y="131" type="curve" smooth="yes"/>
      <point x="683" y="131"/>
      <point x="671" y="146"/>
      <point x="657" y="165" type="curve" smooth="yes"/>
      <point x="643" y="185"/>
      <point x="628" y="200"/>
      <point x="600" y="200" type="curve" smooth="yes"/>
      <point x="557" y="200"/>
      <point x="531" y="162"/>
      <point x="525" y="109" type="curve"/>
      <point x="554" y="76" type="line"/>
      <point x="563" y="89"/>
      <point x="572" y="97"/>
      <point x="584" y="97" type="curve" smooth="yes"/>
      <point x="598" y="97"/>
      <point x="607" y="84"/>
      <point x="619" y="68" type="curve" smooth="yes"/>
      <point x="645" y="32"/>
      <point x="677" y="-6"/>
    </contour>
  </outline>
</glyph>
<glyph name="nno-khmer" format="2">
	<advance width="1252"/>
	<unicode hex="178E"/>
	<anchor x="626" y="606" name="top"/>
	<anchor x="1166" y="606" name="topright"/>
	<anchor x="868" y="0" name="bottomright"/>
	<anchor x="626" y="0" name="bottom"/>
	<outline>
		<contour>
			<point x="384" y="432" type="curve" smooth="yes"/>
			<point x="384" y="0" type="line"/>
			<point x="540" y="0" type="line"/>
			<point x="626" y="92" type="line"/>
			<point x="712" y="0" type="line"/>
			<point x="868" y="0" type="line"/>
			<point x="868" y="432" type="line" smooth="yes"/>
			<point x="868" y="471"/>
			<point x="895" y="496"/>
			<point x="935" y="496" type="curve" smooth="yes"/>
			<point x="978" y="496"/>
			<point x="1006" y="471"/>
			<point x="1006" y="432" type="curve" smooth="yes"/>
			<point x="1006" y="0" type="line"/>
			<point x="1176" y="0" type="line"/>
			<point x="1176" y="432" type="line" smooth="yes"/>
			<point x="1176" y="543"/>
			<point x="1084" y="616"/>
			<point x="935" y="616" type="curve" smooth="yes"/>
			<point x="786" y="616"/>
			<point x="698" y="543"/>
			<point x="698" y="432" type="curve" smooth="yes"/>
			<point x="698" y="150" type="line"/>
			<point x="626" y="223" type="line"/>
			<point x="554" y="150" type="line"/>
			<point x="554" y="432" type="line" smooth="yes"/>
			<point x="554" y="543"/>
			<point x="465" y="616"/>
			<point x="315" y="616" type="curve" smooth="yes"/>
			<point x="165" y="616"/>
			<point x="76" y="543"/>
			<point x="76" y="432" type="curve" smooth="yes"/>
			<point x="76" y="62" type="line" smooth="yes"/>
			<point x="76" y="16"/>
			<point x="114" y="-6"/>
			<point x="197" y="-6" type="curve" smooth="yes"/>
			<point x="281" y="-6"/>
			<point x="317" y="25"/>
			<point x="317" y="87" type="curve" smooth="yes"/>
			<point x="317" y="147"/>
			<point x="284" y="176"/>
			<point x="218" y="176" type="curve" smooth="yes"/>
			<point x="205" y="176" type="line"/>
			<point x="246" y="138" type="line"/>
			<point x="246" y="432" type="line" smooth="yes"/>
			<point x="246" y="471"/>
			<point x="273" y="496"/>
			<point x="315" y="496" type="curve" smooth="yes"/>
			<point x="357" y="496"/>
			<point x="384" y="471"/>
		</contour>
		<contour>
			<point x="222" y="50" type="curve"/>
			<point x="222" y="120" type="line"/>
			<point x="242" y="120"/>
			<point x="254" y="108"/>
			<point x="254" y="85" type="curve" smooth="yes"/>
			<point x="254" y="62"/>
			<point x="242" y="50"/>
		</contour>
	</outline>
</glyph>
<glyph name="ta-khmer" format="2">
  <advance width="646"/>
  <unicode hex="178F"/>
  <anchor x="323" y="0" name="bottom"/>
  <anchor x="570" y="0" name="bottomright"/>
  <anchor x="323" y="606" name="top"/>
  <anchor x="570" y="606" name="topright"/>
  <outline>
    <contour>
      <point x="400" y="236" type="curve" smooth="yes"/>
      <point x="400" y="0" type="line"/>
      <point x="570" y="0" type="line"/>
      <point x="570" y="236" type="line" smooth="yes"/>
      <point x="570" y="357"/>
      <point x="477" y="426"/>
      <point x="323" y="426" type="curve" smooth="yes"/>
      <point x="169" y="426"/>
      <point x="76" y="357"/>
      <point x="76" y="236" type="curve" smooth="yes"/>
      <point x="76" y="62" type="line" smooth="yes"/>
      <point x="76" y="16"/>
      <point x="114" y="-6"/>
      <point x="197" y="-6" type="curve" smooth="yes"/>
      <point x="281" y="-6"/>
      <point x="317" y="25"/>
      <point x="317" y="87" type="curve" smooth="yes"/>
      <point x="317" y="147"/>
      <point x="284" y="176"/>
      <point x="218" y="176" type="curve" smooth="yes"/>
      <point x="205" y="176" type="line"/>
      <point x="246" y="138" type="line"/>
      <point x="246" y="236" type="line" smooth="yes"/>
      <point x="246" y="280"/>
      <point x="277" y="306"/>
      <point x="323" y="306" type="curve" smooth="yes"/>
      <point x="369" y="306"/>
      <point x="400" y="280"/>
    </contour>
    <contour>
      <point x="222" y="50" type="curve"/>
      <point x="222" y="120" type="line"/>
      <point x="242" y="120"/>
      <point x="254" y="108"/>
      <point x="254" y="85" type="curve" smooth="yes"/>
      <point x="254" y="62"/>
      <point x="242" y="50"/>
    </contour>
    <contour>
      <point x="72" y="478" type="line"/>
      <point x="574" y="478" type="line"/>
      <point x="574" y="606" type="line"/>
      <point x="72" y="606" type="line"/>
    </contour>
  </outline>
</glyph>
<glyph name="to-khmer" format="2">
	<advance width="582"/>
	<unicode hex="1791"/>
	<anchor x="279" y="617" name="top"/>
	<anchor x="521" y="617" name="topright"/>
	<anchor x="448" y="0" name="bottomright"/>
	<anchor x="280" y="0" name="bottom"/>
	<outline>
		<contour>
			<point x="338" y="207" type="curve"/>
			<point x="355" y="310" type="line"/>
			<point x="263" y="314"/>
			<point x="206" y="344"/>
			<point x="206" y="416" type="curve" smooth="yes"/>
			<point x="206" y="469"/>
			<point x="236" y="496"/>
			<point x="286" y="496" type="curve" smooth="yes"/>
			<point x="330" y="496"/>
			<point x="358" y="472"/>
			<point x="358" y="438" type="curve" smooth="yes"/>
			<point x="358" y="426"/>
			<point x="354" y="409"/>
			<point x="348" y="395" type="curve"/>
			<point x="519" y="395" type="line"/>
			<point x="524" y="408"/>
			<point x="528" y="427"/>
			<point x="528" y="446" type="curve" smooth="yes"/>
			<point x="528" y="540"/>
			<point x="440" y="616"/>
			<point x="280" y="616" type="curve" smooth="yes"/>
			<point x="126" y="616"/>
			<point x="32" y="545"/>
			<point x="32" y="423" type="curve" smooth="yes"/>
			<point x="32" y="266"/>
			<point x="178" y="213"/>
		</contour>
		<contour>
			<point x="278" y="-10" type="curve" smooth="yes"/>
			<point x="404" y="-10"/>
			<point x="476" y="45"/>
			<point x="476" y="140" type="curve" smooth="yes"/>
			<point x="476" y="211" type="line"/>
			<point x="440" y="177" type="line"/>
			<point x="452" y="177" type="line" smooth="yes"/>
			<point x="505" y="177"/>
			<point x="540" y="207"/>
			<point x="540" y="264" type="curve" smooth="yes"/>
			<point x="540" y="320"/>
			<point x="505" y="359"/>
			<point x="423" y="359" type="curve" smooth="yes"/>
			<point x="350" y="359"/>
			<point x="310" y="329"/>
			<point x="310" y="282" type="curve" smooth="yes"/>
			<point x="310" y="141" type="line" smooth="yes"/>
			<point x="310" y="118"/>
			<point x="297" y="104"/>
			<point x="275" y="104" type="curve" smooth="yes"/>
			<point x="253" y="104"/>
			<point x="239" y="118"/>
			<point x="239" y="141" type="curve" smooth="yes"/>
			<point x="239" y="184" type="line"/>
			<point x="73" y="184" type="line"/>
			<point x="73" y="141" type="line" smooth="yes"/>
			<point x="73" y="45"/>
			<point x="151" y="-10"/>
		</contour>
		<contour>
			<point x="448" y="237" type="curve"/>
			<point x="448" y="296" type="line"/>
			<point x="465" y="296"/>
			<point x="474" y="285"/>
			<point x="474" y="267" type="curve" smooth="yes"/>
			<point x="474" y="249"/>
			<point x="465" y="237"/>
		</contour>
	</outline>
</glyph>
<glyph name="tho-khmer" format="2">
	<unicode hex="1792"/>
	<advance width="646"/>
	<outline>
		<contour>
			<point x="76" y="368" type="curve" smooth="yes"/>
			<point x="76" y="0" type="line"/>
			<point x="233" y="0" type="line"/>
			<point x="323" y="92" type="line"/>
			<point x="414" y="0" type="line"/>
			<point x="570" y="0" type="line"/>
			<point x="570" y="354" type="line" smooth="yes"/>
			<point x="570" y="400"/>
			<point x="532" y="422"/>
			<point x="449" y="422" type="curve" smooth="yes"/>
			<point x="365" y="422"/>
			<point x="329" y="391"/>
			<point x="329" y="329" type="curve" smooth="yes"/>
			<point x="329" y="269"/>
			<point x="362" y="240"/>
			<point x="428" y="240" type="curve" smooth="yes"/>
			<point x="441" y="240" type="line"/>
			<point x="400" y="278" type="line"/>
			<point x="400" y="150" type="line"/>
			<point x="323" y="223" type="line"/>
			<point x="246" y="150" type="line"/>
			<point x="246" y="366" type="line" smooth="yes"/>
			<point x="246" y="412"/>
			<point x="230" y="432"/>
			<point x="203" y="448" type="curve"/>
			<point x="203" y="456" type="line" smooth="yes"/>
			<point x="203" y="477"/>
			<point x="217" y="478"/>
			<point x="224" y="478" type="curve" smooth="yes"/>
			<point x="573" y="478" type="line"/>
			<point x="573" y="606" type="line"/>
			<point x="165" y="606" type="line" smooth="yes"/>
			<point x="87" y="606"/>
			<point x="45" y="566"/>
			<point x="45" y="488" type="curve" smooth="yes"/>
			<point x="45" y="427" type="line"/>
			<point x="65" y="416"/>
			<point x="76" y="400"/>
		</contour>
		<contour>
			<point x="424" y="366" type="curve"/>
			<point x="424" y="296" type="line"/>
			<point x="404" y="296"/>
			<point x="392" y="308"/>
			<point x="392" y="331" type="curve" smooth="yes"/>
			<point x="392" y="354"/>
			<point x="404" y="366"/>
		</contour>
	</outline>
	<anchor name="bottom" x="323" y="0"/>
	<anchor name="bottomright" x="570" y="0"/>
	<anchor name="top" x="322" y="606"/>
	<anchor name="topright" x="569" y="606"/>
</glyph>
<glyph name="no-khmer" format="2">
	<advance width="610"/>
	<unicode hex="1793"/>
	<anchor x="309" y="616" name="top"/>
	<anchor x="534" y="616" name="topright"/>
	<anchor x="532" y="0" name="bottomright"/>
	<anchor x="300" y="0" name="bottom"/>
	<outline>
		<contour>
			<point x="372" y="-10" type="curve" smooth="yes"/>
			<point x="479" y="-10"/>
			<point x="542" y="43"/>
			<point x="542" y="136" type="curve" smooth="yes"/>
			<point x="542" y="281" type="line"/>
			<point x="354" y="300"/>
			<point x="226" y="324"/>
			<point x="226" y="418" type="curve" smooth="yes"/>
			<point x="226" y="469"/>
			<point x="260" y="498"/>
			<point x="312" y="498" type="curve" smooth="yes"/>
			<point x="356" y="498"/>
			<point x="382" y="480"/>
			<point x="382" y="455" type="curve" smooth="yes"/>
			<point x="382" y="439"/>
			<point x="370" y="428"/>
			<point x="354" y="428" type="curve" smooth="yes"/>
			<point x="346" y="428"/>
			<point x="335" y="431"/>
			<point x="329" y="433" type="curve"/>
			<point x="329" y="349" type="line"/>
			<point x="344" y="344"/>
			<point x="374" y="339"/>
			<point x="402" y="339" type="curve" smooth="yes"/>
			<point x="492" y="339"/>
			<point x="548" y="379"/>
			<point x="548" y="460" type="curve" smooth="yes"/>
			<point x="548" y="561"/>
			<point x="461" y="616"/>
			<point x="310" y="616" type="curve" smooth="yes"/>
			<point x="159" y="616"/>
			<point x="58" y="555"/>
			<point x="58" y="422" type="curve" smooth="yes"/>
			<point x="58" y="277"/>
			<point x="180" y="225"/>
			<point x="375" y="195" type="curve"/>
			<point x="375" y="159" type="line" smooth="yes"/>
			<point x="375" y="127"/>
			<point x="350" y="108"/>
			<point x="314" y="108" type="curve" smooth="yes"/>
			<point x="268" y="108"/>
			<point x="232" y="140"/>
			<point x="226" y="164" type="curve"/>
			<point x="200" y="109" type="line"/>
			<point x="217" y="35"/>
			<point x="275" y="-10"/>
		</contour>
		<contour>
			<point x="70" y="0" type="line"/>
			<point x="215" y="0" type="line"/>
			<point x="230" y="93" type="line"/>
			<point x="230" y="190" type="line"/>
			<point x="70" y="190" type="line"/>
		</contour>
	</outline>
</glyph>
<glyph name="ba-khmer" format="2">
  <advance width="642"/>
  <unicode hex="1794"/>
  <anchor x="321" y="0" name="bottom"/>
  <anchor x="556" y="0" name="bottomright"/>
  <anchor x="321" y="606" name="top"/>
  <anchor x="554" y="606" name="topright"/>
  <outline>
    <contour>
      <point x="321" y="-10" type="curve" smooth="yes"/>
      <point x="475" y="-10"/>
      <point x="566" y="59"/>
      <point x="566" y="180" type="curve" smooth="yes"/>
      <point x="566" y="364" type="line" smooth="yes"/>
      <point x="566" y="411"/>
      <point x="548" y="432"/>
      <point x="506" y="448" type="curve"/>
      <point x="506" y="458" type="line" smooth="yes"/>
      <point x="506" y="471"/>
      <point x="513" y="478"/>
      <point x="524" y="478" type="curve" smooth="yes"/>
      <point x="572" y="478" type="line"/>
      <point x="572" y="606" type="line"/>
      <point x="467" y="606" type="line" smooth="yes"/>
      <point x="399" y="606"/>
      <point x="364" y="569"/>
      <point x="364" y="498" type="curve" smooth="yes"/>
      <point x="364" y="425" type="line"/>
      <point x="384" y="417"/>
      <point x="396" y="402"/>
      <point x="396" y="368" type="curve" smooth="yes"/>
      <point x="396" y="180" type="line" smooth="yes"/>
      <point x="396" y="136"/>
      <point x="367" y="110"/>
      <point x="321" y="110" type="curve" smooth="yes"/>
      <point x="275" y="110"/>
      <point x="246" y="136"/>
      <point x="246" y="180" type="curve" smooth="yes"/>
      <point x="246" y="364" type="line" smooth="yes"/>
      <point x="246" y="411"/>
      <point x="228" y="432"/>
      <point x="186" y="448" type="curve"/>
      <point x="186" y="458" type="line" smooth="yes"/>
      <point x="186" y="471"/>
      <point x="193" y="478"/>
      <point x="204" y="478" type="curve" smooth="yes"/>
      <point x="252" y="478" type="line"/>
      <point x="252" y="606" type="line"/>
      <point x="147" y="606" type="line" smooth="yes"/>
      <point x="79" y="606"/>
      <point x="44" y="569"/>
      <point x="44" y="498" type="curve" smooth="yes"/>
      <point x="44" y="425" type="line"/>
      <point x="64" y="417"/>
      <point x="76" y="402"/>
      <point x="76" y="368" type="curve" smooth="yes"/>
      <point x="76" y="180" type="line" smooth="yes"/>
      <point x="76" y="59"/>
      <point x="167" y="-10"/>
    </contour>
  </outline>
</glyph>
<glyph name="pha-khmer" format="2">
  <advance width="646"/>
  <unicode hex="1795"/>
  <anchor x="323" y="0" name="bottom"/>
  <anchor x="570" y="0" name="bottomright"/>
  <anchor x="322" y="606" name="top"/>
  <anchor x="569" y="606" name="topright"/>
  <outline>
    <contour>
      <point x="77" y="368" type="curve" smooth="yes"/>
      <point x="77" y="0" type="line"/>
      <point x="233" y="0" type="line"/>
      <point x="323" y="92" type="line"/>
      <point x="414" y="0" type="line"/>
      <point x="570" y="0" type="line"/>
      <point x="570" y="338" type="line" smooth="yes"/>
      <point x="570" y="384"/>
      <point x="532" y="406"/>
      <point x="449" y="406" type="curve" smooth="yes"/>
      <point x="365" y="406"/>
      <point x="329" y="375"/>
      <point x="329" y="313" type="curve" smooth="yes"/>
      <point x="329" y="253"/>
      <point x="362" y="224"/>
      <point x="428" y="224" type="curve" smooth="yes"/>
      <point x="441" y="224" type="line"/>
      <point x="400" y="262" type="line"/>
      <point x="400" y="144" type="line"/>
      <point x="323" y="217" type="line"/>
      <point x="246" y="144" type="line"/>
      <point x="246" y="366" type="line" smooth="yes"/>
      <point x="246" y="412"/>
      <point x="230" y="432"/>
      <point x="203" y="448" type="curve"/>
      <point x="203" y="456" type="line" smooth="yes"/>
      <point x="203" y="476"/>
      <point x="216" y="478"/>
      <point x="225" y="478" type="curve" smooth="yes"/>
      <point x="284" y="478" type="line"/>
      <point x="348" y="454" type="line"/>
      <point x="450" y="454" type="line" smooth="yes"/>
      <point x="553" y="454"/>
      <point x="570" y="510"/>
      <point x="570" y="568" type="curve" smooth="yes"/>
      <point x="570" y="634" type="line"/>
      <point x="422" y="634" type="line"/>
      <point x="422" y="593" type="line" smooth="yes"/>
      <point x="422" y="571"/>
      <point x="409" y="568"/>
      <point x="394" y="568" type="curve" smooth="yes"/>
      <point x="382" y="568" type="line"/>
      <point x="285" y="606" type="line"/>
      <point x="165" y="606" type="line" smooth="yes"/>
      <point x="87" y="606"/>
      <point x="45" y="566"/>
      <point x="45" y="488" type="curve" smooth="yes"/>
      <point x="45" y="427" type="line"/>
      <point x="68" y="415"/>
      <point x="77" y="396"/>
    </contour>
    <contour>
      <point x="424" y="350" type="curve"/>
      <point x="424" y="280" type="line"/>
      <point x="404" y="280"/>
      <point x="392" y="292"/>
      <point x="392" y="315" type="curve" smooth="yes"/>
      <point x="392" y="338"/>
      <point x="404" y="350"/>
    </contour>
  </outline>
</glyph>
<glyph name="po-khmer" format="2">
	<advance width="646"/>
	<unicode hex="1796"/>
	<anchor x="323" y="606" name="top"/>
	<anchor x="560" y="606" name="topright"/>
	<anchor x="570" y="0" name="bottomright"/>
	<anchor x="323" y="0" name="bottom"/>
	<outline>
		<contour>
			<point x="400" y="0" type="line"/>
			<point x="570" y="0" type="line"/>
			<point x="570" y="489" type="line"/>
			<point x="424" y="616" type="line"/>
			<point x="412" y="616" type="line"/>
			<point x="323" y="552" type="line"/>
			<point x="234" y="616" type="line"/>
			<point x="222" y="616" type="line"/>
			<point x="76" y="489" type="line"/>
			<point x="76" y="62" type="line" smooth="yes"/>
			<point x="76" y="16"/>
			<point x="114" y="-6"/>
			<point x="197" y="-6" type="curve" smooth="yes"/>
			<point x="281" y="-6"/>
			<point x="317" y="25"/>
			<point x="317" y="87" type="curve" smooth="yes"/>
			<point x="317" y="147"/>
			<point x="284" y="176"/>
			<point x="218" y="176" type="curve" smooth="yes"/>
			<point x="205" y="176" type="line"/>
			<point x="246" y="138" type="line"/>
			<point x="246" y="450" type="line"/>
			<point x="274" y="475" type="line"/>
			<point x="320" y="439" type="line"/>
			<point x="326" y="439" type="line"/>
			<point x="372" y="475" type="line"/>
			<point x="400" y="450" type="line"/>
		</contour>
		<contour>
			<point x="222" y="50" type="curve"/>
			<point x="222" y="120" type="line"/>
			<point x="242" y="120"/>
			<point x="254" y="108"/>
			<point x="254" y="85" type="curve" smooth="yes"/>
			<point x="254" y="62"/>
			<point x="242" y="50"/>
		</contour>
	</outline>
</glyph>
<glyph name="pho-khmer" format="2">
	<unicode hex="1797"/>
	<advance width="646"/>
	<outline>
		<contour>
			<point x="151" y="-8" type="curve" smooth="yes"/>
			<point x="227" y="-8"/>
			<point x="283" y="20"/>
			<point x="283" y="90" type="curve" smooth="yes"/>
			<point x="283" y="139"/>
			<point x="255" y="193"/>
			<point x="255" y="237" type="curve" smooth="yes"/>
			<point x="255" y="280"/>
			<point x="282" y="306"/>
			<point x="323" y="306" type="curve" smooth="yes"/>
			<point x="369" y="306"/>
			<point x="400" y="280"/>
			<point x="400" y="236" type="curve" smooth="yes"/>
			<point x="400" y="0" type="line"/>
			<point x="570" y="0" type="line"/>
			<point x="570" y="236" type="line" smooth="yes"/>
			<point x="570" y="357"/>
			<point x="476" y="426"/>
			<point x="326" y="426" type="curve" smooth="yes"/>
			<point x="170" y="426"/>
			<point x="83" y="352"/>
			<point x="83" y="243" type="curve" smooth="yes"/>
			<point x="83" y="163"/>
			<point x="130" y="111"/>
			<point x="130" y="77" type="curve" smooth="yes"/>
			<point x="130" y="71"/>
			<point x="128" y="66"/>
			<point x="126" y="62" type="curve"/>
			<point x="124" y="62" type="line"/>
			<point x="109" y="72"/>
			<point x="96" y="97"/>
			<point x="90" y="125" type="curve"/>
			<point x="14" y="93" type="line"/>
			<point x="37" y="23"/>
			<point x="73" y="-8"/>
		</contour>
		<contour>
			<point x="73" y="478" type="line"/>
			<point x="574" y="478" type="line"/>
			<point x="574" y="606" type="line"/>
			<point x="73" y="606" type="line"/>
		</contour>
	</outline>
	<anchor name="bottom" x="323" y="0"/>
	<anchor name="bottomright" x="570" y="0"/>
	<anchor name="top" x="323" y="606"/>
	<anchor name="topright" x="570" y="606"/>
</glyph>
